ISO-10303-21;
HEADER;
FILE_DESCRIPTION(('Open CASCADE Model'),'2;1');
FILE_NAME('Open CASCADE Shape Model','2026-10-01T20:21:12',('Author'),(
    'Open CASCADE'),'Open CASCADE STEP processor 8.0','build123d',
  'Unknown');
FILE_SCHEMA(('AUTOMOTIVE_DESIGN { 1 0 10303 214 1 1 1 1 }'));
ENDSEC;
DATA;
#1 = APPLICATION_PROTOCOL_DEFINITION('international standard',
  'automotive_design',2000,#2);
#2 = APPLICATION_CONTEXT(
  'core data for automotive mechanical design processes');
#3 = SHAPE_DEFINITION_REPRESENTATION(#4,#10);
#4 = PRODUCT_DEFINITION_SHAPE('','',#5);
#5 = PRODUCT_DEFINITION('design','',#6,#9);
#6 = PRODUCT_DEFINITION_FORMATION('','',#7);
#7 = PRODUCT('=>[0:1:1:2]','=>[0:1:1:2]','',(#8));
#8 = PRODUCT_CONTEXT('',#2,'mechanical');
#9 = PRODUCT_DEFINITION_CONTEXT('part definition',#2,'design');
#10 = SHAPE_REPRESENTATION('',(#11,#15),#19);
#11 = AXIS2_PLACEMENT_3D('',#12,#13,#14);
#12 = CARTESIAN_POINT('',(0.,0.,0.));
#13 = DIRECTION('',(0.,0.,1.));
#14 = DIRECTION('',(1.,0.,-0.));
#15 = AXIS2_PLACEMENT_3D('',#16,#17,#18);
#16 = CARTESIAN_POINT('',(1.83E+03,-110.,640.));
#17 = DIRECTION('',(0.,0.,1.));
#18 = DIRECTION('',(1.,0.,0.));
#19 = ( GEOMETRIC_REPRESENTATION_CONTEXT(3) 
GLOBAL_UNCERTAINTY_ASSIGNED_CONTEXT((#23)) GLOBAL_UNIT_ASSIGNED_CONTEXT(
(#20,#21,#22)) REPRESENTATION_CONTEXT('Context #1',
  '3D Context with UNIT and UNCERTAINTY') );
#20 = ( LENGTH_UNIT() NAMED_UNIT(*) SI_UNIT(.MILLI.,.METRE.) );
#21 = ( NAMED_UNIT(*) PLANE_ANGLE_UNIT() SI_UNIT($,.RADIAN.) );
#22 = ( NAMED_UNIT(*) SI_UNIT($,.STERADIAN.) SOLID_ANGLE_UNIT() );
#23 = UNCERTAINTY_MEASURE_WITH_UNIT(LENGTH_MEASURE(1.E-07),#20,
  'distance_accuracy_value','confusion accuracy');
#24 = PRODUCT_RELATED_PRODUCT_CATEGORY('part',$,(#7));
#25 = SHAPE_DEFINITION_REPRESENTATION(#26,#32);
#26 = PRODUCT_DEFINITION_SHAPE('','',#27);
#27 = PRODUCT_DEFINITION('design','',#28,#31);
#28 = PRODUCT_DEFINITION_FORMATION('','',#29);
#29 = PRODUCT('COMPOUND','COMPOUND','',(#30));
#30 = PRODUCT_CONTEXT('',#2,'mechanical');
#31 = PRODUCT_DEFINITION_CONTEXT('part definition',#2,'design');
#32 = ADVANCED_BREP_SHAPE_REPRESENTATION('',(#11,#33),#679);
#33 = MANIFOLD_SOLID_BREP('',#34);
#34 = CLOSED_SHELL('',(#35,#528,#563,#593,#648,#675));
#35 = ADVANCED_FACE('',(#36,#123),#50,.T.);
#36 = FACE_BOUND('',#37,.T.);
#37 = EDGE_LOOP('',(#38,#68,#95,#96));
#38 = ORIENTED_EDGE('',*,*,#39,.T.);
#39 = EDGE_CURVE('',#40,#42,#44,.T.);
#40 = VERTEX_POINT('',#41);
#41 = CARTESIAN_POINT('',(48.837168574084,13.5,-23.));
#42 = VERTEX_POINT('',#43);
#43 = CARTESIAN_POINT('',(48.837168574084,21.5,-23.));
#44 = SEAM_CURVE('',#45,(#49,#61),.PCURVE_S1.);
#45 = LINE('',#46,#47);
#46 = CARTESIAN_POINT('',(48.837168574084,13.5,-23.));
#47 = VECTOR('',#48,1.);
#48 = DIRECTION('',(0.,1.,2.22044604925E-16));
#49 = PCURVE('',#50,#55);
#50 = CYLINDRICAL_SURFACE('',#51,9.);
#51 = AXIS2_PLACEMENT_3D('',#52,#53,#54);
#52 = CARTESIAN_POINT('',(39.837168574084,13.5,-23.));
#53 = DIRECTION('',(0.,1.,2.22044604925E-16));
#54 = DIRECTION('',(1.,0.,-0.));
#55 = DEFINITIONAL_REPRESENTATION('',(#56),#60);
#56 = LINE('',#57,#58);
#57 = CARTESIAN_POINT('',(6.28318530718,-0.));
#58 = VECTOR('',#59,1.);
#59 = DIRECTION('',(0.,1.));
#60 = ( GEOMETRIC_REPRESENTATION_CONTEXT(2) 
PARAMETRIC_REPRESENTATION_CONTEXT() REPRESENTATION_CONTEXT('2D SPACE',''
  ) );
#61 = PCURVE('',#50,#62);
#62 = DEFINITIONAL_REPRESENTATION('',(#63),#67);
#63 = LINE('',#64,#65);
#64 = CARTESIAN_POINT('',(0.,-0.));
#65 = VECTOR('',#66,1.);
#66 = DIRECTION('',(0.,1.));
#67 = ( GEOMETRIC_REPRESENTATION_CONTEXT(2) 
PARAMETRIC_REPRESENTATION_CONTEXT() REPRESENTATION_CONTEXT('2D SPACE',''
  ) );
#68 = ORIENTED_EDGE('',*,*,#69,.F.);
#69 = EDGE_CURVE('',#42,#42,#70,.T.);
#70 = SURFACE_CURVE('',#71,(#76,#83),.PCURVE_S1.);
#71 = CIRCLE('',#72,9.);
#72 = AXIS2_PLACEMENT_3D('',#73,#74,#75);
#73 = CARTESIAN_POINT('',(39.837168574084,21.5,-23.));
#74 = DIRECTION('',(0.,1.,2.22044604925E-16));
#75 = DIRECTION('',(1.,0.,-0.));
#76 = PCURVE('',#50,#77);
#77 = DEFINITIONAL_REPRESENTATION('',(#78),#82);
#78 = LINE('',#79,#80);
#79 = CARTESIAN_POINT('',(0.,8.));
#80 = VECTOR('',#81,1.);
#81 = DIRECTION('',(1.,0.));
#82 = ( GEOMETRIC_REPRESENTATION_CONTEXT(2) 
PARAMETRIC_REPRESENTATION_CONTEXT() REPRESENTATION_CONTEXT('2D SPACE',''
  ) );
#83 = PCURVE('',#84,#89);
#84 = PLANE('',#85);
#85 = AXIS2_PLACEMENT_3D('',#86,#87,#88);
#86 = CARTESIAN_POINT('',(39.837168574084,21.5,-23.));
#87 = DIRECTION('',(0.,1.,2.22044604925E-16));
#88 = DIRECTION('',(1.,0.,-0.));
#89 = DEFINITIONAL_REPRESENTATION('',(#90),#94);
#90 = CIRCLE('',#91,9.);
#91 = AXIS2_PLACEMENT_2D('',#92,#93);
#92 = CARTESIAN_POINT('',(0.,0.));
#93 = DIRECTION('',(1.,0.));
#94 = ( GEOMETRIC_REPRESENTATION_CONTEXT(2) 
PARAMETRIC_REPRESENTATION_CONTEXT() REPRESENTATION_CONTEXT('2D SPACE',''
  ) );
#95 = ORIENTED_EDGE('',*,*,#39,.F.);
#96 = ORIENTED_EDGE('',*,*,#97,.T.);
#97 = EDGE_CURVE('',#40,#40,#98,.T.);
#98 = SURFACE_CURVE('',#99,(#104,#111),.PCURVE_S1.);
#99 = CIRCLE('',#100,9.);
#100 = AXIS2_PLACEMENT_3D('',#101,#102,#103);
#101 = CARTESIAN_POINT('',(39.837168574084,13.5,-23.));
#102 = DIRECTION('',(0.,1.,2.22044604925E-16));
#103 = DIRECTION('',(1.,0.,-0.));
#104 = PCURVE('',#50,#105);
#105 = DEFINITIONAL_REPRESENTATION('',(#106),#110);
#106 = LINE('',#107,#108);
#107 = CARTESIAN_POINT('',(0.,0.));
#108 = VECTOR('',#109,1.);
#109 = DIRECTION('',(1.,0.));
#110 = ( GEOMETRIC_REPRESENTATION_CONTEXT(2) 
PARAMETRIC_REPRESENTATION_CONTEXT() REPRESENTATION_CONTEXT('2D SPACE',''
  ) );
#111 = PCURVE('',#112,#117);
#112 = PLANE('',#113);
#113 = AXIS2_PLACEMENT_3D('',#114,#115,#116);
#114 = CARTESIAN_POINT('',(39.837168574084,13.5,-23.));
#115 = DIRECTION('',(0.,1.,2.22044604925E-16));
#116 = DIRECTION('',(1.,0.,-0.));
#117 = DEFINITIONAL_REPRESENTATION('',(#118),#122);
#118 = CIRCLE('',#119,9.);
#119 = AXIS2_PLACEMENT_2D('',#120,#121);
#120 = CARTESIAN_POINT('',(0.,0.));
#121 = DIRECTION('',(1.,0.));
#122 = ( GEOMETRIC_REPRESENTATION_CONTEXT(2) 
PARAMETRIC_REPRESENTATION_CONTEXT() REPRESENTATION_CONTEXT('2D SPACE',''
  ) );
#123 = FACE_BOUND('',#124,.T.);
#124 = EDGE_LOOP('',(#125));
#125 = ORIENTED_EDGE('',*,*,#126,.T.);
#126 = EDGE_CURVE('',#127,#127,#129,.T.);
#127 = VERTEX_POINT('',#128);
#128 = CARTESIAN_POINT('',(43.037168574084,17.,-31.41189633792));
#129 = SURFACE_CURVE('',#130,(#259,#391),.PCURVE_S1.);
#130 = B_SPLINE_CURVE_WITH_KNOTS('',7,(#131,#132,#133,#134,#135,#136,
    #137,#138,#139,#140,#141,#142,#143,#144,#145,#146,#147,#148,#149,
    #150,#151,#152,#153,#154,#155,#156,#157,#158,#159,#160,#161,#162,
    #163,#164,#165,#166,#167,#168,#169,#170,#171,#172,#173,#174,#175,
    #176,#177,#178,#179,#180,#181,#182,#183,#184,#185,#186,#187,#188,
    #189,#190,#191,#192,#193,#194,#195,#196,#197,#198,#199,#200,#201,
    #202,#203,#204,#205,#206,#207,#208,#209,#210,#211,#212,#213,#214,
    #215,#216,#217,#218,#219,#220,#221,#222,#223,#224,#225,#226,#227,
    #228,#229,#230,#231,#232,#233,#234,#235,#236,#237,#238,#239,#240,
    #241,#242,#243,#244,#245,#246,#247,#248,#249,#250,#251,#252,#253,
    #254,#255,#256,#257,#258),.UNSPECIFIED.,.T.,.F.,(8,6,6,6,6,6,6,6,6,6
    ,6,6,6,6,6,6,6,6,6,6,6,8),(0.,0.121283699495,0.149036030264,
    0.18296352423,0.221583509169,0.277786733057,0.317032540132,
    0.351215504451,0.378986996664,0.422367221684,0.500055991227,
    0.562463946515,0.598744195831,0.62142391014,0.649168984181,
    0.683087606727,0.721697493245,0.777886021017,0.81712156603,
    0.851295592129,0.879059822604,1.),.UNSPECIFIED.);
#131 = CARTESIAN_POINT('',(43.037168574084,17.,-31.41189633792));
#132 = CARTESIAN_POINT('',(43.037168574084,17.30636463157,
    -31.41189633792));
#133 = CARTESIAN_POINT('',(43.00294959606,17.612117168236,
    -31.42491376389));
#134 = CARTESIAN_POINT('',(42.934753742064,17.914743316331,
    -31.4508560723));
#135 = CARTESIAN_POINT('',(42.832220400923,18.211611628512,
    -31.4888582119));
#136 = CARTESIAN_POINT('',(42.694523016134,18.499671646757,
    -31.53726189136));
#137 = CARTESIAN_POINT('',(42.520494670002,18.77505035117,
    -31.59349810239));
#138 = CARTESIAN_POINT('',(42.260418197168,19.091333398703,
    -31.66777930031));
#139 = CARTESIAN_POINT('',(42.209999336416,19.149311251854,
    -31.68183756617));
#140 = CARTESIAN_POINT('',(42.157567715966,19.206311785805,
    -31.69608047406));
#141 = CARTESIAN_POINT('',(42.103100548305,19.262268849256,
    -31.71046287305));
#142 = CARTESIAN_POINT('',(42.046575575977,19.317109542017,
    -31.72493601797));
#143 = CARTESIAN_POINT('',(41.987971071577,19.370754215005,
    -31.73944756943));
#144 = CARTESIAN_POINT('',(41.85305309969,19.487129835956,
    -31.77166067947));
#145 = CARTESIAN_POINT('',(41.775684519212,19.549240753583,
    -31.78935739314));
#146 = CARTESIAN_POINT('',(41.695137209603,19.609273725617,
    -31.80692507364));
#147 = CARTESIAN_POINT('',(41.611396133378,19.667039530671,
    -31.82424805437));
#148 = CARTESIAN_POINT('',(41.524454447267,19.722334958881,
    -31.84120245861));
#149 = CARTESIAN_POINT('',(41.434313847178,19.774942547306,
    -31.85765699473));
#150 = CARTESIAN_POINT('',(41.234747711299,19.88119036821,-31.8914781142
    ));
#151 = CARTESIAN_POINT('',(41.124255373363,19.934032704093,
    -31.90867708951));
#152 = CARTESIAN_POINT('',(41.009726296752,19.982682224018,
    -31.92482653968));
#153 = CARTESIAN_POINT('',(40.891410654552,20.026698310308,
    -31.93968543487));
#154 = CARTESIAN_POINT('',(40.769589881589,20.065672811237,
    -31.9530231781));
#155 = CARTESIAN_POINT('',(40.644576160455,20.099228025692,
    -31.96462693021));
#156 = CARTESIAN_POINT('',(40.330632517706,20.167452300539,
    -31.98839904582));
#157 = CARTESIAN_POINT('',(40.138571894284,20.195661135549,
    -31.99841489945));
#158 = CARTESIAN_POINT('',(39.942809989656,20.210314740818,
    -32.00368989575));
#159 = CARTESIAN_POINT('',(39.745757473522,20.210755997001,
    -32.00384877613));
#160 = CARTESIAN_POINT('',(39.549870196492,20.196971431637,
    -31.99888388444));
#161 = CARTESIAN_POINT('',(39.357563599054,20.169591712928,
    -31.98915619281));
#162 = CARTESIAN_POINT('',(39.040941434162,20.102215033269,
    -31.96566026414));
#163 = CARTESIAN_POINT('',(38.91366418158,20.068526978084,
    -31.95400009961));
#164 = CARTESIAN_POINT('',(38.789659331915,20.029217882399,
    -31.94053570137));
#165 = CARTESIAN_POINT('',(38.669258705319,19.984682537564,
    -31.92548959347));
#166 = CARTESIAN_POINT('',(38.552761342098,19.935349005346,
    -31.90910374936));
#167 = CARTESIAN_POINT('',(38.440432926436,19.88168082183,-31.89163162)
  );
#168 = CARTESIAN_POINT('',(38.238500536712,19.774095485646,
    -31.8573896541));
#169 = CARTESIAN_POINT('',(38.147732912352,19.721049785713,
    -31.84080276056));
#170 = CARTESIAN_POINT('',(38.060212775325,19.665279182731,
    -31.82371045875));
#171 = CARTESIAN_POINT('',(37.975941460866,19.607005755955,
    -31.80624688126));
#172 = CARTESIAN_POINT('',(37.894911559873,19.546436855804,
    -31.78853850066));
#173 = CARTESIAN_POINT('',(37.817107277638,19.483765377006,
    -31.77070331439));
#174 = CARTESIAN_POINT('',(37.681895001271,19.366690407322,
    -31.7383453673));
#175 = CARTESIAN_POINT('',(37.623387673457,19.312931395042,
    -31.72382619056));
#176 = CARTESIAN_POINT('',(37.566961458689,19.257979197138,
    -31.7093483632));
#177 = CARTESIAN_POINT('',(37.512594518468,19.201913288038,
    -31.69496415832));
#178 = CARTESIAN_POINT('',(37.460264526232,19.144806414346,
    -31.68072225839));
#179 = CARTESIAN_POINT('',(37.409948667356,19.086724594841,
    -31.66666775526));
#180 = CARTESIAN_POINT('',(37.286137936701,18.935570613584,
    -31.63124598033));
#181 = CARTESIAN_POINT('',(37.215506814533,18.84117635786,-31.6102075551
    ));
#182 = CARTESIAN_POINT('',(37.149650576353,18.744777401797,
    -31.58988767883));
#183 = CARTESIAN_POINT('',(37.088496276946,18.64658314738,
    -31.57042990921));
#184 = CARTESIAN_POINT('',(37.031977730375,18.546779657079,
    -31.55196150022));
#185 = CARTESIAN_POINT('',(36.980035518192,18.445529960831,
    -31.53459434507));
#186 = CARTESIAN_POINT('',(36.847696126117,18.159309612581,
    -31.4894702114));
#187 = CARTESIAN_POINT('',(36.777269045891,17.971422846726,
    -31.46435404081));
#188 = CARTESIAN_POINT('',(36.721135242024,17.780303257473,
    -31.44367047228));
#189 = CARTESIAN_POINT('',(36.679136184688,17.586824612185,
    -31.42786132863));
#190 = CARTESIAN_POINT('',(36.65116373887,17.391781413385,
    -31.41722034742));
#191 = CARTESIAN_POINT('',(36.637168574084,17.195925058567,
    -31.41189633792));
#192 = CARTESIAN_POINT('',(36.637168574084,16.842611971245,
    -31.41189633792));
#193 = CARTESIAN_POINT('',(36.646199678766,16.685247584043,
    -31.41533188645));
#194 = CARTESIAN_POINT('',(36.664256940947,16.528302809756,
    -31.4222011261));
#195 = CARTESIAN_POINT('',(36.691359827813,16.372176294331,
    -31.4324415167));
#196 = CARTESIAN_POINT('',(36.727550004345,16.217280661438,
    -31.44592923807));
#197 = CARTESIAN_POINT('',(36.77288911674,16.064053815589,
    -31.46247859279));
#198 = CARTESIAN_POINT('',(36.859178830033,15.825139301712,
    -31.49309779125));
#199 = CARTESIAN_POINT('',(36.894021039159,15.73802925823,
    -31.50530542844));
#200 = CARTESIAN_POINT('',(36.932004567158,15.651719418334,
    -31.51841755993));
#201 = CARTESIAN_POINT('',(36.973154291195,15.566296789623,
    -31.5323807103));
#202 = CARTESIAN_POINT('',(37.017498623863,15.481856182928,
    -31.5471344609));
#203 = CARTESIAN_POINT('',(37.065069535366,15.39850031146,
    -31.56261122123));
#204 = CARTESIAN_POINT('',(37.147679612941,15.26497930334,
    -31.58881601355));
#205 = CARTESIAN_POINT('',(37.180732414178,15.21408441555,
    -31.59914954261));
#206 = CARTESIAN_POINT('',(37.215070511567,15.163681110764,
    -31.60971857493));
#207 = CARTESIAN_POINT('',(37.250704095155,15.113797015047,
    -31.62050389067));
#208 = CARTESIAN_POINT('',(37.28764401291,15.06446149635,-31.63148506285
    ));
#209 = CARTESIAN_POINT('',(37.325901770718,15.015705664507,
    -31.64264045742));
#210 = CARTESIAN_POINT('',(37.413918951001,14.908666601297,
    -31.66777930031));
#211 = CARTESIAN_POINT('',(37.464337811752,14.850688748146,
    -31.68183756617));
#212 = CARTESIAN_POINT('',(37.516769432202,14.793688214195,
    -31.69608047406));
#213 = CARTESIAN_POINT('',(37.571236599863,14.737731150744,
    -31.71046287305));
#214 = CARTESIAN_POINT('',(37.627761572192,14.682890457983,
    -31.72493601797));
#215 = CARTESIAN_POINT('',(37.686366076591,14.629245784995,
    -31.73944756943));
#216 = CARTESIAN_POINT('',(37.821284048478,14.512870164044,
    -31.77166067947));
#217 = CARTESIAN_POINT('',(37.898652628956,14.450759246417,
    -31.78935739314));
#218 = CARTESIAN_POINT('',(37.979199938566,14.390726274383,
    -31.80692507364));
#219 = CARTESIAN_POINT('',(38.06294101479,14.332960469329,
    -31.82424805437));
#220 = CARTESIAN_POINT('',(38.149882700901,14.27766504112,
    -31.84120245861));
#221 = CARTESIAN_POINT('',(38.240023300991,14.225057452694,
    -31.85765699473));
#222 = CARTESIAN_POINT('',(38.439589436869,14.11880963179,-31.8914781142
    ));
#223 = CARTESIAN_POINT('',(38.550081774805,14.065967295907,
    -31.90867708951));
#224 = CARTESIAN_POINT('',(38.664610851416,14.017317775983,
    -31.92482653968));
#225 = CARTESIAN_POINT('',(38.782926493616,13.973301689692,
    -31.93968543487));
#226 = CARTESIAN_POINT('',(38.904747266579,13.934327188763,
    -31.9530231781));
#227 = CARTESIAN_POINT('',(39.029760987713,13.900771974308,
    -31.96462693021));
#228 = CARTESIAN_POINT('',(39.343704630462,13.832547699461,
    -31.98839904582));
#229 = CARTESIAN_POINT('',(39.535765253884,13.804338864451,
    -31.99841489945));
#230 = CARTESIAN_POINT('',(39.731527158512,13.789685259182,
    -32.00368989575));
#231 = CARTESIAN_POINT('',(39.928579674646,13.789244002999,
    -32.00384877613));
#232 = CARTESIAN_POINT('',(40.124466951676,13.803028568363,
    -31.99888388444));
#233 = CARTESIAN_POINT('',(40.316773549114,13.830408287072,
    -31.98915619281));
#234 = CARTESIAN_POINT('',(40.633395714007,13.897784966731,
    -31.96566026414));
#235 = CARTESIAN_POINT('',(40.760672966589,13.931473021916,
    -31.95400009961));
#236 = CARTESIAN_POINT('',(40.884677816254,13.970782117601,
    -31.94053570137));
#237 = CARTESIAN_POINT('',(41.00507844285,14.015317462436,
    -31.92548959347));
#238 = CARTESIAN_POINT('',(41.12157580607,14.064650994654,
    -31.90910374936));
#239 = CARTESIAN_POINT('',(41.233904221733,14.11831917817,-31.89163162)
  );
#240 = CARTESIAN_POINT('',(41.435836611456,14.225904514354,
    -31.8573896541));
#241 = CARTESIAN_POINT('',(41.526604235816,14.278950214287,
    -31.84080276056));
#242 = CARTESIAN_POINT('',(41.614124372843,14.334720817269,
    -31.82371045875));
#243 = CARTESIAN_POINT('',(41.698395687303,14.392994244045,
    -31.80624688126));
#244 = CARTESIAN_POINT('',(41.779425588295,14.453563144196,
    -31.78853850066));
#245 = CARTESIAN_POINT('',(41.857229870531,14.516234622995,
    -31.77070331439));
#246 = CARTESIAN_POINT('',(41.992442146898,14.633309592678,
    -31.7383453673));
#247 = CARTESIAN_POINT('',(42.050949474712,14.687068604958,
    -31.72382619056));
#248 = CARTESIAN_POINT('',(42.10737568948,14.742020802862,-31.7093483632
    ));
#249 = CARTESIAN_POINT('',(42.161742629701,14.798086711962,
    -31.69496415832));
#250 = CARTESIAN_POINT('',(42.214072621936,14.855193585654,
    -31.68072225839));
#251 = CARTESIAN_POINT('',(42.264388480813,14.913275405159,
    -31.66666775526));
#252 = CARTESIAN_POINT('',(42.523215921083,15.229264155476,
    -31.59261821781));
#253 = CARTESIAN_POINT('',(42.696316013222,15.504085917011,
    -31.53663145787));
#254 = CARTESIAN_POINT('',(42.833288746479,15.79148549328,
    -31.48846226739));
#255 = CARTESIAN_POINT('',(42.93528742477,16.087625776476,
    -31.45065305517));
#256 = CARTESIAN_POINT('',(43.003128628591,16.389480785871,
    -31.42484565679));
#257 = CARTESIAN_POINT('',(43.037168574084,16.694437901773,
    -31.41189633792));
#258 = CARTESIAN_POINT('',(43.037168574084,17.,-31.41189633792));
#259 = PCURVE('',#50,#260);
#260 = DEFINITIONAL_REPRESENTATION('',(#261),#390);
#261 = B_SPLINE_CURVE_WITH_KNOTS('',7,(#262,#263,#264,#265,#266,#267,
    #268,#269,#270,#271,#272,#273,#274,#275,#276,#277,#278,#279,#280,
    #281,#282,#283,#284,#285,#286,#287,#288,#289,#290,#291,#292,#293,
    #294,#295,#296,#297,#298,#299,#300,#301,#302,#303,#304,#305,#306,
    #307,#308,#309,#310,#311,#312,#313,#314,#315,#316,#317,#318,#319,
    #320,#321,#322,#323,#324,#325,#326,#327,#328,#329,#330,#331,#332,
    #333,#334,#335,#336,#337,#338,#339,#340,#341,#342,#343,#344,#345,
    #346,#347,#348,#349,#350,#351,#352,#353,#354,#355,#356,#357,#358,
    #359,#360,#361,#362,#363,#364,#365,#366,#367,#368,#369,#370,#371,
    #372,#373,#374,#375,#376,#377,#378,#379,#380,#381,#382,#383,#384,
    #385,#386,#387,#388,#389),.UNSPECIFIED.,.T.,.F.,(8,6,6,6,6,6,6,6,6,6
    ,6,6,6,6,6,6,6,6,6,6,6,8),(0.,0.121283699495,0.149036030264,
    0.18296352423,0.221583509169,0.277786733057,0.317032540132,
    0.351215504451,0.378986996664,0.422367221684,0.500055991227,
    0.562463946515,0.598744195831,0.62142391014,0.649168984181,
    0.683087606727,0.721697493245,0.777886021017,0.81712156603,
    0.851295592129,0.879059822604,1.),.UNSPECIFIED.);
#262 = CARTESIAN_POINT('',(1.207287930382,3.5));
#263 = CARTESIAN_POINT('',(1.207287930382,3.80636463157));
#264 = CARTESIAN_POINT('',(1.211355856388,4.112117168236));
#265 = CARTESIAN_POINT('',(1.219462933368,4.414743316331));
#266 = CARTESIAN_POINT('',(1.231612347356,4.711611628512));
#267 = CARTESIAN_POINT('',(1.247824674197,4.999671646757));
#268 = CARTESIAN_POINT('',(1.268133688874,5.27505035117));
#269 = CARTESIAN_POINT('',(1.298186619152,5.591333398703));
#270 = CARTESIAN_POINT('',(1.304002306604,5.649311251854));
#271 = CARTESIAN_POINT('',(1.310038938633,5.706311785805));
#272 = CARTESIAN_POINT('',(1.316297965648,5.762268849256));
#273 = CARTESIAN_POINT('',(1.322780808334,5.817109542017));
#274 = CARTESIAN_POINT('',(1.329488857651,5.870754215005));
#275 = CARTESIAN_POINT('',(1.344901111713,5.987129835956));
#276 = CARTESIAN_POINT('',(1.353719233831,6.049240753583));
#277 = CARTESIAN_POINT('',(1.362878557437,6.109273725617));
#278 = CARTESIAN_POINT('',(1.372379077839,6.167039530671));
#279 = CARTESIAN_POINT('',(1.382220127519,6.222334958881));
#280 = CARTESIAN_POINT('',(1.392400434254,6.274942547306));
#281 = CARTESIAN_POINT('',(1.4148906271,6.38119036821));
#282 = CARTESIAN_POINT('',(1.427314279971,6.434032704093));
#283 = CARTESIAN_POINT('',(1.440163439724,6.482682224018));
#284 = CARTESIAN_POINT('',(1.453410030253,6.526698310308));
#285 = CARTESIAN_POINT('',(1.467023675076,6.565672811237));
#286 = CARTESIAN_POINT('',(1.480971774938,6.599228025692));
#287 = CARTESIAN_POINT('',(1.515954261615,6.667452300539));
#288 = CARTESIAN_POINT('',(1.537317474261,6.695661135549));
#289 = CARTESIAN_POINT('',(1.559065406838,6.710314740818));
#290 = CARTESIAN_POINT('',(1.580946775825,6.710755997001));
#291 = CARTESIAN_POINT('',(1.602707697883,6.696971431637));
#292 = CARTESIAN_POINT('',(1.624096526174,6.669591712928));
#293 = CARTESIAN_POINT('',(1.659373499737,6.602215033269));
#294 = CARTESIAN_POINT('',(1.673572504396,6.568526978084));
#295 = CARTESIAN_POINT('',(1.687428762036,6.529217882399));
#296 = CARTESIAN_POINT('',(1.700907652241,6.484682537564));
#297 = CARTESIAN_POINT('',(1.713976923202,6.435349005346));
#298 = CARTESIAN_POINT('',(1.726606773014,6.38168082183));
#299 = CARTESIAN_POINT('',(1.749364000125,6.274095485646));
#300 = CARTESIAN_POINT('',(1.759615466636,6.221049785713));
#301 = CARTESIAN_POINT('',(1.769522510469,6.165279182731));
#302 = CARTESIAN_POINT('',(1.779083869962,6.107005755955));
#303 = CARTESIAN_POINT('',(1.788298901952,6.046436855804));
#304 = CARTESIAN_POINT('',(1.797167641903,5.983765377006));
#305 = CARTESIAN_POINT('',(1.812615441866,5.866690407322));
#306 = CARTESIAN_POINT('',(1.819313215841,5.812931395042));
#307 = CARTESIAN_POINT('',(1.825785559734,5.757979197138));
#308 = CARTESIAN_POINT('',(1.832033872925,5.701913288038));
#309 = CARTESIAN_POINT('',(1.838059580402,5.644806414346));
#310 = CARTESIAN_POINT('',(1.843864132756,5.586724594841));
#311 = CARTESIAN_POINT('',(1.858172810588,5.435570613584));
#312 = CARTESIAN_POINT('',(1.866360980805,5.34117635786));
#313 = CARTESIAN_POINT('',(1.874018187224,5.244777401797));
#314 = CARTESIAN_POINT('',(1.881148336681,5.14658314738));
#315 = CARTESIAN_POINT('',(1.887754692357,5.046779657079));
#316 = CARTESIAN_POINT('',(1.893839993668,4.945529960831));
#317 = CARTESIAN_POINT('',(1.909375656399,4.659309612581));
#318 = CARTESIAN_POINT('',(1.917682882478,4.471422846726));
#319 = CARTESIAN_POINT('',(1.92432939822,4.280303257473));
#320 = CARTESIAN_POINT('',(1.929315582676,4.086824612185));
#321 = CARTESIAN_POINT('',(1.932641062315,3.891781413385));
#322 = CARTESIAN_POINT('',(1.934304723208,3.695925058567));
#323 = CARTESIAN_POINT('',(1.934304723208,3.342611971245));
#324 = CARTESIAN_POINT('',(1.93323113289,3.185247584043));
#325 = CARTESIAN_POINT('',(1.931084460776,3.028302809756));
#326 = CARTESIAN_POINT('',(1.927865252023,2.872176294331));
#327 = CARTESIAN_POINT('',(1.923574070862,2.717280661438));
#328 = CARTESIAN_POINT('',(1.918211483017,2.564053815589));
#329 = CARTESIAN_POINT('',(1.90803801842,2.325139301712));
#330 = CARTESIAN_POINT('',(1.903935950692,2.23802925823));
#331 = CARTESIAN_POINT('',(1.899471246222,2.151719418334));
#332 = CARTESIAN_POINT('',(1.894643131464,2.066296789623));
#333 = CARTESIAN_POINT('',(1.889450605749,1.981856182928));
#334 = CARTESIAN_POINT('',(1.883892398968,1.89850031146));
#335 = CARTESIAN_POINT('',(1.874262766168,1.76497930334));
#336 = CARTESIAN_POINT('',(1.870414966024,1.71408441555));
#337 = CARTESIAN_POINT('',(1.866423049409,1.663681110764));
#338 = CARTESIAN_POINT('',(1.862286469122,1.613797015047));
#339 = CARTESIAN_POINT('',(1.858004610179,1.56446149635));
#340 = CARTESIAN_POINT('',(1.853576789806,1.515705664507));
#341 = CARTESIAN_POINT('',(1.843406034437,1.408666601297));
#342 = CARTESIAN_POINT('',(1.837590346985,1.350688748146));
#343 = CARTESIAN_POINT('',(1.831553714956,1.293688214195));
#344 = CARTESIAN_POINT('',(1.825294687942,1.237731150744));
#345 = CARTESIAN_POINT('',(1.818811845256,1.182890457983));
#346 = CARTESIAN_POINT('',(1.812103795939,1.129245784995));
#347 = CARTESIAN_POINT('',(1.796691541877,1.012870164044));
#348 = CARTESIAN_POINT('',(1.787873419759,0.950759246417));
#349 = CARTESIAN_POINT('',(1.778714096152,0.890726274383));
#350 = CARTESIAN_POINT('',(1.769213575751,0.832960469329));
#351 = CARTESIAN_POINT('',(1.759372526071,0.77766504112));
#352 = CARTESIAN_POINT('',(1.749192219335,0.725057452694));
#353 = CARTESIAN_POINT('',(1.72670202649,0.61880963179));
#354 = CARTESIAN_POINT('',(1.714278373619,0.565967295907));
#355 = CARTESIAN_POINT('',(1.701429213866,0.517317775983));
#356 = CARTESIAN_POINT('',(1.688182623337,0.473301689692));
#357 = CARTESIAN_POINT('',(1.674568978514,0.434327188763));
#358 = CARTESIAN_POINT('',(1.660620878652,0.400771974308));
#359 = CARTESIAN_POINT('',(1.625638391975,0.332547699461));
#360 = CARTESIAN_POINT('',(1.604275179329,0.304338864451));
#361 = CARTESIAN_POINT('',(1.582527246751,0.289685259182));
#362 = CARTESIAN_POINT('',(1.560645877765,0.289244002999));
#363 = CARTESIAN_POINT('',(1.538884955707,0.303028568363));
#364 = CARTESIAN_POINT('',(1.517496127415,0.330408287072));
#365 = CARTESIAN_POINT('',(1.482219153852,0.397784966731));
#366 = CARTESIAN_POINT('',(1.468020149194,0.431473021916));
#367 = CARTESIAN_POINT('',(1.454163891553,0.470782117601));
#368 = CARTESIAN_POINT('',(1.440685001348,0.515317462436));
#369 = CARTESIAN_POINT('',(1.427615730387,0.564650994654));
#370 = CARTESIAN_POINT('',(1.414985880575,0.61831917817));
#371 = CARTESIAN_POINT('',(1.392228653464,0.725904514354));
#372 = CARTESIAN_POINT('',(1.381977186954,0.778950214287));
#373 = CARTESIAN_POINT('',(1.372070143121,0.834720817269));
#374 = CARTESIAN_POINT('',(1.362508783628,0.892994244045));
#375 = CARTESIAN_POINT('',(1.353293751638,0.953563144196));
#376 = CARTESIAN_POINT('',(1.344425011687,1.016234622995));
#377 = CARTESIAN_POINT('',(1.328977211724,1.133309592678));
#378 = CARTESIAN_POINT('',(1.322279437749,1.187068604958));
#379 = CARTESIAN_POINT('',(1.315807093856,1.242020802862));
#380 = CARTESIAN_POINT('',(1.309558780665,1.298086711962));
#381 = CARTESIAN_POINT('',(1.303533073188,1.355193585654));
#382 = CARTESIAN_POINT('',(1.297728520834,1.413275405159));
#383 = CARTESIAN_POINT('',(1.267816101795,1.729264155476));
#384 = CARTESIAN_POINT('',(1.247613562172,2.004085917011));
#385 = CARTESIAN_POINT('',(1.231485757632,2.29148549328));
#386 = CARTESIAN_POINT('',(1.21939948939,2.587625776475));
#387 = CARTESIAN_POINT('',(1.211334573169,2.889480785871));
#388 = CARTESIAN_POINT('',(1.207287930382,3.194437901773));
#389 = CARTESIAN_POINT('',(1.207287930382,3.5));
#390 = ( GEOMETRIC_REPRESENTATION_CONTEXT(2) 
PARAMETRIC_REPRESENTATION_CONTEXT() REPRESENTATION_CONTEXT('2D SPACE',''
  ) );
#391 = PCURVE('',#392,#397);
#392 = CYLINDRICAL_SURFACE('',#393,3.2);
#393 = AXIS2_PLACEMENT_3D('',#394,#395,#396);
#394 = CARTESIAN_POINT('',(39.837168574084,17.,-98.));
#395 = DIRECTION('',(0.,0.,1.));
#396 = DIRECTION('',(1.,0.,-0.));
#397 = DEFINITIONAL_REPRESENTATION('',(#398),#527);
#398 = B_SPLINE_CURVE_WITH_KNOTS('',7,(#399,#400,#401,#402,#403,#404,
    #405,#406,#407,#408,#409,#410,#411,#412,#413,#414,#415,#416,#417,
    #418,#419,#420,#421,#422,#423,#424,#425,#426,#427,#428,#429,#430,
    #431,#432,#433,#434,#435,#436,#437,#438,#439,#440,#441,#442,#443,
    #444,#445,#446,#447,#448,#449,#450,#451,#452,#453,#454,#455,#456,
    #457,#458,#459,#460,#461,#462,#463,#464,#465,#466,#467,#468,#469,
    #470,#471,#472,#473,#474,#475,#476,#477,#478,#479,#480,#481,#482,
    #483,#484,#485,#486,#487,#488,#489,#490,#491,#492,#493,#494,#495,
    #496,#497,#498,#499,#500,#501,#502,#503,#504,#505,#506,#507,#508,
    #509,#510,#511,#512,#513,#514,#515,#516,#517,#518,#519,#520,#521,
    #522,#523,#524,#525,#526),.UNSPECIFIED.,.F.,.F.,(8,6,6,6,6,6,6,6,6,6
    ,6,6,6,6,6,6,6,6,6,6,6,8),(0.,0.121283699495,0.149036030264,
    0.18296352423,0.221583509169,0.277786733057,0.317032540132,
    0.351215504451,0.378986996664,0.422367221684,0.500055991227,
    0.562463946515,0.598744195831,0.62142391014,0.649168984181,
    0.683087606727,0.721697493245,0.777886021017,0.81712156603,
    0.851295592129,0.879059822604,1.),.UNSPECIFIED.);
#399 = CARTESIAN_POINT('',(0.,66.588103662075));
#400 = CARTESIAN_POINT('',(9.573894736565E-02,66.588103662075));
#401 = CARTESIAN_POINT('',(0.191286508635,66.575086236104));
#402 = CARTESIAN_POINT('',(0.287290977039,66.549143927696));
#403 = CARTESIAN_POINT('',(0.384335582525,66.511141788092));
#404 = CARTESIAN_POINT('',(0.483040215728,66.462738108633));
#405 = CARTESIAN_POINT('',(0.584050976865,66.406501897601));
#406 = CARTESIAN_POINT('',(0.712013807879,66.332220699689));
#407 = CARTESIAN_POINT('',(0.736015508577,66.318162433827));
#408 = CARTESIAN_POINT('',(0.76020268785,66.303919525935));
#409 = CARTESIAN_POINT('',(0.78458752892,66.289537126949));
#410 = CARTESIAN_POINT('',(0.809182376908,66.27506398203));
#411 = CARTESIAN_POINT('',(0.833999738825,66.260552430563));
#412 = CARTESIAN_POINT('',(0.889679262919,66.228339320521));
#413 = CARTESIAN_POINT('',(0.920664688584,66.210642606853));
#414 = CARTESIAN_POINT('',(0.952025143684,66.193074926356));
#415 = CARTESIAN_POINT('',(0.983777362121,66.175751945622));
#416 = CARTESIAN_POINT('',(1.015939008245,66.158797541386));
#417 = CARTESIAN_POINT('',(1.048529456508,66.142343005266));
#418 = CARTESIAN_POINT('',(1.119181582132,66.108521885796));
#419 = CARTESIAN_POINT('',(1.15742033716,66.091322910487));
#420 = CARTESIAN_POINT('',(1.196243845638,66.075173460316));
#421 = CARTESIAN_POINT('',(1.235618183726,66.060314565124));
#422 = CARTESIAN_POINT('',(1.275516910839,66.046976821897));
#423 = CARTESIAN_POINT('',(1.315919486164,66.03537306979));
#424 = CARTESIAN_POINT('',(1.416316725733,66.01160095418));
#425 = CARTESIAN_POINT('',(1.476838693797,66.001585100548));
#426 = CARTESIAN_POINT('',(1.537935802864,65.996310104247));
#427 = CARTESIAN_POINT('',(1.599224631752,65.996151223868));
#428 = CARTESIAN_POINT('',(1.660340745853,66.001116115559));
#429 = CARTESIAN_POINT('',(1.720901236501,66.010843807186));
#430 = CARTESIAN_POINT('',(1.822061117433,66.03433973586));
#431 = CARTESIAN_POINT('',(1.863155402701,66.045999900384));
#432 = CARTESIAN_POINT('',(1.903732481628,66.059464298622));
#433 = CARTESIAN_POINT('',(1.943770268378,66.074510406527));
#434 = CARTESIAN_POINT('',(1.983240380019,66.090896250631));
#435 = CARTESIAN_POINT('',(2.022106372638,66.108368379993));
#436 = CARTESIAN_POINT('',(2.09360763914,66.142610345892));
#437 = CARTESIAN_POINT('',(2.126435777137,66.159197239435));
#438 = CARTESIAN_POINT('',(2.158828841523,66.176289541246));
#439 = CARTESIAN_POINT('',(2.19080671302,66.193753118734));
#440 = CARTESIAN_POINT('',(2.222387514058,66.211461499335));
#441 = CARTESIAN_POINT('',(2.253588419815,66.229296685604));
#442 = CARTESIAN_POINT('',(2.309480430131,66.261654632691));
#443 = CARTESIAN_POINT('',(2.334299560263,66.276173809431));
#444 = CARTESIAN_POINT('',(2.358896562278,66.290651636792));
#445 = CARTESIAN_POINT('',(2.383283968812,66.305035841673));
#446 = CARTESIAN_POINT('',(2.407474142523,66.319277741602));
#447 = CARTESIAN_POINT('',(2.431479276091,66.333332244738));
#448 = CARTESIAN_POINT('',(2.492538148068,66.36875401967));
#449 = CARTESIAN_POINT('',(2.529344602809,66.389792444892));
#450 = CARTESIAN_POINT('',(2.56577436338,66.410112321166));
#451 = CARTESIAN_POINT('',(2.601867112859,66.429570090788));
#452 = CARTESIAN_POINT('',(2.637660477533,66.448038499774));
#453 = CARTESIAN_POINT('',(2.673191893963,66.465405654923));
#454 = CARTESIAN_POINT('',(2.771733903192,66.510529788598));
#455 = CARTESIAN_POINT('',(2.834264265039,66.535645959189));
#456 = CARTESIAN_POINT('',(2.896249292579,66.556329527714));
#457 = CARTESIAN_POINT('',(2.957835025557,66.572138671369));
#458 = CARTESIAN_POINT('',(3.019161106175,66.582779652572));
#459 = CARTESIAN_POINT('',(3.080366072788,66.588103662075));
#460 = CARTESIAN_POINT('',(3.190776412576,66.588103662075));
#461 = CARTESIAN_POINT('',(3.23995275537,66.584668113545));
#462 = CARTESIAN_POINT('',(3.289192366271,66.577798873892));
#463 = CARTESIAN_POINT('',(3.338564667923,66.567558483292));
#464 = CARTESIAN_POINT('',(3.388139447118,66.554070761927));
#465 = CARTESIAN_POINT('',(3.437988480601,66.537521407203));
#466 = CARTESIAN_POINT('',(3.517369668574,66.506902208742));
#467 = CARTESIAN_POINT('',(3.546671483838,66.494694571551));
#468 = CARTESIAN_POINT('',(3.57611218319,66.481582440068));
#469 = CARTESIAN_POINT('',(3.605710897628,66.467619289692));
#470 = CARTESIAN_POINT('',(3.635486905581,66.452865539098));
#471 = CARTESIAN_POINT('',(3.665460225859,66.437388778764));
#472 = CARTESIAN_POINT('',(3.714525994586,66.411183986448));
#473 = CARTESIAN_POINT('',(3.733485824419,66.400850457389));
#474 = CARTESIAN_POINT('',(3.752537267007,66.390281425067));
#475 = CARTESIAN_POINT('',(3.771686109684,66.37949610933));
#476 = CARTESIAN_POINT('',(3.790938360213,66.368514937141));
#477 = CARTESIAN_POINT('',(3.810300246784,66.357359542573));
#478 = CARTESIAN_POINT('',(3.853606461468,66.332220699689));
#479 = CARTESIAN_POINT('',(3.877608162167,66.318162433827));
#480 = CARTESIAN_POINT('',(3.901795341439,66.303919525935));
#481 = CARTESIAN_POINT('',(3.92618018251,66.289537126949));
#482 = CARTESIAN_POINT('',(3.950775030497,66.27506398203));
#483 = CARTESIAN_POINT('',(3.975592392415,66.260552430563));
#484 = CARTESIAN_POINT('',(4.031271916508,66.228339320521));
#485 = CARTESIAN_POINT('',(4.062257342174,66.210642606853));
#486 = CARTESIAN_POINT('',(4.093617797274,66.193074926356));
#487 = CARTESIAN_POINT('',(4.125370015711,66.175751945622));
#488 = CARTESIAN_POINT('',(4.157531661834,66.158797541386));
#489 = CARTESIAN_POINT('',(4.190122110098,66.142343005267));
#490 = CARTESIAN_POINT('',(4.260774235721,66.108521885796));
#491 = CARTESIAN_POINT('',(4.29901299075,66.091322910487));
#492 = CARTESIAN_POINT('',(4.337836499227,66.075173460316));
#493 = CARTESIAN_POINT('',(4.377210837315,66.060314565124));
#494 = CARTESIAN_POINT('',(4.417109564429,66.046976821897));
#495 = CARTESIAN_POINT('',(4.457512139754,66.03537306979));
#496 = CARTESIAN_POINT('',(4.557909379323,66.01160095418));
#497 = CARTESIAN_POINT('',(4.618431347386,66.001585100548));
#498 = CARTESIAN_POINT('',(4.679528456454,65.996310104247));
#499 = CARTESIAN_POINT('',(4.740817285342,65.996151223868));
#500 = CARTESIAN_POINT('',(4.801933399443,66.001116115559));
#501 = CARTESIAN_POINT('',(4.862493890091,66.010843807186));
#502 = CARTESIAN_POINT('',(4.963653771023,66.03433973586));
#503 = CARTESIAN_POINT('',(5.004748056291,66.045999900384));
#504 = CARTESIAN_POINT('',(5.045325135218,66.059464298622));
#505 = CARTESIAN_POINT('',(5.085362921968,66.074510406527));
#506 = CARTESIAN_POINT('',(5.124833033608,66.090896250631));
#507 = CARTESIAN_POINT('',(5.163699026228,66.108368379993));
#508 = CARTESIAN_POINT('',(5.23520029273,66.142610345892));
#509 = CARTESIAN_POINT('',(5.268028430727,66.159197239435));
#510 = CARTESIAN_POINT('',(5.300421495113,66.176289541246));
#511 = CARTESIAN_POINT('',(5.33239936661,66.193753118734));
#512 = CARTESIAN_POINT('',(5.363980167647,66.211461499335));
#513 = CARTESIAN_POINT('',(5.395181073405,66.229296685604));
#514 = CARTESIAN_POINT('',(5.451073083721,66.261654632692));
#515 = CARTESIAN_POINT('',(5.475892213853,66.276173809431));
#516 = CARTESIAN_POINT('',(5.500489215868,66.290651636792));
#517 = CARTESIAN_POINT('',(5.524876622402,66.305035841673));
#518 = CARTESIAN_POINT('',(5.549066796113,66.319277741603));
#519 = CARTESIAN_POINT('',(5.57307192968,66.333332244739));
#520 = CARTESIAN_POINT('',(5.700716047894,66.407381782181));
#521 = CARTESIAN_POINT('',(5.801432260418,66.463368542121));
#522 = CARTESIAN_POINT('',(5.89986206744,66.511537732607));
#523 = CARTESIAN_POINT('',(5.996645914858,66.549346944827));
#524 = CARTESIAN_POINT('',(6.092398156733,66.575154343203));
#525 = CARTESIAN_POINT('',(6.187697151484,66.588103662075));
#526 = CARTESIAN_POINT('',(6.28318530718,66.588103662075));
#527 = ( GEOMETRIC_REPRESENTATION_CONTEXT(2) 
PARAMETRIC_REPRESENTATION_CONTEXT() REPRESENTATION_CONTEXT('2D SPACE',''
  ) );
#528 = ADVANCED_FACE('',(#529,#532),#112,.F.);
#529 = FACE_BOUND('',#530,.F.);
#530 = EDGE_LOOP('',(#531));
#531 = ORIENTED_EDGE('',*,*,#97,.T.);
#532 = FACE_BOUND('',#533,.F.);
#533 = EDGE_LOOP('',(#534));
#534 = ORIENTED_EDGE('',*,*,#535,.F.);
#535 = EDGE_CURVE('',#536,#536,#538,.T.);
#536 = VERTEX_POINT('',#537);
#537 = CARTESIAN_POINT('',(43.937168574084,13.5,-23.));
#538 = SURFACE_CURVE('',#539,(#544,#551),.PCURVE_S1.);
#539 = CIRCLE('',#540,4.1);
#540 = AXIS2_PLACEMENT_3D('',#541,#542,#543);
#541 = CARTESIAN_POINT('',(39.837168574084,13.5,-23.));
#542 = DIRECTION('',(0.,1.,2.22044604925E-16));
#543 = DIRECTION('',(1.,0.,-0.));
#544 = PCURVE('',#112,#545);
#545 = DEFINITIONAL_REPRESENTATION('',(#546),#550);
#546 = CIRCLE('',#547,4.1);
#547 = AXIS2_PLACEMENT_2D('',#548,#549);
#548 = CARTESIAN_POINT('',(0.,0.));
#549 = DIRECTION('',(1.,0.));
#550 = ( GEOMETRIC_REPRESENTATION_CONTEXT(2) 
PARAMETRIC_REPRESENTATION_CONTEXT() REPRESENTATION_CONTEXT('2D SPACE',''
  ) );
#551 = PCURVE('',#552,#557);
#552 = CYLINDRICAL_SURFACE('',#553,4.1);
#553 = AXIS2_PLACEMENT_3D('',#554,#555,#556);
#554 = CARTESIAN_POINT('',(39.837168574084,12.5,-23.));
#555 = DIRECTION('',(0.,1.,2.22044604925E-16));
#556 = DIRECTION('',(1.,0.,-0.));
#557 = DEFINITIONAL_REPRESENTATION('',(#558),#562);
#558 = LINE('',#559,#560);
#559 = CARTESIAN_POINT('',(0.,1.));
#560 = VECTOR('',#561,1.);
#561 = DIRECTION('',(1.,0.));
#562 = ( GEOMETRIC_REPRESENTATION_CONTEXT(2) 
PARAMETRIC_REPRESENTATION_CONTEXT() REPRESENTATION_CONTEXT('2D SPACE',''
  ) );
#563 = ADVANCED_FACE('',(#564,#567),#84,.T.);
#564 = FACE_BOUND('',#565,.T.);
#565 = EDGE_LOOP('',(#566));
#566 = ORIENTED_EDGE('',*,*,#69,.T.);
#567 = FACE_BOUND('',#568,.T.);
#568 = EDGE_LOOP('',(#569));
#569 = ORIENTED_EDGE('',*,*,#570,.F.);
#570 = EDGE_CURVE('',#571,#571,#573,.T.);
#571 = VERTEX_POINT('',#572);
#572 = CARTESIAN_POINT('',(43.937168574084,21.5,-23.));
#573 = SURFACE_CURVE('',#574,(#579,#586),.PCURVE_S1.);
#574 = CIRCLE('',#575,4.1);
#575 = AXIS2_PLACEMENT_3D('',#576,#577,#578);
#576 = CARTESIAN_POINT('',(39.837168574084,21.5,-23.));
#577 = DIRECTION('',(0.,1.,2.22044604925E-16));
#578 = DIRECTION('',(1.,0.,-0.));
#579 = PCURVE('',#84,#580);
#580 = DEFINITIONAL_REPRESENTATION('',(#581),#585);
#581 = CIRCLE('',#582,4.1);
#582 = AXIS2_PLACEMENT_2D('',#583,#584);
#583 = CARTESIAN_POINT('',(0.,0.));
#584 = DIRECTION('',(1.,0.));
#585 = ( GEOMETRIC_REPRESENTATION_CONTEXT(2) 
PARAMETRIC_REPRESENTATION_CONTEXT() REPRESENTATION_CONTEXT('2D SPACE',''
  ) );
#586 = PCURVE('',#552,#587);
#587 = DEFINITIONAL_REPRESENTATION('',(#588),#592);
#588 = LINE('',#589,#590);
#589 = CARTESIAN_POINT('',(0.,9.));
#590 = VECTOR('',#591,1.);
#591 = DIRECTION('',(1.,0.));
#592 = ( GEOMETRIC_REPRESENTATION_CONTEXT(2) 
PARAMETRIC_REPRESENTATION_CONTEXT() REPRESENTATION_CONTEXT('2D SPACE',''
  ) );
#593 = ADVANCED_FACE('',(#594),#392,.T.);
#594 = FACE_BOUND('',#595,.T.);
#595 = EDGE_LOOP('',(#596,#597,#620,#647));
#596 = ORIENTED_EDGE('',*,*,#126,.F.);
#597 = ORIENTED_EDGE('',*,*,#598,.F.);
#598 = EDGE_CURVE('',#599,#127,#601,.T.);
#599 = VERTEX_POINT('',#600);
#600 = CARTESIAN_POINT('',(43.037168574084,17.,-98.));
#601 = SEAM_CURVE('',#602,(#606,#613),.PCURVE_S1.);
#602 = LINE('',#603,#604);
#603 = CARTESIAN_POINT('',(43.037168574084,17.,-98.));
#604 = VECTOR('',#605,1.);
#605 = DIRECTION('',(0.,0.,1.));
#606 = PCURVE('',#392,#607);
#607 = DEFINITIONAL_REPRESENTATION('',(#608),#612);
#608 = LINE('',#609,#610);
#609 = CARTESIAN_POINT('',(6.28318530718,-0.));
#610 = VECTOR('',#611,1.);
#611 = DIRECTION('',(0.,1.));
#612 = ( GEOMETRIC_REPRESENTATION_CONTEXT(2) 
PARAMETRIC_REPRESENTATION_CONTEXT() REPRESENTATION_CONTEXT('2D SPACE',''
  ) );
#613 = PCURVE('',#392,#614);
#614 = DEFINITIONAL_REPRESENTATION('',(#615),#619);
#615 = LINE('',#616,#617);
#616 = CARTESIAN_POINT('',(0.,-0.));
#617 = VECTOR('',#618,1.);
#618 = DIRECTION('',(0.,1.));
#619 = ( GEOMETRIC_REPRESENTATION_CONTEXT(2) 
PARAMETRIC_REPRESENTATION_CONTEXT() REPRESENTATION_CONTEXT('2D SPACE',''
  ) );
#620 = ORIENTED_EDGE('',*,*,#621,.T.);
#621 = EDGE_CURVE('',#599,#599,#622,.T.);
#622 = SURFACE_CURVE('',#623,(#628,#635),.PCURVE_S1.);
#623 = CIRCLE('',#624,3.2);
#624 = AXIS2_PLACEMENT_3D('',#625,#626,#627);
#625 = CARTESIAN_POINT('',(39.837168574084,17.,-98.));
#626 = DIRECTION('',(0.,0.,1.));
#627 = DIRECTION('',(1.,0.,-0.));
#628 = PCURVE('',#392,#629);
#629 = DEFINITIONAL_REPRESENTATION('',(#630),#634);
#630 = LINE('',#631,#632);
#631 = CARTESIAN_POINT('',(0.,0.));
#632 = VECTOR('',#633,1.);
#633 = DIRECTION('',(1.,0.));
#634 = ( GEOMETRIC_REPRESENTATION_CONTEXT(2) 
PARAMETRIC_REPRESENTATION_CONTEXT() REPRESENTATION_CONTEXT('2D SPACE',''
  ) );
#635 = PCURVE('',#636,#641);
#636 = PLANE('',#637);
#637 = AXIS2_PLACEMENT_3D('',#638,#639,#640);
#638 = CARTESIAN_POINT('',(39.837168574084,17.,-98.));
#639 = DIRECTION('',(0.,0.,1.));
#640 = DIRECTION('',(1.,0.,-0.));
#641 = DEFINITIONAL_REPRESENTATION('',(#642),#646);
#642 = CIRCLE('',#643,3.2);
#643 = AXIS2_PLACEMENT_2D('',#644,#645);
#644 = CARTESIAN_POINT('',(0.,0.));
#645 = DIRECTION('',(1.,0.));
#646 = ( GEOMETRIC_REPRESENTATION_CONTEXT(2) 
PARAMETRIC_REPRESENTATION_CONTEXT() REPRESENTATION_CONTEXT('2D SPACE',''
  ) );
#647 = ORIENTED_EDGE('',*,*,#598,.T.);
#648 = ADVANCED_FACE('',(#649),#552,.F.);
#649 = FACE_BOUND('',#650,.F.);
#650 = EDGE_LOOP('',(#651,#652,#673,#674));
#651 = ORIENTED_EDGE('',*,*,#570,.F.);
#652 = ORIENTED_EDGE('',*,*,#653,.F.);
#653 = EDGE_CURVE('',#536,#571,#654,.T.);
#654 = SEAM_CURVE('',#655,(#659,#666),.PCURVE_S1.);
#655 = LINE('',#656,#657);
#656 = CARTESIAN_POINT('',(43.937168574084,12.5,-23.));
#657 = VECTOR('',#658,1.);
#658 = DIRECTION('',(0.,1.,2.22044604925E-16));
#659 = PCURVE('',#552,#660);
#660 = DEFINITIONAL_REPRESENTATION('',(#661),#665);
#661 = LINE('',#662,#663);
#662 = CARTESIAN_POINT('',(6.28318530718,-0.));
#663 = VECTOR('',#664,1.);
#664 = DIRECTION('',(0.,1.));
#665 = ( GEOMETRIC_REPRESENTATION_CONTEXT(2) 
PARAMETRIC_REPRESENTATION_CONTEXT() REPRESENTATION_CONTEXT('2D SPACE',''
  ) );
#666 = PCURVE('',#552,#667);
#667 = DEFINITIONAL_REPRESENTATION('',(#668),#672);
#668 = LINE('',#669,#670);
#669 = CARTESIAN_POINT('',(0.,-0.));
#670 = VECTOR('',#671,1.);
#671 = DIRECTION('',(0.,1.));
#672 = ( GEOMETRIC_REPRESENTATION_CONTEXT(2) 
PARAMETRIC_REPRESENTATION_CONTEXT() REPRESENTATION_CONTEXT('2D SPACE',''
  ) );
#673 = ORIENTED_EDGE('',*,*,#535,.T.);
#674 = ORIENTED_EDGE('',*,*,#653,.T.);
#675 = ADVANCED_FACE('',(#676),#636,.F.);
#676 = FACE_BOUND('',#677,.T.);
#677 = EDGE_LOOP('',(#678));
#678 = ORIENTED_EDGE('',*,*,#621,.F.);
#679 = ( GEOMETRIC_REPRESENTATION_CONTEXT(3) 
GLOBAL_UNCERTAINTY_ASSIGNED_CONTEXT((#683)) GLOBAL_UNIT_ASSIGNED_CONTEXT
((#680,#681,#682)) REPRESENTATION_CONTEXT('Context #1',
  '3D Context with UNIT and UNCERTAINTY') );
#680 = ( LENGTH_UNIT() NAMED_UNIT(*) SI_UNIT(.MILLI.,.METRE.) );
#681 = ( NAMED_UNIT(*) PLANE_ANGLE_UNIT() SI_UNIT($,.RADIAN.) );
#682 = ( NAMED_UNIT(*) SI_UNIT($,.STERADIAN.) SOLID_ANGLE_UNIT() );
#683 = UNCERTAINTY_MEASURE_WITH_UNIT(LENGTH_MEASURE(1.E-07),#680,
  'distance_accuracy_value','confusion accuracy');
#684 = CONTEXT_DEPENDENT_SHAPE_REPRESENTATION(#685,#687);
#685 = ( REPRESENTATION_RELATIONSHIP('','',#32,#10) 
REPRESENTATION_RELATIONSHIP_WITH_TRANSFORMATION(#686) 
SHAPE_REPRESENTATION_RELATIONSHIP() );
#686 = ITEM_DEFINED_TRANSFORMATION('','',#11,#15);
#687 = PRODUCT_DEFINITION_SHAPE('Placement','Placement of an item',#688
  );
#688 = NEXT_ASSEMBLY_USAGE_OCCURRENCE('9','=>[0:1:1:2]','',#5,#27,$);
#689 = PRODUCT_RELATED_PRODUCT_CATEGORY('part',$,(#29));
ENDSEC;
END-ISO-10303-21;
