ISO-10303-21;
HEADER;
FILE_DESCRIPTION(('Open CASCADE Model'),'2;1');
FILE_NAME('Open CASCADE Shape Model','2026-10-01T15:18:56',('Author'),(
    'Open CASCADE'),'Open CASCADE STEP processor 8.0','build123d',
  'Unknown');
FILE_SCHEMA(('AUTOMOTIVE_DESIGN { 1 0 10303 214 1 1 1 1 }'));
ENDSEC;
DATA;
#1 = APPLICATION_PROTOCOL_DEFINITION('international standard',
  'automotive_design',2000,#2);
#2 = APPLICATION_CONTEXT(
  'core data for automotive mechanical design processes');
#3 = SHAPE_DEFINITION_REPRESENTATION(#4,#10);
#4 = PRODUCT_DEFINITION_SHAPE('','',#5);
#5 = PRODUCT_DEFINITION('design','',#6,#9);
#6 = PRODUCT_DEFINITION_FORMATION('','',#7);
#7 = PRODUCT('=>[0:1:1:2]','=>[0:1:1:2]','',(#8));
#8 = PRODUCT_CONTEXT('',#2,'mechanical');
#9 = PRODUCT_DEFINITION_CONTEXT('part definition',#2,'design');
#10 = SHAPE_REPRESENTATION('',(#11,#15),#19);
#11 = AXIS2_PLACEMENT_3D('',#12,#13,#14);
#12 = CARTESIAN_POINT('',(0.,0.,0.));
#13 = DIRECTION('',(0.,0.,1.));
#14 = DIRECTION('',(1.,0.,-0.));
#15 = AXIS2_PLACEMENT_3D('',#16,#17,#18);
#16 = CARTESIAN_POINT('',(1.548196997228E-16,-1.76959726533E-15,1.E-07)
  );
#17 = DIRECTION('',(0.,-0.,1.));
#18 = DIRECTION('',(0.996194698092,8.715574274766E-02,0.));
#19 = ( GEOMETRIC_REPRESENTATION_CONTEXT(3) 
GLOBAL_UNCERTAINTY_ASSIGNED_CONTEXT((#23)) GLOBAL_UNIT_ASSIGNED_CONTEXT(
(#20,#21,#22)) REPRESENTATION_CONTEXT('Context #1',
  '3D Context with UNIT and UNCERTAINTY') );
#20 = ( LENGTH_UNIT() NAMED_UNIT(*) SI_UNIT(.MILLI.,.METRE.) );
#21 = ( NAMED_UNIT(*) PLANE_ANGLE_UNIT() SI_UNIT($,.RADIAN.) );
#22 = ( NAMED_UNIT(*) SI_UNIT($,.STERADIAN.) SOLID_ANGLE_UNIT() );
#23 = UNCERTAINTY_MEASURE_WITH_UNIT(LENGTH_MEASURE(1.E-07),#20,
  'distance_accuracy_value','confusion accuracy');
#24 = PRODUCT_RELATED_PRODUCT_CATEGORY('part',$,(#7));
#25 = SHAPE_DEFINITION_REPRESENTATION(#26,#32);
#26 = PRODUCT_DEFINITION_SHAPE('','',#27);
#27 = PRODUCT_DEFINITION('design','',#28,#31);
#28 = PRODUCT_DEFINITION_FORMATION('','',#29);
#29 = PRODUCT('COMPOUND','COMPOUND','',(#30));
#30 = PRODUCT_CONTEXT('',#2,'mechanical');
#31 = PRODUCT_DEFINITION_CONTEXT('part definition',#2,'design');
#32 = ADVANCED_BREP_SHAPE_REPRESENTATION('',(#11,#33),#919);
#33 = MANIFOLD_SOLID_BREP('',#34);
#34 = CLOSED_SHELL('',(#35,#429,#433,#468,#661,#854,#915));
#35 = ADVANCED_FACE('',(#36,#123,#276),#50,.T.);
#36 = FACE_BOUND('',#37,.T.);
#37 = EDGE_LOOP('',(#38,#68,#95,#96));
#38 = ORIENTED_EDGE('',*,*,#39,.T.);
#39 = EDGE_CURVE('',#40,#42,#44,.T.);
#40 = VERTEX_POINT('',#41);
#41 = CARTESIAN_POINT('',(20.,-4.898587196589E-15,0.));
#42 = VERTEX_POINT('',#43);
#43 = CARTESIAN_POINT('',(20.,-4.898587196589E-15,12.));
#44 = SEAM_CURVE('',#45,(#49,#61),.PCURVE_S1.);
#45 = LINE('',#46,#47);
#46 = CARTESIAN_POINT('',(20.,-4.898587196589E-15,0.));
#47 = VECTOR('',#48,1.);
#48 = DIRECTION('',(0.,0.,1.));
#49 = PCURVE('',#50,#55);
#50 = CYLINDRICAL_SURFACE('',#51,20.);
#51 = AXIS2_PLACEMENT_3D('',#52,#53,#54);
#52 = CARTESIAN_POINT('',(0.,0.,0.));
#53 = DIRECTION('',(0.,0.,1.));
#54 = DIRECTION('',(1.,0.,-0.));
#55 = DEFINITIONAL_REPRESENTATION('',(#56),#60);
#56 = LINE('',#57,#58);
#57 = CARTESIAN_POINT('',(6.28318530718,-0.));
#58 = VECTOR('',#59,1.);
#59 = DIRECTION('',(0.,1.));
#60 = ( GEOMETRIC_REPRESENTATION_CONTEXT(2) 
PARAMETRIC_REPRESENTATION_CONTEXT() REPRESENTATION_CONTEXT('2D SPACE',''
  ) );
#61 = PCURVE('',#50,#62);
#62 = DEFINITIONAL_REPRESENTATION('',(#63),#67);
#63 = LINE('',#64,#65);
#64 = CARTESIAN_POINT('',(0.,-0.));
#65 = VECTOR('',#66,1.);
#66 = DIRECTION('',(0.,1.));
#67 = ( GEOMETRIC_REPRESENTATION_CONTEXT(2) 
PARAMETRIC_REPRESENTATION_CONTEXT() REPRESENTATION_CONTEXT('2D SPACE',''
  ) );
#68 = ORIENTED_EDGE('',*,*,#69,.F.);
#69 = EDGE_CURVE('',#42,#42,#70,.T.);
#70 = SURFACE_CURVE('',#71,(#76,#83),.PCURVE_S1.);
#71 = CIRCLE('',#72,20.);
#72 = AXIS2_PLACEMENT_3D('',#73,#74,#75);
#73 = CARTESIAN_POINT('',(0.,0.,12.));
#74 = DIRECTION('',(0.,0.,1.));
#75 = DIRECTION('',(1.,0.,-0.));
#76 = PCURVE('',#50,#77);
#77 = DEFINITIONAL_REPRESENTATION('',(#78),#82);
#78 = LINE('',#79,#80);
#79 = CARTESIAN_POINT('',(0.,12.));
#80 = VECTOR('',#81,1.);
#81 = DIRECTION('',(1.,0.));
#82 = ( GEOMETRIC_REPRESENTATION_CONTEXT(2) 
PARAMETRIC_REPRESENTATION_CONTEXT() REPRESENTATION_CONTEXT('2D SPACE',''
  ) );
#83 = PCURVE('',#84,#89);
#84 = PLANE('',#85);
#85 = AXIS2_PLACEMENT_3D('',#86,#87,#88);
#86 = CARTESIAN_POINT('',(0.,0.,12.));
#87 = DIRECTION('',(0.,0.,1.));
#88 = DIRECTION('',(1.,0.,-0.));
#89 = DEFINITIONAL_REPRESENTATION('',(#90),#94);
#90 = CIRCLE('',#91,20.);
#91 = AXIS2_PLACEMENT_2D('',#92,#93);
#92 = CARTESIAN_POINT('',(0.,0.));
#93 = DIRECTION('',(1.,0.));
#94 = ( GEOMETRIC_REPRESENTATION_CONTEXT(2) 
PARAMETRIC_REPRESENTATION_CONTEXT() REPRESENTATION_CONTEXT('2D SPACE',''
  ) );
#95 = ORIENTED_EDGE('',*,*,#39,.F.);
#96 = ORIENTED_EDGE('',*,*,#97,.T.);
#97 = EDGE_CURVE('',#40,#40,#98,.T.);
#98 = SURFACE_CURVE('',#99,(#104,#111),.PCURVE_S1.);
#99 = CIRCLE('',#100,20.);
#100 = AXIS2_PLACEMENT_3D('',#101,#102,#103);
#101 = CARTESIAN_POINT('',(0.,0.,0.));
#102 = DIRECTION('',(0.,0.,1.));
#103 = DIRECTION('',(1.,0.,-0.));
#104 = PCURVE('',#50,#105);
#105 = DEFINITIONAL_REPRESENTATION('',(#106),#110);
#106 = LINE('',#107,#108);
#107 = CARTESIAN_POINT('',(0.,0.));
#108 = VECTOR('',#109,1.);
#109 = DIRECTION('',(1.,0.));
#110 = ( GEOMETRIC_REPRESENTATION_CONTEXT(2) 
PARAMETRIC_REPRESENTATION_CONTEXT() REPRESENTATION_CONTEXT('2D SPACE',''
  ) );
#111 = PCURVE('',#112,#117);
#112 = PLANE('',#113);
#113 = AXIS2_PLACEMENT_3D('',#114,#115,#116);
#114 = CARTESIAN_POINT('',(0.,0.,0.));
#115 = DIRECTION('',(0.,0.,1.));
#116 = DIRECTION('',(1.,0.,-0.));
#117 = DEFINITIONAL_REPRESENTATION('',(#118),#122);
#118 = CIRCLE('',#119,20.);
#119 = AXIS2_PLACEMENT_2D('',#120,#121);
#120 = CARTESIAN_POINT('',(0.,0.));
#121 = DIRECTION('',(1.,0.));
#122 = ( GEOMETRIC_REPRESENTATION_CONTEXT(2) 
PARAMETRIC_REPRESENTATION_CONTEXT() REPRESENTATION_CONTEXT('2D SPACE',''
  ) );
#123 = FACE_BOUND('',#124,.T.);
#124 = EDGE_LOOP('',(#125));
#125 = ORIENTED_EDGE('',*,*,#126,.F.);
#126 = EDGE_CURVE('',#127,#127,#129,.T.);
#127 = VERTEX_POINT('',#128);
#128 = CARTESIAN_POINT('',(1.6,19.935897271003,8.5));
#129 = SURFACE_CURVE('',#130,(#175,#223),.PCURVE_S1.);
#130 = B_SPLINE_CURVE_WITH_KNOTS('',7,(#131,#132,#133,#134,#135,#136,
    #137,#138,#139,#140,#141,#142,#143,#144,#145,#146,#147,#148,#149,
    #150,#151,#152,#153,#154,#155,#156,#157,#158,#159,#160,#161,#162,
    #163,#164,#165,#166,#167,#168,#169,#170,#171,#172,#173,#174),
  .UNSPECIFIED.,.T.,.F.,(8,6,6,6,6,6,6,8),(0.,0.152386984599,
    0.285811790976,0.42213550164,0.588249696463,0.714221973168,
    0.838121943464,1.),.UNSPECIFIED.);
#131 = CARTESIAN_POINT('',(1.6,19.935897271003,8.5));
#132 = CARTESIAN_POINT('',(1.6,19.935897271003,8.308548084835));
#133 = CARTESIAN_POINT('',(1.573274285525,19.938042099559,8.117155843532
    ));
#134 = CARTESIAN_POINT('',(1.519845432304,19.942330687988,7.928232050991
    ));
#135 = CARTESIAN_POINT('',(1.438974021329,19.948592646835,7.744494554486
    ));
#136 = CARTESIAN_POINT('',(1.329482565634,19.956475029975,7.569456817096
    ));
#137 = CARTESIAN_POINT('',(1.190038202634,19.965290855105,7.407947256179
    ));
#138 = CARTESIAN_POINT('',(0.870892294217,19.981586557064,7.143926799474
    ));
#139 = CARTESIAN_POINT('',(0.69332665595,19.989352468888,7.032411942829)
  );
#140 = CARTESIAN_POINT('',(0.490760350246,19.996204197852,6.945185842278
    ));
#141 = CARTESIAN_POINT('',(0.27050500728,20.000785879592,6.890873573484)
  );
#142 = CARTESIAN_POINT('',(4.22628415364E-02,20.002119661913,
    6.874093976528));
#143 = CARTESIAN_POINT('',(-0.183632484243,20.000305235069,
    6.895251414032));
#144 = CARTESIAN_POINT('',(-0.616830601518,19.991684969597,
    7.006477785942));
#145 = CARTESIAN_POINT('',(-0.816208449287,19.984919924981,
    7.096128873715));
#146 = CARTESIAN_POINT('',(-0.992461382366,19.976714788327,
    7.211804532372));
#147 = CARTESIAN_POINT('',(-1.143913733957,19.968150765261,
    7.347219116351));
#148 = CARTESIAN_POINT('',(-1.269962158112,19.960087614796,
    7.496775411522));
#149 = CARTESIAN_POINT('',(-1.370877374381,19.953110825721,
    7.655447263007));
#150 = CARTESIAN_POINT('',(-1.541362140536,19.940737628599,
    8.017745832961));
#151 = CARTESIAN_POINT('',(-1.600641102054,19.935919857714,
    8.226548987931));
#152 = CARTESIAN_POINT('',(-1.627024620874,19.933654124369,
    8.440480628045));
#153 = CARTESIAN_POINT('',(-1.620846548444,19.934176316659,8.6560593699)
  );
#154 = CARTESIAN_POINT('',(-1.581737024562,19.93749616592,8.869481121734
    ));
#155 = CARTESIAN_POINT('',(-1.50900728307,19.943279184615,9.076325314236
    ));
#156 = CARTESIAN_POINT('',(-1.32101076047,19.956491099229,9.418289719358
    ));
#157 = CARTESIAN_POINT('',(-1.219079781536,19.963268182466,
    9.560829407204));
#158 = CARTESIAN_POINT('',(-1.095571814412,19.970818375719,
    9.694504298152));
#159 = CARTESIAN_POINT('',(-0.950480550146,19.978626150552,
    9.815057530151));
#160 = CARTESIAN_POINT('',(-0.784544102099,19.985978643959,
    9.917892880021));
#161 = CARTESIAN_POINT('',(-0.599364038653,19.992032538995,
    9.998006865168));
#162 = CARTESIAN_POINT('',(-0.199757720763,19.999984356898,
    10.100608328929));
#163 = CARTESIAN_POINT('',(9.095366908829E-03,20.001848111545,
    10.122726852245));
#164 = CARTESIAN_POINT('',(0.220998380061,20.001040975323,
    10.112340444143));
#165 = CARTESIAN_POINT('',(0.427361738966,19.997425437013,
    10.069333550606));
#166 = CARTESIAN_POINT('',(0.619955332136,19.99167782861,9.997039752086)
  );
#167 = CARTESIAN_POINT('',(0.792253764959,19.98485293084,9.902102710785)
  );
#168 = CARTESIAN_POINT('',(1.134086434977,19.968761194233,9.653746738555
    ));
#169 = CARTESIAN_POINT('',(1.292898507913,19.959090485318,9.486733765258
    ));
#170 = CARTESIAN_POINT('',(1.417391025729,19.95025937237,9.302876695266)
  );
#171 = CARTESIAN_POINT('',(1.509187694734,19.943186591513,9.10830162216)
  );
#172 = CARTESIAN_POINT('',(1.56972223261,19.938327039827,8.907512200024)
  );
#173 = CARTESIAN_POINT('',(1.6,19.935897271003,8.703772347392));
#174 = CARTESIAN_POINT('',(1.6,19.935897271003,8.5));
#175 = PCURVE('',#50,#176);
#176 = DEFINITIONAL_REPRESENTATION('',(#177),#222);
#177 = B_SPLINE_CURVE_WITH_KNOTS('',7,(#178,#179,#180,#181,#182,#183,
    #184,#185,#186,#187,#188,#189,#190,#191,#192,#193,#194,#195,#196,
    #197,#198,#199,#200,#201,#202,#203,#204,#205,#206,#207,#208,#209,
    #210,#211,#212,#213,#214,#215,#216,#217,#218,#219,#220,#221),
  .UNSPECIFIED.,.T.,.F.,(8,6,6,6,6,6,6,8),(0.,0.152386984599,
    0.285811790976,0.42213550164,0.588249696463,0.714221973168,
    0.838121943464,1.),.UNSPECIFIED.);
#178 = CARTESIAN_POINT('',(1.490710746761,8.5));
#179 = CARTESIAN_POINT('',(1.490710746761,8.308548084835));
#180 = CARTESIAN_POINT('',(1.492051329049,8.117155843532));
#181 = CARTESIAN_POINT('',(1.49473136282,7.928232050991));
#182 = CARTESIAN_POINT('',(1.498787021902,7.744494554486));
#183 = CARTESIAN_POINT('',(1.504275582227,7.569456817096));
#184 = CARTESIAN_POINT('',(1.511261206544,7.407947256179));
#185 = CARTESIAN_POINT('',(1.527239290031,7.143926799474));
#186 = CARTESIAN_POINT('',(1.536125812259,7.032411942829));
#187 = CARTESIAN_POINT('',(1.546259150424,6.945185842278));
#188 = CARTESIAN_POINT('',(1.557272316123,6.890873573484));
#189 = CARTESIAN_POINT('',(1.568682797163,6.874093976528));
#190 = CARTESIAN_POINT('',(1.579977142778,6.895251414032));
#191 = CARTESIAN_POINT('',(1.601641336612,7.006477785942));
#192 = CARTESIAN_POINT('',(1.611614983609,7.096128873715));
#193 = CARTESIAN_POINT('',(1.620436202038,7.211804532372));
#194 = CARTESIAN_POINT('',(1.628020522184,7.347219116351));
#195 = CARTESIAN_POINT('',(1.634335675946,7.496775411523));
#196 = CARTESIAN_POINT('',(1.639393453269,7.655447263007));
#197 = CARTESIAN_POINT('',(1.647940112192,8.017745832961));
#198 = CARTESIAN_POINT('',(1.650913722954,8.226548987931));
#199 = CARTESIAN_POINT('',(1.652237801379,8.440480628045));
#200 = CARTESIAN_POINT('',(1.651927787859,8.6560593699));
#201 = CARTESIAN_POINT('',(1.649965238067,8.869481121734));
#202 = CARTESIAN_POINT('',(1.646317426526,9.076325314236));
#203 = CARTESIAN_POINT('',(1.636894416498,9.418289719358));
#204 = CARTESIAN_POINT('',(1.631786650636,9.560829407204));
#205 = CARTESIAN_POINT('',(1.625599876457,9.694504298152));
#206 = CARTESIAN_POINT('',(1.618335196881,9.81505753015));
#207 = CARTESIAN_POINT('',(1.610031027402,9.917892880021));
#208 = CARTESIAN_POINT('',(1.600767835577,9.998006865168));
#209 = CARTESIAN_POINT('',(1.580783564218,10.100608328929));
#210 = CARTESIAN_POINT('',(1.570341117168,10.122726852245));
#211 = CARTESIAN_POINT('',(1.559747305656,10.112340444143));
#212 = CARTESIAN_POINT('',(1.549429168997,10.069333550606));
#213 = CARTESIAN_POINT('',(1.539795931197,9.997039752086));
#214 = CARTESIAN_POINT('',(1.531174498283,9.902102710785));
#215 = CARTESIAN_POINT('',(1.514063937342,9.653746738555));
#216 = CARTESIAN_POINT('',(1.506109381381,9.486733765258));
#217 = CARTESIAN_POINT('',(1.499869383657,9.302876695266));
#218 = CARTESIAN_POINT('',(1.495265963101,9.10830162216));
#219 = CARTESIAN_POINT('',(1.49222950281,8.907512200024));
#220 = CARTESIAN_POINT('',(1.490710746761,8.703772347392));
#221 = CARTESIAN_POINT('',(1.490710746761,8.5));
#222 = ( GEOMETRIC_REPRESENTATION_CONTEXT(2) 
PARAMETRIC_REPRESENTATION_CONTEXT() REPRESENTATION_CONTEXT('2D SPACE',''
  ) );
#223 = PCURVE('',#224,#229);
#224 = CYLINDRICAL_SURFACE('',#225,1.6);
#225 = AXIS2_PLACEMENT_3D('',#226,#227,#228);
#226 = CARTESIAN_POINT('',(0.,-21.,8.5));
#227 = DIRECTION('',(0.,1.,2.22044604925E-16));
#228 = DIRECTION('',(1.,0.,-0.));
#229 = DEFINITIONAL_REPRESENTATION('',(#230),#275);
#230 = B_SPLINE_CURVE_WITH_KNOTS('',7,(#231,#232,#233,#234,#235,#236,
    #237,#238,#239,#240,#241,#242,#243,#244,#245,#246,#247,#248,#249,
    #250,#251,#252,#253,#254,#255,#256,#257,#258,#259,#260,#261,#262,
    #263,#264,#265,#266,#267,#268,#269,#270,#271,#272,#273,#274),
  .UNSPECIFIED.,.F.,.F.,(8,6,6,6,6,6,6,8),(0.,0.152386984599,
    0.285811790976,0.42213550164,0.588249696463,0.714221973168,
    0.838121943464,1.),.UNSPECIFIED.);
#231 = CARTESIAN_POINT('',(0.,40.935897271003));
#232 = CARTESIAN_POINT('',(0.119657446978,40.935897271003));
#233 = CARTESIAN_POINT('',(0.239276894616,40.938042099559));
#234 = CARTESIAN_POINT('',(0.360155788836,40.942330687988));
#235 = CARTESIAN_POINT('',(0.483372510344,40.948592646835));
#236 = CARTESIAN_POINT('',(0.6101244806,40.956475029975));
#237 = CARTESIAN_POINT('',(0.741621207032,40.965290855105));
#238 = CARTESIAN_POINT('',(1.000495658096,40.981586557064));
#239 = CARTESIAN_POINT('',(1.130433791464,40.989352468888));
#240 = CARTESIAN_POINT('',(1.265608896411,40.996204197852));
#241 = CARTESIAN_POINT('',(1.403940456886,41.000785879592));
#242 = CARTESIAN_POINT('',(1.543823721213,41.002119661913));
#243 = CARTESIAN_POINT('',(1.683860356145,41.000305235069));
#244 = CARTESIAN_POINT('',(1.963391153461,40.991684969597));
#245 = CARTESIAN_POINT('',(2.098022740462,40.984919924981));
#246 = CARTESIAN_POINT('',(2.227299741723,40.976714788327));
#247 = CARTESIAN_POINT('',(2.35191464415,40.968150765261));
#248 = CARTESIAN_POINT('',(2.472382177804,40.960087614796));
#249 = CARTESIAN_POINT('',(2.5889678281,40.953110825721));
#250 = CARTESIAN_POINT('',(2.839221846925,40.940737628599));
#251 = CARTESIAN_POINT('',(2.973079069331,40.935919857714));
#252 = CARTESIAN_POINT('',(3.105319535356,40.933654124369));
#253 = CARTESIAN_POINT('',(3.237329657361,40.934176316659));
#254 = CARTESIAN_POINT('',(3.370354730725,40.93749616592));
#255 = CARTESIAN_POINT('',(3.505539928088,40.943279184615));
#256 = CARTESIAN_POINT('',(3.749435995605,40.956491099229));
#257 = CARTESIAN_POINT('',(3.858194428801,40.963268182466));
#258 = CARTESIAN_POINT('',(3.970497701691,40.970818375719));
#259 = CARTESIAN_POINT('',(4.086489175237,40.978626150552));
#260 = CARTESIAN_POINT('',(4.206510809376,40.985978643959));
#261 = CARTESIAN_POINT('',(4.331064845001,40.992032538995));
#262 = CARTESIAN_POINT('',(4.588919780647,40.999984356898));
#263 = CARTESIAN_POINT('',(4.718789412545,41.001848111545));
#264 = CARTESIAN_POINT('',(4.848870126286,41.001040975323));
#265 = CARTESIAN_POINT('',(4.977829811205,40.997425437013));
#266 = CARTESIAN_POINT('',(5.1042170535,40.99167782861));
#267 = CARTESIAN_POINT('',(5.226214676172,40.98485293084));
#268 = CARTESIAN_POINT('',(5.490294936842,40.968761194233));
#269 = CARTESIAN_POINT('',(5.631952251051,40.959090485318));
#270 = CARTESIAN_POINT('',(5.767901464734,40.95025937237));
#271 = CARTESIAN_POINT('',(5.899619730743,40.943186591513));
#272 = CARTESIAN_POINT('',(6.028490980725,40.938327039827));
#273 = CARTESIAN_POINT('',(6.15582759006,40.935897271003));
#274 = CARTESIAN_POINT('',(6.28318530718,40.935897271003));
#275 = ( GEOMETRIC_REPRESENTATION_CONTEXT(2) 
PARAMETRIC_REPRESENTATION_CONTEXT() REPRESENTATION_CONTEXT('2D SPACE',''
  ) );
#276 = FACE_BOUND('',#277,.T.);
#277 = EDGE_LOOP('',(#278));
#278 = ORIENTED_EDGE('',*,*,#279,.T.);
#279 = EDGE_CURVE('',#280,#280,#282,.T.);
#280 = VERTEX_POINT('',#281);
#281 = CARTESIAN_POINT('',(1.6,-19.935897271,8.5));
#282 = SURFACE_CURVE('',#283,(#328,#376),.PCURVE_S1.);
#283 = B_SPLINE_CURVE_WITH_KNOTS('',7,(#284,#285,#286,#287,#288,#289,
    #290,#291,#292,#293,#294,#295,#296,#297,#298,#299,#300,#301,#302,
    #303,#304,#305,#306,#307,#308,#309,#310,#311,#312,#313,#314,#315,
    #316,#317,#318,#319,#320,#321,#322,#323,#324,#325,#326,#327),
  .UNSPECIFIED.,.T.,.F.,(8,6,6,6,6,6,6,8),(0.,0.152386985114,
    0.285811791941,0.422135503065,0.588249696011,0.714221973097,
    0.838121942892,1.),.UNSPECIFIED.);
#284 = CARTESIAN_POINT('',(1.6,-19.935897271,8.5));
#285 = CARTESIAN_POINT('',(1.6,-19.935897271,8.308548084835));
#286 = CARTESIAN_POINT('',(1.573274285525,-19.93804209955,8.117155843532
    ));
#287 = CARTESIAN_POINT('',(1.519845432304,-19.94233068798,7.928232050991
    ));
#288 = CARTESIAN_POINT('',(1.438974021329,-19.94859264683,7.744494554486
    ));
#289 = CARTESIAN_POINT('',(1.329482565633,-19.95647502997,7.569456817096
    ));
#290 = CARTESIAN_POINT('',(1.190038202634,-19.9652908551,7.407947256179)
  );
#291 = CARTESIAN_POINT('',(0.870892294217,-19.98158655706,7.143926799474
    ));
#292 = CARTESIAN_POINT('',(0.69332665595,-19.98935246888,7.032411942829)
  );
#293 = CARTESIAN_POINT('',(0.490760350246,-19.99620419785,6.945185842278
    ));
#294 = CARTESIAN_POINT('',(0.27050500728,-20.00078587959,6.890873573484)
  );
#295 = CARTESIAN_POINT('',(4.226284153661E-02,-20.00211966191,
    6.874093976528));
#296 = CARTESIAN_POINT('',(-0.183632484243,-20.00030523506,
    6.895251414032));
#297 = CARTESIAN_POINT('',(-0.616830601518,-19.99168496959,
    7.006477785941));
#298 = CARTESIAN_POINT('',(-0.816208449287,-19.98491992498,
    7.096128873715));
#299 = CARTESIAN_POINT('',(-0.992461382366,-19.97671478832,
    7.211804532372));
#300 = CARTESIAN_POINT('',(-1.143913733957,-19.96815076526,
    7.347219116351));
#301 = CARTESIAN_POINT('',(-1.269962158112,-19.96008761479,
    7.496775411523));
#302 = CARTESIAN_POINT('',(-1.370877374381,-19.95311082572,
    7.655447263007));
#303 = CARTESIAN_POINT('',(-1.541362139162,-19.94073762869,
    8.017745830041));
#304 = CARTESIAN_POINT('',(-1.60064110481,-19.93591985751,8.226548999386
    ));
#305 = CARTESIAN_POINT('',(-1.627024619707,-19.93365412446,
    8.440480607473));
#306 = CARTESIAN_POINT('',(-1.620846546058,-19.93417631682,8.6560593903)
  );
#307 = CARTESIAN_POINT('',(-1.581737027976,-19.93749616568,
    8.869481110573));
#308 = CARTESIAN_POINT('',(-1.509007281538,-19.94327918472,
    9.076325317022));
#309 = CARTESIAN_POINT('',(-1.32101076047,-19.95649109922,9.418289719358
    ));
#310 = CARTESIAN_POINT('',(-1.219079781537,-19.96326818246,
    9.560829407203));
#311 = CARTESIAN_POINT('',(-1.09557181441,-19.97081837571,9.694504298153
    ));
#312 = CARTESIAN_POINT('',(-0.950480550148,-19.97862615055,
    9.815057530149));
#313 = CARTESIAN_POINT('',(-0.784544102098,-19.98597864395,
    9.917892880022));
#314 = CARTESIAN_POINT('',(-0.599364038653,-19.99203253899,
    9.998006865168));
#315 = CARTESIAN_POINT('',(-0.199757722167,-19.99998435687,
    10.100608328569));
#316 = CARTESIAN_POINT('',(9.095372370378E-03,-20.00184811157,
    10.122726852575));
#317 = CARTESIAN_POINT('',(0.220998370398,-20.00104097537,
    10.112340445119));
#318 = CARTESIAN_POINT('',(0.427361748288,-19.99742543685,
    10.069333548175));
#319 = CARTESIAN_POINT('',(0.619955327266,-19.99167782875,9.997039754272
    ));
#320 = CARTESIAN_POINT('',(0.792253766084,-19.98485293078,9.902102709967
    ));
#321 = CARTESIAN_POINT('',(1.134086434977,-19.96876119423,9.653746738555
    ));
#322 = CARTESIAN_POINT('',(1.292898507912,-19.95909048531,9.486733765258
    ));
#323 = CARTESIAN_POINT('',(1.417391025729,-19.95025937237,9.302876695266
    ));
#324 = CARTESIAN_POINT('',(1.509187694734,-19.94318659151,9.10830162216)
  );
#325 = CARTESIAN_POINT('',(1.56972223261,-19.93832703982,8.907512200024)
  );
#326 = CARTESIAN_POINT('',(1.6,-19.935897271,8.703772347392));
#327 = CARTESIAN_POINT('',(1.6,-19.935897271,8.5));
#328 = PCURVE('',#50,#329);
#329 = DEFINITIONAL_REPRESENTATION('',(#330),#375);
#330 = B_SPLINE_CURVE_WITH_KNOTS('',7,(#331,#332,#333,#334,#335,#336,
    #337,#338,#339,#340,#341,#342,#343,#344,#345,#346,#347,#348,#349,
    #350,#351,#352,#353,#354,#355,#356,#357,#358,#359,#360,#361,#362,
    #363,#364,#365,#366,#367,#368,#369,#370,#371,#372,#373,#374),
  .UNSPECIFIED.,.T.,.F.,(8,6,6,6,6,6,6,8),(0.,0.152386985114,
    0.285811791941,0.422135503065,0.588249696011,0.714221973097,
    0.838121942892,1.),.UNSPECIFIED.);
#331 = CARTESIAN_POINT('',(4.792474560418,8.5));
#332 = CARTESIAN_POINT('',(4.792474560418,8.308548084835));
#333 = CARTESIAN_POINT('',(4.791133978131,8.117155843532));
#334 = CARTESIAN_POINT('',(4.78845394436,7.928232050991));
#335 = CARTESIAN_POINT('',(4.784398285278,7.744494554486));
#336 = CARTESIAN_POINT('',(4.778909724953,7.569456817096));
#337 = CARTESIAN_POINT('',(4.771924100636,7.407947256179));
#338 = CARTESIAN_POINT('',(4.755946017149,7.143926799474));
#339 = CARTESIAN_POINT('',(4.747059494921,7.032411942829));
#340 = CARTESIAN_POINT('',(4.736926156756,6.945185842278));
#341 = CARTESIAN_POINT('',(4.725912991057,6.890873573484));
#342 = CARTESIAN_POINT('',(4.714502510017,6.874093976528));
#343 = CARTESIAN_POINT('',(4.703208164402,6.895251414032));
#344 = CARTESIAN_POINT('',(4.681543970568,7.006477785941));
#345 = CARTESIAN_POINT('',(4.671570323571,7.096128873715));
#346 = CARTESIAN_POINT('',(4.662749105142,7.211804532372));
#347 = CARTESIAN_POINT('',(4.655164784995,7.347219116351));
#348 = CARTESIAN_POINT('',(4.648849631233,7.496775411523));
#349 = CARTESIAN_POINT('',(4.64379185391,7.655447263007));
#350 = CARTESIAN_POINT('',(4.635245195056,8.017745830041));
#351 = CARTESIAN_POINT('',(4.632271584088,8.226548999386));
#352 = CARTESIAN_POINT('',(4.630947505859,8.440480607473));
#353 = CARTESIAN_POINT('',(4.63125751944,8.6560593903));
#354 = CARTESIAN_POINT('',(4.633220068942,8.869481110573));
#355 = CARTESIAN_POINT('',(4.636867880731,9.076325317022));
#356 = CARTESIAN_POINT('',(4.646290890682,9.418289719358));
#357 = CARTESIAN_POINT('',(4.651398656544,9.560829407203));
#358 = CARTESIAN_POINT('',(4.657585430722,9.694504298153));
#359 = CARTESIAN_POINT('',(4.664850110298,9.815057530149));
#360 = CARTESIAN_POINT('',(4.673154279778,9.917892880022));
#361 = CARTESIAN_POINT('',(4.682417471602,9.998006865168));
#362 = CARTESIAN_POINT('',(4.702401742892,10.100608328569));
#363 = CARTESIAN_POINT('',(4.712844190285,10.122726852575));
#364 = CARTESIAN_POINT('',(4.72343800104,10.11234044512));
#365 = CARTESIAN_POINT('',(4.733756138649,10.069333548175));
#366 = CARTESIAN_POINT('',(4.743389375739,9.997039754272));
#367 = CARTESIAN_POINT('',(4.752010808953,9.902102709967));
#368 = CARTESIAN_POINT('',(4.769121369837,9.653746738555));
#369 = CARTESIAN_POINT('',(4.777075925798,9.486733765258));
#370 = CARTESIAN_POINT('',(4.783315923522,9.302876695266));
#371 = CARTESIAN_POINT('',(4.787919344078,9.108301622159));
#372 = CARTESIAN_POINT('',(4.790955804369,8.907512200024));
#373 = CARTESIAN_POINT('',(4.792474560418,8.703772347392));
#374 = CARTESIAN_POINT('',(4.792474560418,8.5));
#375 = ( GEOMETRIC_REPRESENTATION_CONTEXT(2) 
PARAMETRIC_REPRESENTATION_CONTEXT() REPRESENTATION_CONTEXT('2D SPACE',''
  ) );
#376 = PCURVE('',#377,#382);
#377 = CYLINDRICAL_SURFACE('',#378,1.6);
#378 = AXIS2_PLACEMENT_3D('',#379,#380,#381);
#379 = CARTESIAN_POINT('',(0.,-21.,8.5));
#380 = DIRECTION('',(0.,1.,2.22044604925E-16));
#381 = DIRECTION('',(1.,0.,-0.));
#382 = DEFINITIONAL_REPRESENTATION('',(#383),#428);
#383 = B_SPLINE_CURVE_WITH_KNOTS('',7,(#384,#385,#386,#387,#388,#389,
    #390,#391,#392,#393,#394,#395,#396,#397,#398,#399,#400,#401,#402,
    #403,#404,#405,#406,#407,#408,#409,#410,#411,#412,#413,#414,#415,
    #416,#417,#418,#419,#420,#421,#422,#423,#424,#425,#426,#427),
  .UNSPECIFIED.,.F.,.F.,(8,6,6,6,6,6,6,8),(0.,0.152386985114,
    0.285811791941,0.422135503065,0.588249696011,0.714221973097,
    0.838121942892,1.),.UNSPECIFIED.);
#384 = CARTESIAN_POINT('',(0.,1.064102728997));
#385 = CARTESIAN_POINT('',(0.119657446978,1.064102728997));
#386 = CARTESIAN_POINT('',(0.239276894616,1.061957900441));
#387 = CARTESIAN_POINT('',(0.360155788836,1.057669312012));
#388 = CARTESIAN_POINT('',(0.483372510344,1.051407353165));
#389 = CARTESIAN_POINT('',(0.6101244806,1.043524970025));
#390 = CARTESIAN_POINT('',(0.741621207032,1.034709144895));
#391 = CARTESIAN_POINT('',(1.000495658096,1.018413442936));
#392 = CARTESIAN_POINT('',(1.130433791464,1.010647531112));
#393 = CARTESIAN_POINT('',(1.265608896411,1.003795802148));
#394 = CARTESIAN_POINT('',(1.403940456886,0.999214120408));
#395 = CARTESIAN_POINT('',(1.543823721213,0.997880338087));
#396 = CARTESIAN_POINT('',(1.683860356145,0.999694764931));
#397 = CARTESIAN_POINT('',(1.963391153461,1.008315030403));
#398 = CARTESIAN_POINT('',(2.098022740462,1.015080075019));
#399 = CARTESIAN_POINT('',(2.227299741723,1.023285211673));
#400 = CARTESIAN_POINT('',(2.35191464415,1.031849234739));
#401 = CARTESIAN_POINT('',(2.472382177803,1.039912385204));
#402 = CARTESIAN_POINT('',(2.5889678281,1.046889174279));
#403 = CARTESIAN_POINT('',(2.839221844909,1.059262371302));
#404 = CARTESIAN_POINT('',(2.973079077165,1.064080142489));
#405 = CARTESIAN_POINT('',(3.105319521311,1.066345875539));
#406 = CARTESIAN_POINT('',(3.237329671365,1.065823683178));
#407 = CARTESIAN_POINT('',(3.37035472296,1.06250383432));
#408 = CARTESIAN_POINT('',(3.505539930075,1.056720815278));
#409 = CARTESIAN_POINT('',(3.749435995605,1.043508900771));
#410 = CARTESIAN_POINT('',(3.8581944288,1.036731817534));
#411 = CARTESIAN_POINT('',(3.970497701693,1.029181624281));
#412 = CARTESIAN_POINT('',(4.086489175235,1.021373849448));
#413 = CARTESIAN_POINT('',(4.206510809377,1.014021356041));
#414 = CARTESIAN_POINT('',(4.331064845001,1.007967461005));
#415 = CARTESIAN_POINT('',(4.588919779742,1.00001564313));
#416 = CARTESIAN_POINT('',(4.718789416144,0.998151888423));
#417 = CARTESIAN_POINT('',(4.848870119771,0.998959024623));
#418 = CARTESIAN_POINT('',(4.977829817677,1.002574563142));
#419 = CARTESIAN_POINT('',(5.104217049977,1.008322171248));
#420 = CARTESIAN_POINT('',(5.226214677041,1.015147069213));
#421 = CARTESIAN_POINT('',(5.490294936842,1.031238805767));
#422 = CARTESIAN_POINT('',(5.631952251051,1.040909514682));
#423 = CARTESIAN_POINT('',(5.767901464734,1.04974062763));
#424 = CARTESIAN_POINT('',(5.899619730743,1.056813408487));
#425 = CARTESIAN_POINT('',(6.028490980725,1.061672960173));
#426 = CARTESIAN_POINT('',(6.15582759006,1.064102728997));
#427 = CARTESIAN_POINT('',(6.28318530718,1.064102728997));
#428 = ( GEOMETRIC_REPRESENTATION_CONTEXT(2) 
PARAMETRIC_REPRESENTATION_CONTEXT() REPRESENTATION_CONTEXT('2D SPACE',''
  ) );
#429 = ADVANCED_FACE('',(#430),#112,.F.);
#430 = FACE_BOUND('',#431,.T.);
#431 = EDGE_LOOP('',(#432));
#432 = ORIENTED_EDGE('',*,*,#97,.F.);
#433 = ADVANCED_FACE('',(#434,#437),#84,.T.);
#434 = FACE_BOUND('',#435,.T.);
#435 = EDGE_LOOP('',(#436));
#436 = ORIENTED_EDGE('',*,*,#69,.T.);
#437 = FACE_BOUND('',#438,.T.);
#438 = EDGE_LOOP('',(#439));
#439 = ORIENTED_EDGE('',*,*,#440,.F.);
#440 = EDGE_CURVE('',#441,#441,#443,.T.);
#441 = VERTEX_POINT('',#442);
#442 = CARTESIAN_POINT('',(6.3,-1.543054966926E-15,12.));
#443 = SURFACE_CURVE('',#444,(#449,#456),.PCURVE_S1.);
#444 = CIRCLE('',#445,6.3);
#445 = AXIS2_PLACEMENT_3D('',#446,#447,#448);
#446 = CARTESIAN_POINT('',(0.,0.,12.));
#447 = DIRECTION('',(0.,0.,1.));
#448 = DIRECTION('',(1.,0.,-0.));
#449 = PCURVE('',#84,#450);
#450 = DEFINITIONAL_REPRESENTATION('',(#451),#455);
#451 = CIRCLE('',#452,6.3);
#452 = AXIS2_PLACEMENT_2D('',#453,#454);
#453 = CARTESIAN_POINT('',(0.,0.));
#454 = DIRECTION('',(1.,0.));
#455 = ( GEOMETRIC_REPRESENTATION_CONTEXT(2) 
PARAMETRIC_REPRESENTATION_CONTEXT() REPRESENTATION_CONTEXT('2D SPACE',''
  ) );
#456 = PCURVE('',#457,#462);
#457 = CYLINDRICAL_SURFACE('',#458,6.3);
#458 = AXIS2_PLACEMENT_3D('',#459,#460,#461);
#459 = CARTESIAN_POINT('',(0.,0.,4.));
#460 = DIRECTION('',(0.,0.,1.));
#461 = DIRECTION('',(1.,0.,-0.));
#462 = DEFINITIONAL_REPRESENTATION('',(#463),#467);
#463 = LINE('',#464,#465);
#464 = CARTESIAN_POINT('',(0.,8.));
#465 = VECTOR('',#466,1.);
#466 = DIRECTION('',(1.,0.));
#467 = ( GEOMETRIC_REPRESENTATION_CONTEXT(2) 
PARAMETRIC_REPRESENTATION_CONTEXT() REPRESENTATION_CONTEXT('2D SPACE',''
  ) );
#468 = ADVANCED_FACE('',(#469),#224,.F.);
#469 = FACE_BOUND('',#470,.F.);
#470 = EDGE_LOOP('',(#471,#472,#495,#660));
#471 = ORIENTED_EDGE('',*,*,#126,.F.);
#472 = ORIENTED_EDGE('',*,*,#473,.F.);
#473 = EDGE_CURVE('',#474,#127,#476,.T.);
#474 = VERTEX_POINT('',#475);
#475 = CARTESIAN_POINT('',(1.6,6.093439094633,8.5));
#476 = SEAM_CURVE('',#477,(#481,#488),.PCURVE_S1.);
#477 = LINE('',#478,#479);
#478 = CARTESIAN_POINT('',(1.6,-21.,8.5));
#479 = VECTOR('',#480,1.);
#480 = DIRECTION('',(0.,1.,2.22044604925E-16));
#481 = PCURVE('',#224,#482);
#482 = DEFINITIONAL_REPRESENTATION('',(#483),#487);
#483 = LINE('',#484,#485);
#484 = CARTESIAN_POINT('',(6.28318530718,-0.));
#485 = VECTOR('',#486,1.);
#486 = DIRECTION('',(0.,1.));
#487 = ( GEOMETRIC_REPRESENTATION_CONTEXT(2) 
PARAMETRIC_REPRESENTATION_CONTEXT() REPRESENTATION_CONTEXT('2D SPACE',''
  ) );
#488 = PCURVE('',#224,#489);
#489 = DEFINITIONAL_REPRESENTATION('',(#490),#494);
#490 = LINE('',#491,#492);
#491 = CARTESIAN_POINT('',(0.,-0.));
#492 = VECTOR('',#493,1.);
#493 = DIRECTION('',(0.,1.));
#494 = ( GEOMETRIC_REPRESENTATION_CONTEXT(2) 
PARAMETRIC_REPRESENTATION_CONTEXT() REPRESENTATION_CONTEXT('2D SPACE',''
  ) );
#495 = ORIENTED_EDGE('',*,*,#496,.T.);
#496 = EDGE_CURVE('',#474,#474,#497,.T.);
#497 = SURFACE_CURVE('',#498,(#550,#605),.PCURVE_S1.);
#498 = B_SPLINE_CURVE_WITH_KNOTS('',8,(#499,#500,#501,#502,#503,#504,
    #505,#506,#507,#508,#509,#510,#511,#512,#513,#514,#515,#516,#517,
    #518,#519,#520,#521,#522,#523,#524,#525,#526,#527,#528,#529,#530,
    #531,#532,#533,#534,#535,#536,#537,#538,#539,#540,#541,#542,#543,
    #544,#545,#546,#547,#548,#549),.UNSPECIFIED.,.T.,.F.,(9,7,7,7,7,7,7,
    9),(0.,0.152857942399,0.287130494039,0.424025470096,0.577249126507,
    0.705535624239,0.828927521159,1.),.UNSPECIFIED.);
#499 = CARTESIAN_POINT('',(1.6,6.093439094633,8.5));
#500 = CARTESIAN_POINT('',(1.6,6.093439094633,8.331478393047));
#501 = CARTESIAN_POINT('',(1.579715254063,6.098765312327,8.163189416453)
  );
#502 = CARTESIAN_POINT('',(1.539239952462,6.109393602059,7.996725398105)
  );
#503 = CARTESIAN_POINT('',(1.478315138918,6.124986320571,7.833816399015)
  );
#504 = CARTESIAN_POINT('',(1.396462231482,6.144871537343,7.676499578382)
  );
#505 = CARTESIAN_POINT('',(1.293089526506,6.167958044386,7.527291527701)
  );
#506 = CARTESIAN_POINT('',(1.167643707865,6.192659394729,7.389420918912)
  );
#507 = CARTESIAN_POINT('',(0.890079258856,6.238193659804,7.159799637048)
  );
#508 = CARTESIAN_POINT('',(0.738544388488,6.259872204078,7.060745598251)
  );
#509 = CARTESIAN_POINT('',(0.567632322903,6.279729603155,6.978227419825)
  );
#510 = CARTESIAN_POINT('',(0.381537775846,6.295190640229,6.918236500083)
  );
#511 = CARTESIAN_POINT('',(0.185777910331,6.304045901112,6.88465282414)
  );
#512 = CARTESIAN_POINT('',(-1.349847777549E-02,6.305305344391,
    6.879324805032));
#513 = CARTESIAN_POINT('',(-0.209994228064,6.299313760887,6.902019959428
    ));
#514 = CARTESIAN_POINT('',(-0.589483399216,6.27529752719,6.999456217812)
  );
#515 = CARTESIAN_POINT('',(-0.766147234479,6.257418741337,7.073665984179
    ));
#516 = CARTESIAN_POINT('',(-0.925823363537,6.235692393332,7.168170270193
    ));
#517 = CARTESIAN_POINT('',(-1.067382283781,6.212156931094,7.278930196743
    ));
#518 = CARTESIAN_POINT('',(-1.190291950206,6.188657112307,7.402388126319
    ));
#519 = CARTESIAN_POINT('',(-1.294444303683,6.166693413364,7.535362069643
    ));
#520 = CARTESIAN_POINT('',(-1.380078159162,6.147374662873,7.674999925943
    ));
#521 = CARTESIAN_POINT('',(-1.523437043912,6.113525312167,7.979653063621
    ));
#522 = CARTESIAN_POINT('',(-1.578011943537,6.099511306107,8.148678464378
    ));
#523 = CARTESIAN_POINT('',(-1.610937564116,6.090569640367,8.32302380379)
  );
#524 = CARTESIAN_POINT('',(-1.621941206824,6.087496663764,8.5));
#525 = CARTESIAN_POINT('',(-1.610937564117,6.090569640367,8.67697619621)
  );
#526 = CARTESIAN_POINT('',(-1.578011943537,6.099511306107,8.851321535622
    ));
#527 = CARTESIAN_POINT('',(-1.523437043912,6.113525312167,9.02034693638)
  );
#528 = CARTESIAN_POINT('',(-1.384331942663,6.146370275808,9.315960323971
    ));
#529 = CARTESIAN_POINT('',(-1.30527243804,6.164246545727,9.446784838863)
  );
#530 = CARTESIAN_POINT('',(-1.210149851395,6.184449344283,9.571801711659
    ));
#531 = CARTESIAN_POINT('',(-1.098720907613,6.20610792415,9.688827383393)
  );
#532 = CARTESIAN_POINT('',(-0.97095183528,6.228062096056,9.795381619831)
  );
#533 = CARTESIAN_POINT('',(-0.827091232307,6.248876103286,9.888641779341
    ));
#534 = CARTESIAN_POINT('',(-0.667805847801,6.26691964221,9.965356285571)
  );
#535 = CARTESIAN_POINT('',(-0.327663566405,6.293696770817,
    10.075875212318));
#536 = CARTESIAN_POINT('',(-0.150072053022,6.302585549018,
    10.110486436465));
#537 = CARTESIAN_POINT('',(3.358914995117E-02,6.305745208574,
    10.122019817526));
#538 = CARTESIAN_POINT('',(0.217878268705,6.302342731141,10.109042806742
    ));
#539 = CARTESIAN_POINT('',(0.397207953171,6.292604386947,10.072062369683
    ));
#540 = CARTESIAN_POINT('',(0.56629745541,6.277887788222,10.013470380054)
  );
#541 = CARTESIAN_POINT('',(0.720717232234,6.260158134539,9.937617255931)
  );
#542 = CARTESIAN_POINT('',(1.046715092978,6.215378806738,9.730732722545)
  );
#543 = CARTESIAN_POINT('',(1.20767679419,6.186576854489,9.58601768106));
#544 = CARTESIAN_POINT('',(1.34013487053,6.158403878805,9.424038685808)
  );
#545 = CARTESIAN_POINT('',(1.444846580646,6.13352746506,9.249901695693)
  );
#546 = CARTESIAN_POINT('',(1.522637040124,6.113752111037,9.067521657718)
  );
#547 = CARTESIAN_POINT('',(1.574210824318,6.100210908052,8.880016176135)
  );
#548 = CARTESIAN_POINT('',(1.6,6.093439094633,8.690012529287));
#549 = CARTESIAN_POINT('',(1.6,6.093439094633,8.5));
#550 = PCURVE('',#224,#551);
#551 = DEFINITIONAL_REPRESENTATION('',(#552),#604);
#552 = B_SPLINE_CURVE_WITH_KNOTS('',8,(#553,#554,#555,#556,#557,#558,
    #559,#560,#561,#562,#563,#564,#565,#566,#567,#568,#569,#570,#571,
    #572,#573,#574,#575,#576,#577,#578,#579,#580,#581,#582,#583,#584,
    #585,#586,#587,#588,#589,#590,#591,#592,#593,#594,#595,#596,#597,
    #598,#599,#600,#601,#602,#603),.UNSPECIFIED.,.F.,.F.,(9,7,7,7,7,7,7,
    9),(0.,0.152857942399,0.287130494039,0.424025470096,0.577249126507,
    0.705535624239,0.828927521159,1.),.UNSPECIFIED.);
#553 = CARTESIAN_POINT('',(0.,27.093439094633));
#554 = CARTESIAN_POINT('',(0.105326004346,27.093439094633));
#555 = CARTESIAN_POINT('',(0.21050625134,27.098765312327));
#556 = CARTESIAN_POINT('',(0.316327962576,27.109393602059));
#557 = CARTESIAN_POINT('',(0.423465873815,27.124986320571));
#558 = CARTESIAN_POINT('',(0.532602381588,27.144871537343));
#559 = CARTESIAN_POINT('',(0.644448812488,27.167958044386));
#560 = CARTESIAN_POINT('',(0.759786448658,27.192659394729));
#561 = CARTESIAN_POINT('',(0.984932196972,27.238193659804));
#562 = CARTESIAN_POINT('',(1.097369299579,27.259872204078));
#563 = CARTESIAN_POINT('',(1.214327075465,27.279729603155));
#564 = CARTESIAN_POINT('',(1.33419981421,27.295190640229));
#565 = CARTESIAN_POINT('',(1.455869713527,27.304045901112));
#566 = CARTESIAN_POINT('',(1.578391528966,27.305305344391));
#567 = CARTESIAN_POINT('',(1.700870862367,27.299313760887));
#568 = CARTESIAN_POINT('',(1.945744758062,27.27529752719));
#569 = CARTESIAN_POINT('',(2.064225912275,27.257418741337));
#570 = CARTESIAN_POINT('',(2.178452842989,27.235692393332));
#571 = CARTESIAN_POINT('',(2.289001145917,27.212156931094));
#572 = CARTESIAN_POINT('',(2.396309105265,27.188657112307));
#573 = CARTESIAN_POINT('',(2.500718465088,27.166693413364));
#574 = CARTESIAN_POINT('',(2.602473629349,27.147374662873));
#575 = CARTESIAN_POINT('',(2.812909657461,27.113525312167));
#576 = CARTESIAN_POINT('',(2.923019724823,27.099511306107));
#577 = CARTESIAN_POINT('',(3.032467939485,27.090569640367));
#578 = CARTESIAN_POINT('',(3.14159265359,27.087496663764));
#579 = CARTESIAN_POINT('',(3.250717367695,27.090569640367));
#580 = CARTESIAN_POINT('',(3.360165582357,27.099511306107));
#581 = CARTESIAN_POINT('',(3.470275649719,27.113525312167));
#582 = CARTESIAN_POINT('',(3.674467563236,27.146370275808));
#583 = CARTESIAN_POINT('',(3.769489368627,27.164246545727));
#584 = CARTESIAN_POINT('',(3.866730889911,27.184449344283));
#585 = CARTESIAN_POINT('',(3.966463083068,27.20610792415));
#586 = CARTESIAN_POINT('',(4.069017717217,27.228062096056));
#587 = CARTESIAN_POINT('',(4.174793971723,27.248876103286));
#588 = CARTESIAN_POINT('',(4.284291522454,27.26691964221));
#589 = CARTESIAN_POINT('',(4.5078207473,27.293696770817));
#590 = CARTESIAN_POINT('',(4.62006782481,27.302585549018));
#591 = CARTESIAN_POINT('',(4.733470022971,27.305745208574));
#592 = CARTESIAN_POINT('',(4.846935409963,27.302342731141));
#593 = CARTESIAN_POINT('',(4.959438857032,27.292604386947));
#594 = CARTESIAN_POINT('',(5.069864727005,27.277887788222));
#595 = CARTESIAN_POINT('',(5.176755557352,27.260158134539));
#596 = CARTESIAN_POINT('',(5.418070166061,27.215378806738));
#597 = CARTESIAN_POINT('',(5.551474659249,27.186576854489));
#598 = CARTESIAN_POINT('',(5.679815461668,27.158403878805));
#599 = CARTESIAN_POINT('',(5.804285486644,27.13352746506));
#600 = CARTESIAN_POINT('',(5.925933477523,27.113752111037));
#601 = CARTESIAN_POINT('',(6.045674888713,27.100210908052));
#602 = CARTESIAN_POINT('',(6.164427476375,27.093439094633));
#603 = CARTESIAN_POINT('',(6.28318530718,27.093439094633));
#604 = ( GEOMETRIC_REPRESENTATION_CONTEXT(2) 
PARAMETRIC_REPRESENTATION_CONTEXT() REPRESENTATION_CONTEXT('2D SPACE',''
  ) );
#605 = PCURVE('',#457,#606);
#606 = DEFINITIONAL_REPRESENTATION('',(#607),#659);
#607 = B_SPLINE_CURVE_WITH_KNOTS('',8,(#608,#609,#610,#611,#612,#613,
    #614,#615,#616,#617,#618,#619,#620,#621,#622,#623,#624,#625,#626,
    #627,#628,#629,#630,#631,#632,#633,#634,#635,#636,#637,#638,#639,
    #640,#641,#642,#643,#644,#645,#646,#647,#648,#649,#650,#651,#652,
    #653,#654,#655,#656,#657,#658),.UNSPECIFIED.,.T.,.F.,(9,7,7,7,7,7,7,
    9),(0.,0.152857942399,0.287130494039,0.424025470096,0.577249126507,
    0.705535624239,0.828927521159,1.),.UNSPECIFIED.);
#608 = CARTESIAN_POINT('',(1.314015494316,4.5));
#609 = CARTESIAN_POINT('',(1.314015494316,4.331478393047));
#610 = CARTESIAN_POINT('',(1.317344448016,4.163189416453));
#611 = CARTESIAN_POINT('',(1.323986870157,3.996725398105));
#612 = CARTESIAN_POINT('',(1.333969021553,3.833816399015));
#613 = CARTESIAN_POINT('',(1.347337196292,3.676499578382));
#614 = CARTESIAN_POINT('',(1.364142881631,3.527291527701));
#615 = CARTESIAN_POINT('',(1.384426983665,3.389420918912));
#616 = CARTESIAN_POINT('',(1.429073743325,3.159799637048));
#617 = CARTESIAN_POINT('',(1.453366660202,3.060745598251));
#618 = CARTESIAN_POINT('',(1.480661955846,2.978227419825));
#619 = CARTESIAN_POINT('',(1.510268764965,2.918236500083));
#620 = CARTESIAN_POINT('',(1.54132733412,2.88465282414));
#621 = CARTESIAN_POINT('',(1.572923571336,2.879324805032));
#622 = CARTESIAN_POINT('',(1.60411114112,2.902019959428));
#623 = CARTESIAN_POINT('',(1.664468022662,2.999456217812));
#624 = CARTESIAN_POINT('',(1.692633122702,3.073665984179));
#625 = CARTESIAN_POINT('',(1.718188998275,3.168170270193));
#626 = CARTESIAN_POINT('',(1.740951402871,3.278930196743));
#627 = CARTESIAN_POINT('',(1.760806855929,3.402388126319));
#628 = CARTESIAN_POINT('',(1.777699590902,3.535362069643));
#629 = CARTESIAN_POINT('',(1.791633209267,3.674999925943));
#630 = CARTESIAN_POINT('',(1.815014300863,3.979653063621));
#631 = CARTESIAN_POINT('',(1.823956305284,4.148678464378));
#632 = CARTESIAN_POINT('',(1.829371851788,4.32302380379));
#633 = CARTESIAN_POINT('',(1.831185593723,4.5));
#634 = CARTESIAN_POINT('',(1.829371851788,4.67697619621));
#635 = CARTESIAN_POINT('',(1.823956305284,4.851321535622));
#636 = CARTESIAN_POINT('',(1.815014300863,5.02034693638));
#637 = CARTESIAN_POINT('',(1.792326979325,5.315960323971));
#638 = CARTESIAN_POINT('',(1.779461611714,5.446784838863));
#639 = CARTESIAN_POINT('',(1.764028350433,5.571801711659));
#640 = CARTESIAN_POINT('',(1.746015874906,5.688827383393));
#641 = CARTESIAN_POINT('',(1.725449368276,5.795381619831));
#642 = CARTESIAN_POINT('',(1.702393350321,5.888641779341));
#643 = CARTESIAN_POINT('',(1.676963187127,5.965356285571));
#644 = CARTESIAN_POINT('',(1.622805306868,6.075875212318));
#645 = CARTESIAN_POINT('',(1.594592415418,6.110486436465));
#646 = CARTESIAN_POINT('',(1.56546174187,6.122019817526));
#647 = CARTESIAN_POINT('',(1.536241956668,6.109042806742));
#648 = CARTESIAN_POINT('',(1.507766731107,6.072062369683));
#649 = CARTESIAN_POINT('',(1.480842831932,6.013470380054));
#650 = CARTESIAN_POINT('',(1.456176821768,5.937617255931));
#651 = CARTESIAN_POINT('',(1.403945242202,5.730732722545));
#652 = CARTESIAN_POINT('',(1.378011316195,5.586017681061));
#653 = CARTESIAN_POINT('',(1.356530616402,5.424038685808));
#654 = CARTESIAN_POINT('',(1.339451479458,5.249901695694));
#655 = CARTESIAN_POINT('',(1.326711623068,5.067521657717));
#656 = CARTESIAN_POINT('',(1.318247775536,4.880016176135));
#657 = CARTESIAN_POINT('',(1.314015494316,4.690012529287));
#658 = CARTESIAN_POINT('',(1.314015494316,4.5));
#659 = ( GEOMETRIC_REPRESENTATION_CONTEXT(2) 
PARAMETRIC_REPRESENTATION_CONTEXT() REPRESENTATION_CONTEXT('2D SPACE',''
  ) );
#660 = ORIENTED_EDGE('',*,*,#473,.T.);
#661 = ADVANCED_FACE('',(#662),#377,.F.);
#662 = FACE_BOUND('',#663,.F.);
#663 = EDGE_LOOP('',(#664,#831,#852,#853));
#664 = ORIENTED_EDGE('',*,*,#665,.F.);
#665 = EDGE_CURVE('',#666,#666,#668,.T.);
#666 = VERTEX_POINT('',#667);
#667 = CARTESIAN_POINT('',(1.6,-6.093439094633,8.5));
#668 = SURFACE_CURVE('',#669,(#721,#776),.PCURVE_S1.);
#669 = B_SPLINE_CURVE_WITH_KNOTS('',8,(#670,#671,#672,#673,#674,#675,
    #676,#677,#678,#679,#680,#681,#682,#683,#684,#685,#686,#687,#688,
    #689,#690,#691,#692,#693,#694,#695,#696,#697,#698,#699,#700,#701,
    #702,#703,#704,#705,#706,#707,#708,#709,#710,#711,#712,#713,#714,
    #715,#716,#717,#718,#719,#720),.UNSPECIFIED.,.T.,.F.,(9,7,7,7,7,7,7,
    9),(0.,0.1528579424,0.287130494041,0.424025470098,0.577249126509,
    0.705535624239,0.828927521159,1.),.UNSPECIFIED.);
#670 = CARTESIAN_POINT('',(1.6,-6.093439094633,8.5));
#671 = CARTESIAN_POINT('',(1.6,-6.093439094633,8.331478393047));
#672 = CARTESIAN_POINT('',(1.579715254063,-6.098765312327,8.163189416453
    ));
#673 = CARTESIAN_POINT('',(1.539239952461,-6.109393602059,7.996725398105
    ));
#674 = CARTESIAN_POINT('',(1.478315138918,-6.124986320571,7.833816399015
    ));
#675 = CARTESIAN_POINT('',(1.396462231483,-6.144871537343,7.676499578382
    ));
#676 = CARTESIAN_POINT('',(1.293089526506,-6.167958044386,7.527291527701
    ));
#677 = CARTESIAN_POINT('',(1.167643707865,-6.192659394729,7.389420918912
    ));
#678 = CARTESIAN_POINT('',(0.890079258856,-6.238193659804,7.159799637048
    ));
#679 = CARTESIAN_POINT('',(0.738544388489,-6.259872204078,7.060745598251
    ));
#680 = CARTESIAN_POINT('',(0.567632322902,-6.279729603155,6.978227419825
    ));
#681 = CARTESIAN_POINT('',(0.381537775847,-6.295190640229,6.918236500083
    ));
#682 = CARTESIAN_POINT('',(0.185777910331,-6.304045901112,6.88465282414)
  );
#683 = CARTESIAN_POINT('',(-1.349847777539E-02,-6.305305344391,
    6.879324805032));
#684 = CARTESIAN_POINT('',(-0.209994228064,-6.299313760887,
    6.902019959428));
#685 = CARTESIAN_POINT('',(-0.589483399216,-6.27529752719,6.999456217812
    ));
#686 = CARTESIAN_POINT('',(-0.766147234479,-6.257418741337,
    7.073665984179));
#687 = CARTESIAN_POINT('',(-0.925823363537,-6.235692393332,
    7.168170270193));
#688 = CARTESIAN_POINT('',(-1.067382283781,-6.212156931094,
    7.278930196743));
#689 = CARTESIAN_POINT('',(-1.190291950206,-6.188657112307,
    7.402388126319));
#690 = CARTESIAN_POINT('',(-1.294444303683,-6.166693413364,
    7.535362069643));
#691 = CARTESIAN_POINT('',(-1.380078159162,-6.147374662873,
    7.674999925943));
#692 = CARTESIAN_POINT('',(-1.523437043911,-6.113525312167,
    7.979653063619));
#693 = CARTESIAN_POINT('',(-1.578011943537,-6.099511306107,
    8.148678464377));
#694 = CARTESIAN_POINT('',(-1.610937564117,-6.090569640367,8.32302380379
    ));
#695 = CARTESIAN_POINT('',(-1.621941206824,-6.087496663764,
    8.500000000001));
#696 = CARTESIAN_POINT('',(-1.610937564116,-6.090569640367,
    8.676976196211));
#697 = CARTESIAN_POINT('',(-1.578011943537,-6.099511306107,
    8.851321535623));
#698 = CARTESIAN_POINT('',(-1.523437043912,-6.113525312167,
    9.020346936379));
#699 = CARTESIAN_POINT('',(-1.384331942663,-6.146370275808,
    9.315960323971));
#700 = CARTESIAN_POINT('',(-1.30527243804,-6.164246545727,9.446784838862
    ));
#701 = CARTESIAN_POINT('',(-1.210149851395,-6.184449344283,9.57180171166
    ));
#702 = CARTESIAN_POINT('',(-1.098720907613,-6.20610792415,9.688827383394
    ));
#703 = CARTESIAN_POINT('',(-0.970951835281,-6.228062096056,
    9.795381619831));
#704 = CARTESIAN_POINT('',(-0.827091232307,-6.248876103286,
    9.888641779341));
#705 = CARTESIAN_POINT('',(-0.667805847801,-6.26691964221,9.965356285571
    ));
#706 = CARTESIAN_POINT('',(-0.327663566405,-6.293696770817,
    10.075875212318));
#707 = CARTESIAN_POINT('',(-0.150072053023,-6.302585549018,
    10.110486436464));
#708 = CARTESIAN_POINT('',(3.358914995226E-02,-6.305745208575,
    10.122019817527));
#709 = CARTESIAN_POINT('',(0.217878268704,-6.302342731141,10.10904280674
    ));
#710 = CARTESIAN_POINT('',(0.397207953172,-6.292604386947,
    10.072062369684));
#711 = CARTESIAN_POINT('',(0.566297455409,-6.277887788222,
    10.013470380054));
#712 = CARTESIAN_POINT('',(0.720717232234,-6.260158134539,9.93761725593)
  );
#713 = CARTESIAN_POINT('',(1.046715092978,-6.215378806738,9.730732722544
    ));
#714 = CARTESIAN_POINT('',(1.207676794188,-6.186576854489,9.586017681061
    ));
#715 = CARTESIAN_POINT('',(1.340134870533,-6.158403878805,9.424038685806
    ));
#716 = CARTESIAN_POINT('',(1.444846580644,-6.13352746506,9.249901695695)
  );
#717 = CARTESIAN_POINT('',(1.522637040126,-6.113752111037,9.067521657716
    ));
#718 = CARTESIAN_POINT('',(1.574210824318,-6.100210908052,8.880016176136
    ));
#719 = CARTESIAN_POINT('',(1.6,-6.093439094633,8.690012529286));
#720 = CARTESIAN_POINT('',(1.6,-6.093439094633,8.5));
#721 = PCURVE('',#377,#722);
#722 = DEFINITIONAL_REPRESENTATION('',(#723),#775);
#723 = B_SPLINE_CURVE_WITH_KNOTS('',8,(#724,#725,#726,#727,#728,#729,
    #730,#731,#732,#733,#734,#735,#736,#737,#738,#739,#740,#741,#742,
    #743,#744,#745,#746,#747,#748,#749,#750,#751,#752,#753,#754,#755,
    #756,#757,#758,#759,#760,#761,#762,#763,#764,#765,#766,#767,#768,
    #769,#770,#771,#772,#773,#774),.UNSPECIFIED.,.F.,.F.,(9,7,7,7,7,7,7,
    9),(0.,0.1528579424,0.287130494041,0.424025470098,0.577249126509,
    0.705535624239,0.828927521159,1.),.UNSPECIFIED.);
#724 = CARTESIAN_POINT('',(0.,14.906560905367));
#725 = CARTESIAN_POINT('',(0.105326004346,14.906560905367));
#726 = CARTESIAN_POINT('',(0.21050625134,14.901234687673));
#727 = CARTESIAN_POINT('',(0.316327962576,14.890606397941));
#728 = CARTESIAN_POINT('',(0.423465873815,14.875013679429));
#729 = CARTESIAN_POINT('',(0.532602381588,14.855128462657));
#730 = CARTESIAN_POINT('',(0.644448812488,14.832041955614));
#731 = CARTESIAN_POINT('',(0.759786448658,14.807340605271));
#732 = CARTESIAN_POINT('',(0.984932196972,14.761806340196));
#733 = CARTESIAN_POINT('',(1.097369299579,14.740127795922));
#734 = CARTESIAN_POINT('',(1.214327075465,14.720270396845));
#735 = CARTESIAN_POINT('',(1.334199814211,14.704809359771));
#736 = CARTESIAN_POINT('',(1.455869713527,14.695954098888));
#737 = CARTESIAN_POINT('',(1.578391528966,14.694694655609));
#738 = CARTESIAN_POINT('',(1.700870862367,14.700686239113));
#739 = CARTESIAN_POINT('',(1.945744758062,14.72470247281));
#740 = CARTESIAN_POINT('',(2.064225912275,14.742581258663));
#741 = CARTESIAN_POINT('',(2.178452842989,14.764307606668));
#742 = CARTESIAN_POINT('',(2.289001145917,14.787843068906));
#743 = CARTESIAN_POINT('',(2.396309105265,14.811342887693));
#744 = CARTESIAN_POINT('',(2.500718465088,14.833306586636));
#745 = CARTESIAN_POINT('',(2.602473629349,14.852625337127));
#746 = CARTESIAN_POINT('',(2.812909657459,14.886474687833));
#747 = CARTESIAN_POINT('',(2.923019724822,14.900488693893));
#748 = CARTESIAN_POINT('',(3.032467939485,14.909430359633));
#749 = CARTESIAN_POINT('',(3.14159265359,14.912503336236));
#750 = CARTESIAN_POINT('',(3.250717367695,14.909430359633));
#751 = CARTESIAN_POINT('',(3.360165582358,14.900488693893));
#752 = CARTESIAN_POINT('',(3.470275649719,14.886474687833));
#753 = CARTESIAN_POINT('',(3.674467563236,14.853629724192));
#754 = CARTESIAN_POINT('',(3.769489368626,14.835753454273));
#755 = CARTESIAN_POINT('',(3.866730889911,14.815550655717));
#756 = CARTESIAN_POINT('',(3.966463083068,14.79389207585));
#757 = CARTESIAN_POINT('',(4.069017717216,14.771937903944));
#758 = CARTESIAN_POINT('',(4.174793971723,14.751123896714));
#759 = CARTESIAN_POINT('',(4.284291522453,14.73308035779));
#760 = CARTESIAN_POINT('',(4.5078207473,14.706303229183));
#761 = CARTESIAN_POINT('',(4.620067824809,14.697414450982));
#762 = CARTESIAN_POINT('',(4.733470022972,14.694254791425));
#763 = CARTESIAN_POINT('',(4.846935409962,14.697657268859));
#764 = CARTESIAN_POINT('',(4.959438857032,14.707395613053));
#765 = CARTESIAN_POINT('',(5.069864727005,14.722112211778));
#766 = CARTESIAN_POINT('',(5.176755557352,14.739841865461));
#767 = CARTESIAN_POINT('',(5.418070166062,14.784621193262));
#768 = CARTESIAN_POINT('',(5.551474659247,14.813423145511));
#769 = CARTESIAN_POINT('',(5.679815461672,14.841596121195));
#770 = CARTESIAN_POINT('',(5.804285486639,14.86647253494));
#771 = CARTESIAN_POINT('',(5.925933477526,14.886247888963));
#772 = CARTESIAN_POINT('',(6.045674888712,14.899789091948));
#773 = CARTESIAN_POINT('',(6.164427476376,14.906560905367));
#774 = CARTESIAN_POINT('',(6.28318530718,14.906560905367));
#775 = ( GEOMETRIC_REPRESENTATION_CONTEXT(2) 
PARAMETRIC_REPRESENTATION_CONTEXT() REPRESENTATION_CONTEXT('2D SPACE',''
  ) );
#776 = PCURVE('',#457,#777);
#777 = DEFINITIONAL_REPRESENTATION('',(#778),#830);
#778 = B_SPLINE_CURVE_WITH_KNOTS('',8,(#779,#780,#781,#782,#783,#784,
    #785,#786,#787,#788,#789,#790,#791,#792,#793,#794,#795,#796,#797,
    #798,#799,#800,#801,#802,#803,#804,#805,#806,#807,#808,#809,#810,
    #811,#812,#813,#814,#815,#816,#817,#818,#819,#820,#821,#822,#823,
    #824,#825,#826,#827,#828,#829),.UNSPECIFIED.,.T.,.F.,(9,7,7,7,7,7,7,
    9),(0.,0.1528579424,0.287130494041,0.424025470098,0.577249126509,
    0.705535624239,0.828927521159,1.),.UNSPECIFIED.);
#779 = CARTESIAN_POINT('',(4.969169812864,4.5));
#780 = CARTESIAN_POINT('',(4.969169812864,4.331478393047));
#781 = CARTESIAN_POINT('',(4.965840859164,4.163189416453));
#782 = CARTESIAN_POINT('',(4.959198437023,3.996725398105));
#783 = CARTESIAN_POINT('',(4.949216285627,3.833816399015));
#784 = CARTESIAN_POINT('',(4.935848110888,3.676499578382));
#785 = CARTESIAN_POINT('',(4.919042425549,3.527291527701));
#786 = CARTESIAN_POINT('',(4.898758323515,3.389420918912));
#787 = CARTESIAN_POINT('',(4.854111563855,3.159799637048));
#788 = CARTESIAN_POINT('',(4.829818646978,3.060745598251));
#789 = CARTESIAN_POINT('',(4.802523351334,2.978227419825));
#790 = CARTESIAN_POINT('',(4.772916542215,2.918236500083));
#791 = CARTESIAN_POINT('',(4.741857973059,2.88465282414));
#792 = CARTESIAN_POINT('',(4.710261735843,2.879324805032));
#793 = CARTESIAN_POINT('',(4.67907416606,2.902019959428));
#794 = CARTESIAN_POINT('',(4.618717284518,2.999456217812));
#795 = CARTESIAN_POINT('',(4.590552184478,3.073665984179));
#796 = CARTESIAN_POINT('',(4.564996308904,3.168170270193));
#797 = CARTESIAN_POINT('',(4.542233904309,3.278930196743));
#798 = CARTESIAN_POINT('',(4.522378451251,3.402388126319));
#799 = CARTESIAN_POINT('',(4.505485716278,3.535362069643));
#800 = CARTESIAN_POINT('',(4.491552097912,3.674999925943));
#801 = CARTESIAN_POINT('',(4.468171006317,3.979653063619));
#802 = CARTESIAN_POINT('',(4.459229001895,4.148678464377));
#803 = CARTESIAN_POINT('',(4.453813455392,4.32302380379));
#804 = CARTESIAN_POINT('',(4.451999713457,4.500000000001));
#805 = CARTESIAN_POINT('',(4.453813455392,4.676976196211));
#806 = CARTESIAN_POINT('',(4.459229001895,4.851321535623));
#807 = CARTESIAN_POINT('',(4.468171006317,5.020346936379));
#808 = CARTESIAN_POINT('',(4.490858327855,5.315960323971));
#809 = CARTESIAN_POINT('',(4.503723695466,5.446784838862));
#810 = CARTESIAN_POINT('',(4.519156956747,5.57180171166));
#811 = CARTESIAN_POINT('',(4.537169432273,5.688827383394));
#812 = CARTESIAN_POINT('',(4.557735938904,5.795381619831));
#813 = CARTESIAN_POINT('',(4.580791956859,5.888641779341));
#814 = CARTESIAN_POINT('',(4.606222120052,5.965356285571));
#815 = CARTESIAN_POINT('',(4.660380000312,6.075875212318));
#816 = CARTESIAN_POINT('',(4.688592891761,6.110486436464));
#817 = CARTESIAN_POINT('',(4.71772356531,6.122019817527));
#818 = CARTESIAN_POINT('',(4.746943350512,6.10904280674));
#819 = CARTESIAN_POINT('',(4.775418576072,6.072062369684));
#820 = CARTESIAN_POINT('',(4.802342475248,6.013470380054));
#821 = CARTESIAN_POINT('',(4.827008485412,5.93761725593));
#822 = CARTESIAN_POINT('',(4.879240064978,5.730732722544));
#823 = CARTESIAN_POINT('',(4.905173990984,5.586017681061));
#824 = CARTESIAN_POINT('',(4.926654690778,5.424038685807));
#825 = CARTESIAN_POINT('',(4.943733827721,5.249901695694));
#826 = CARTESIAN_POINT('',(4.956473684111,5.067521657716));
#827 = CARTESIAN_POINT('',(4.964937531643,4.880016176136));
#828 = CARTESIAN_POINT('',(4.969169812864,4.690012529286));
#829 = CARTESIAN_POINT('',(4.969169812864,4.5));
#830 = ( GEOMETRIC_REPRESENTATION_CONTEXT(2) 
PARAMETRIC_REPRESENTATION_CONTEXT() REPRESENTATION_CONTEXT('2D SPACE',''
  ) );
#831 = ORIENTED_EDGE('',*,*,#832,.F.);
#832 = EDGE_CURVE('',#280,#666,#833,.T.);
#833 = SEAM_CURVE('',#834,(#838,#845),.PCURVE_S1.);
#834 = LINE('',#835,#836);
#835 = CARTESIAN_POINT('',(1.6,-21.,8.5));
#836 = VECTOR('',#837,1.);
#837 = DIRECTION('',(0.,1.,2.22044604925E-16));
#838 = PCURVE('',#377,#839);
#839 = DEFINITIONAL_REPRESENTATION('',(#840),#844);
#840 = LINE('',#841,#842);
#841 = CARTESIAN_POINT('',(6.28318530718,-0.));
#842 = VECTOR('',#843,1.);
#843 = DIRECTION('',(0.,1.));
#844 = ( GEOMETRIC_REPRESENTATION_CONTEXT(2) 
PARAMETRIC_REPRESENTATION_CONTEXT() REPRESENTATION_CONTEXT('2D SPACE',''
  ) );
#845 = PCURVE('',#377,#846);
#846 = DEFINITIONAL_REPRESENTATION('',(#847),#851);
#847 = LINE('',#848,#849);
#848 = CARTESIAN_POINT('',(0.,-0.));
#849 = VECTOR('',#850,1.);
#850 = DIRECTION('',(0.,1.));
#851 = ( GEOMETRIC_REPRESENTATION_CONTEXT(2) 
PARAMETRIC_REPRESENTATION_CONTEXT() REPRESENTATION_CONTEXT('2D SPACE',''
  ) );
#852 = ORIENTED_EDGE('',*,*,#279,.T.);
#853 = ORIENTED_EDGE('',*,*,#832,.T.);
#854 = ADVANCED_FACE('',(#855,#909,#912),#457,.F.);
#855 = FACE_BOUND('',#856,.F.);
#856 = EDGE_LOOP('',(#857,#880,#881,#882));
#857 = ORIENTED_EDGE('',*,*,#858,.T.);
#858 = EDGE_CURVE('',#859,#441,#861,.T.);
#859 = VERTEX_POINT('',#860);
#860 = CARTESIAN_POINT('',(6.3,-1.543054966926E-15,4.));
#861 = SEAM_CURVE('',#862,(#866,#873),.PCURVE_S1.);
#862 = LINE('',#863,#864);
#863 = CARTESIAN_POINT('',(6.3,-1.543054966926E-15,4.));
#864 = VECTOR('',#865,1.);
#865 = DIRECTION('',(0.,0.,1.));
#866 = PCURVE('',#457,#867);
#867 = DEFINITIONAL_REPRESENTATION('',(#868),#872);
#868 = LINE('',#869,#870);
#869 = CARTESIAN_POINT('',(6.28318530718,-0.));
#870 = VECTOR('',#871,1.);
#871 = DIRECTION('',(0.,1.));
#872 = ( GEOMETRIC_REPRESENTATION_CONTEXT(2) 
PARAMETRIC_REPRESENTATION_CONTEXT() REPRESENTATION_CONTEXT('2D SPACE',''
  ) );
#873 = PCURVE('',#457,#874);
#874 = DEFINITIONAL_REPRESENTATION('',(#875),#879);
#875 = LINE('',#876,#877);
#876 = CARTESIAN_POINT('',(0.,-0.));
#877 = VECTOR('',#878,1.);
#878 = DIRECTION('',(0.,1.));
#879 = ( GEOMETRIC_REPRESENTATION_CONTEXT(2) 
PARAMETRIC_REPRESENTATION_CONTEXT() REPRESENTATION_CONTEXT('2D SPACE',''
  ) );
#880 = ORIENTED_EDGE('',*,*,#440,.F.);
#881 = ORIENTED_EDGE('',*,*,#858,.F.);
#882 = ORIENTED_EDGE('',*,*,#883,.T.);
#883 = EDGE_CURVE('',#859,#859,#884,.T.);
#884 = SURFACE_CURVE('',#885,(#890,#897),.PCURVE_S1.);
#885 = CIRCLE('',#886,6.3);
#886 = AXIS2_PLACEMENT_3D('',#887,#888,#889);
#887 = CARTESIAN_POINT('',(0.,0.,4.));
#888 = DIRECTION('',(0.,0.,1.));
#889 = DIRECTION('',(1.,0.,-0.));
#890 = PCURVE('',#457,#891);
#891 = DEFINITIONAL_REPRESENTATION('',(#892),#896);
#892 = LINE('',#893,#894);
#893 = CARTESIAN_POINT('',(0.,0.));
#894 = VECTOR('',#895,1.);
#895 = DIRECTION('',(1.,0.));
#896 = ( GEOMETRIC_REPRESENTATION_CONTEXT(2) 
PARAMETRIC_REPRESENTATION_CONTEXT() REPRESENTATION_CONTEXT('2D SPACE',''
  ) );
#897 = PCURVE('',#898,#903);
#898 = PLANE('',#899);
#899 = AXIS2_PLACEMENT_3D('',#900,#901,#902);
#900 = CARTESIAN_POINT('',(0.,0.,4.));
#901 = DIRECTION('',(0.,0.,1.));
#902 = DIRECTION('',(1.,0.,-0.));
#903 = DEFINITIONAL_REPRESENTATION('',(#904),#908);
#904 = CIRCLE('',#905,6.3);
#905 = AXIS2_PLACEMENT_2D('',#906,#907);
#906 = CARTESIAN_POINT('',(0.,0.));
#907 = DIRECTION('',(1.,0.));
#908 = ( GEOMETRIC_REPRESENTATION_CONTEXT(2) 
PARAMETRIC_REPRESENTATION_CONTEXT() REPRESENTATION_CONTEXT('2D SPACE',''
  ) );
#909 = FACE_BOUND('',#910,.F.);
#910 = EDGE_LOOP('',(#911));
#911 = ORIENTED_EDGE('',*,*,#496,.F.);
#912 = FACE_BOUND('',#913,.F.);
#913 = EDGE_LOOP('',(#914));
#914 = ORIENTED_EDGE('',*,*,#665,.T.);
#915 = ADVANCED_FACE('',(#916),#898,.T.);
#916 = FACE_BOUND('',#917,.F.);
#917 = EDGE_LOOP('',(#918));
#918 = ORIENTED_EDGE('',*,*,#883,.F.);
#919 = ( GEOMETRIC_REPRESENTATION_CONTEXT(3) 
GLOBAL_UNCERTAINTY_ASSIGNED_CONTEXT((#923)) GLOBAL_UNIT_ASSIGNED_CONTEXT
((#920,#921,#922)) REPRESENTATION_CONTEXT('Context #1',
  '3D Context with UNIT and UNCERTAINTY') );
#920 = ( LENGTH_UNIT() NAMED_UNIT(*) SI_UNIT(.MILLI.,.METRE.) );
#921 = ( NAMED_UNIT(*) PLANE_ANGLE_UNIT() SI_UNIT($,.RADIAN.) );
#922 = ( NAMED_UNIT(*) SI_UNIT($,.STERADIAN.) SOLID_ANGLE_UNIT() );
#923 = UNCERTAINTY_MEASURE_WITH_UNIT(LENGTH_MEASURE(1.E-07),#920,
  'distance_accuracy_value','confusion accuracy');
#924 = CONTEXT_DEPENDENT_SHAPE_REPRESENTATION(#925,#927);
#925 = ( REPRESENTATION_RELATIONSHIP('','',#32,#10) 
REPRESENTATION_RELATIONSHIP_WITH_TRANSFORMATION(#926) 
SHAPE_REPRESENTATION_RELATIONSHIP() );
#926 = ITEM_DEFINED_TRANSFORMATION('','',#11,#15);
#927 = PRODUCT_DEFINITION_SHAPE('Placement','Placement of an item',#928
  );
#928 = NEXT_ASSEMBLY_USAGE_OCCURRENCE('11','=>[0:1:1:2]','',#5,#27,$);
#929 = PRODUCT_RELATED_PRODUCT_CATEGORY('part',$,(#29));
ENDSEC;
END-ISO-10303-21;
