ISO-10303-21;
HEADER;
FILE_DESCRIPTION(('Open CASCADE Model'),'2;1');
FILE_NAME('Open CASCADE Shape Model','2026-10-02T00:50:37',('Author'),(
    'Open CASCADE'),'Open CASCADE STEP processor 8.0','build123d',
  'Unknown');
FILE_SCHEMA(('AUTOMOTIVE_DESIGN { 1 0 10303 214 1 1 1 1 }'));
ENDSEC;
DATA;
#1 = APPLICATION_PROTOCOL_DEFINITION('international standard',
  'automotive_design',2000,#2);
#2 = APPLICATION_CONTEXT(
  'core data for automotive mechanical design processes');
#3 = SHAPE_DEFINITION_REPRESENTATION(#4,#10);
#4 = PRODUCT_DEFINITION_SHAPE('','',#5);
#5 = PRODUCT_DEFINITION('design','',#6,#9);
#6 = PRODUCT_DEFINITION_FORMATION('','',#7);
#7 = PRODUCT('COMPOUND','COMPOUND','',(#8));
#8 = PRODUCT_CONTEXT('',#2,'mechanical');
#9 = PRODUCT_DEFINITION_CONTEXT('part definition',#2,'design');
#10 = ADVANCED_BREP_SHAPE_REPRESENTATION('',(#11,#15),#1031);
#11 = AXIS2_PLACEMENT_3D('',#12,#13,#14);
#12 = CARTESIAN_POINT('',(0.,0.,0.));
#13 = DIRECTION('',(0.,0.,1.));
#14 = DIRECTION('',(1.,0.,-0.));
#15 = MANIFOLD_SOLID_BREP('',#16);
#16 = CLOSED_SHELL('',(#17,#511,#727,#757,#787,#977));
#17 = ADVANCED_FACE('',(#18,#316),#55,.T.);
#18 = FACE_BOUND('',#19,.T.);
#19 = EDGE_LOOP('',(#20,#124,#147,#174,#175,#265,#288,#315));
#20 = ORIENTED_EDGE('',*,*,#21,.T.);
#21 = EDGE_CURVE('',#22,#24,#26,.T.);
#22 = VERTEX_POINT('',#23);
#23 = CARTESIAN_POINT('',(45.7,-8.082668874373E-15,-33.));
#24 = VERTEX_POINT('',#25);
#25 = CARTESIAN_POINT('',(49.1,-4.249524393041E-15,-33.));
#26 = SURFACE_CURVE('',#27,(#54,#89),.PCURVE_S1.);
#27 = B_SPLINE_CURVE_WITH_KNOTS('',7,(#28,#29,#30,#31,#32,#33,#34,#35,
    #36,#37,#38,#39,#40,#41,#42,#43,#44,#45,#46,#47,#48,#49,#50,#51,#52,
    #53),.UNSPECIFIED.,.F.,.F.,(8,6,6,6,8),(0.,0.257071573603,
    0.500045366939,0.743006513177,1.),.UNSPECIFIED.);
#28 = CARTESIAN_POINT('',(45.7,-2.22044604925E-15,-33.));
#29 = CARTESIAN_POINT('',(45.7,-0.233420972675,-33.));
#30 = CARTESIAN_POINT('',(45.737391583304,-0.460777293982,-32.9980737333
    ));
#31 = CARTESIAN_POINT('',(45.80867966129,-0.675102115123,-32.99440150711
    ));
#32 = CARTESIAN_POINT('',(45.90898034449,-0.870595866348,-32.9895001281)
  );
#33 = CARTESIAN_POINT('',(46.032106675755,-1.042864333766,
    -32.98408535047));
#34 = CARTESIAN_POINT('',(46.170700684003,-1.189356748887,
    -32.97878071567));
#35 = CARTESIAN_POINT('',(46.454068754149,-1.423779203703,
    -32.96946842137));
#36 = CARTESIAN_POINT('',(46.601409563248,-1.517228527772,
    -32.96529640459));
#37 = CARTESIAN_POINT('',(46.755381717588,-1.590930167145,
    -32.96174613122));
#38 = CARTESIAN_POINT('',(46.91378331318,-1.645613440319,-32.95898851163
    ));
#39 = CARTESIAN_POINT('',(47.074923809425,-1.681860292828,
    -32.95711873812));
#40 = CARTESIAN_POINT('',(47.23741936531,-1.7,-32.95618303141));
#41 = CARTESIAN_POINT('',(47.562572172158,-1.7,-32.95618303141));
#42 = CARTESIAN_POINT('',(47.725061551536,-1.681862191693,
    -32.95711864027));
#43 = CARTESIAN_POINT('',(47.886206596397,-1.645618164349,
    -32.95898826681));
#44 = CARTESIAN_POINT('',(48.044622529117,-1.59093240668,-32.9617460328)
  );
#45 = CARTESIAN_POINT('',(48.198608670207,-1.517221123142,
    -32.96529682366));
#46 = CARTESIAN_POINT('',(48.345949865351,-1.423763800313,
    -32.96946903326));
#47 = CARTESIAN_POINT('',(48.62924295138,-1.189403377753,-32.97877886337
    ));
#48 = CARTESIAN_POINT('',(48.767868540232,-1.042909507113,
    -32.98408395389));
#49 = CARTESIAN_POINT('',(48.89104351844,-0.870592804786,-32.98950086004
    ));
#50 = CARTESIAN_POINT('',(48.991367982621,-0.675030262313,-32.9944039678
    ));
#51 = CARTESIAN_POINT('',(49.062642150514,-0.460656825113,
    -32.99807546999));
#52 = CARTESIAN_POINT('',(49.1,-0.233315658432,-33.));
#53 = CARTESIAN_POINT('',(49.1,-4.218847493576E-15,-33.));
#54 = PCURVE('',#55,#60);
#55 = CYLINDRICAL_SURFACE('',#56,33.);
#56 = AXIS2_PLACEMENT_3D('',#57,#58,#59);
#57 = CARTESIAN_POINT('',(39.4,0.,0.));
#58 = DIRECTION('',(1.,0.,2.22044604925E-16));
#59 = DIRECTION('',(2.22044604925E-16,0.,-1.));
#60 = DEFINITIONAL_REPRESENTATION('',(#61),#88);
#61 = B_SPLINE_CURVE_WITH_KNOTS('',7,(#62,#63,#64,#65,#66,#67,#68,#69,
    #70,#71,#72,#73,#74,#75,#76,#77,#78,#79,#80,#81,#82,#83,#84,#85,#86,
    #87),.UNSPECIFIED.,.F.,.F.,(8,6,6,6,8),(0.,0.257071573603,
    0.500045366939,0.743006513177,1.),.UNSPECIFIED.);
#62 = CARTESIAN_POINT('',(6.28318530718,6.3));
#63 = CARTESIAN_POINT('',(6.276111944371,6.3));
#64 = CARTESIAN_POINT('',(6.269222358108,6.337391583304));
#65 = CARTESIAN_POINT('',(6.26272709286,6.40867966129));
#66 = CARTESIAN_POINT('',(6.256801427745,6.50898034449));
#67 = CARTESIAN_POINT('',(6.251578689032,6.632106675755));
#68 = CARTESIAN_POINT('',(6.247136643489,6.770700684003));
#69 = CARTESIAN_POINT('',(6.240027330016,7.054068754149));
#70 = CARTESIAN_POINT('',(6.237192745806,7.201409563248));
#71 = CARTESIAN_POINT('',(6.234956785244,7.355381717588));
#72 = CARTESIAN_POINT('',(6.23329761204,7.51378331318));
#73 = CARTESIAN_POINT('',(6.23219776208,7.674923809425));
#74 = CARTESIAN_POINT('',(6.231647343166,7.83741936531));
#75 = CARTESIAN_POINT('',(6.231647343166,8.162572172158));
#76 = CARTESIAN_POINT('',(6.232197704463,8.325061551536));
#77 = CARTESIAN_POINT('',(6.23329746869,8.486206596397));
#78 = CARTESIAN_POINT('',(6.234956717331,8.644622529117));
#79 = CARTESIAN_POINT('',(6.237192970518,8.798608670207));
#80 = CARTESIAN_POINT('',(6.240027797153,8.945949865351));
#81 = CARTESIAN_POINT('',(6.247135229378,9.22924295138));
#82 = CARTESIAN_POINT('',(6.25157731952,9.367868540232));
#83 = CARTESIAN_POINT('',(6.256801521321,9.49104351844));
#84 = CARTESIAN_POINT('',(6.262729271068,9.591367982621));
#85 = CARTESIAN_POINT('',(6.269226008671,9.662642150514));
#86 = CARTESIAN_POINT('',(6.276115135712,9.7));
#87 = CARTESIAN_POINT('',(6.28318530718,9.7));
#88 = ( GEOMETRIC_REPRESENTATION_CONTEXT(2) 
PARAMETRIC_REPRESENTATION_CONTEXT() REPRESENTATION_CONTEXT('2D SPACE',''
  ) );
#89 = PCURVE('',#90,#95);
#90 = CYLINDRICAL_SURFACE('',#91,1.7);
#91 = AXIS2_PLACEMENT_3D('',#92,#93,#94);
#92 = CARTESIAN_POINT('',(47.4,0.,-34.));
#93 = DIRECTION('',(0.,0.,1.));
#94 = DIRECTION('',(1.,0.,-0.));
#95 = DEFINITIONAL_REPRESENTATION('',(#96),#123);
#96 = B_SPLINE_CURVE_WITH_KNOTS('',7,(#97,#98,#99,#100,#101,#102,#103,
    #104,#105,#106,#107,#108,#109,#110,#111,#112,#113,#114,#115,#116,
    #117,#118,#119,#120,#121,#122),.UNSPECIFIED.,.F.,.F.,(8,6,6,6,8),(0.
    ,0.257071573603,0.500045366939,0.743006513177,1.),.UNSPECIFIED.);
#97 = CARTESIAN_POINT('',(3.14159265359,1.));
#98 = CARTESIAN_POINT('',(3.278899108104,1.));
#99 = CARTESIAN_POINT('',(3.412638055243,1.001926266695));
#100 = CARTESIAN_POINT('',(3.542939754368,1.005598492888));
#101 = CARTESIAN_POINT('',(3.669632415277,1.010499871893));
#102 = CARTESIAN_POINT('',(3.792277845692,1.015914649523));
#103 = CARTESIAN_POINT('',(3.910022785889,1.021219284325));
#104 = CARTESIAN_POINT('',(4.126355342984,1.030531578628));
#105 = CARTESIAN_POINT('',(4.228175931216,1.034703595409));
#106 = CARTESIAN_POINT('',(4.327494208793,1.038253868773));
#107 = CARTESIAN_POINT('',(4.424950171485,1.041011488365));
#108 = CARTESIAN_POINT('',(4.521167778389,1.042881261873));
#109 = CARTESIAN_POINT('',(4.61675331292,1.043816968587));
#110 = CARTESIAN_POINT('',(4.808019669889,1.043816968587));
#111 = CARTESIAN_POINT('',(4.903601571339,1.042881359729));
#112 = CARTESIAN_POINT('',(4.999821618738,1.041011733185));
#113 = CARTESIAN_POINT('',(5.097285583416,1.038253967193));
#114 = CARTESIAN_POINT('',(5.196613075135,1.034703176335));
#115 = CARTESIAN_POINT('',(5.298436832527,1.030530966737));
#116 = CARTESIAN_POINT('',(5.514712144268,1.021221136629));
#117 = CARTESIAN_POINT('',(5.63247195862,1.015916046105));
#118 = CARTESIAN_POINT('',(5.755154831759,1.010499139957));
#119 = CARTESIAN_POINT('',(5.881886123836,1.005596032197));
#120 = CARTESIAN_POINT('',(6.012210782962,1.001924530005));
#121 = CARTESIAN_POINT('',(6.145940802219,1.));
#122 = CARTESIAN_POINT('',(6.28318530718,1.));
#123 = ( GEOMETRIC_REPRESENTATION_CONTEXT(2) 
PARAMETRIC_REPRESENTATION_CONTEXT() REPRESENTATION_CONTEXT('2D SPACE',''
  ) );
#124 = ORIENTED_EDGE('',*,*,#125,.T.);
#125 = EDGE_CURVE('',#24,#126,#128,.T.);
#126 = VERTEX_POINT('',#127);
#127 = CARTESIAN_POINT('',(55.4,-8.082668874373E-15,-33.));
#128 = SEAM_CURVE('',#129,(#133,#140),.PCURVE_S1.);
#129 = LINE('',#130,#131);
#130 = CARTESIAN_POINT('',(39.4,-8.082668874373E-15,-33.));
#131 = VECTOR('',#132,1.);
#132 = DIRECTION('',(1.,0.,2.22044604925E-16));
#133 = PCURVE('',#55,#134);
#134 = DEFINITIONAL_REPRESENTATION('',(#135),#139);
#135 = LINE('',#136,#137);
#136 = CARTESIAN_POINT('',(0.,-0.));
#137 = VECTOR('',#138,1.);
#138 = DIRECTION('',(0.,1.));
#139 = ( GEOMETRIC_REPRESENTATION_CONTEXT(2) 
PARAMETRIC_REPRESENTATION_CONTEXT() REPRESENTATION_CONTEXT('2D SPACE',''
  ) );
#140 = PCURVE('',#55,#141);
#141 = DEFINITIONAL_REPRESENTATION('',(#142),#146);
#142 = LINE('',#143,#144);
#143 = CARTESIAN_POINT('',(6.28318530718,-0.));
#144 = VECTOR('',#145,1.);
#145 = DIRECTION('',(0.,1.));
#146 = ( GEOMETRIC_REPRESENTATION_CONTEXT(2) 
PARAMETRIC_REPRESENTATION_CONTEXT() REPRESENTATION_CONTEXT('2D SPACE',''
  ) );
#147 = ORIENTED_EDGE('',*,*,#148,.F.);
#148 = EDGE_CURVE('',#126,#126,#149,.T.);
#149 = SURFACE_CURVE('',#150,(#155,#162),.PCURVE_S1.);
#150 = CIRCLE('',#151,33.);
#151 = AXIS2_PLACEMENT_3D('',#152,#153,#154);
#152 = CARTESIAN_POINT('',(55.4,0.,3.552713678801E-15));
#153 = DIRECTION('',(1.,-0.,2.22044604925E-16));
#154 = DIRECTION('',(2.22044604925E-16,0.,-1.));
#155 = PCURVE('',#55,#156);
#156 = DEFINITIONAL_REPRESENTATION('',(#157),#161);
#157 = LINE('',#158,#159);
#158 = CARTESIAN_POINT('',(0.,16.));
#159 = VECTOR('',#160,1.);
#160 = DIRECTION('',(1.,0.));
#161 = ( GEOMETRIC_REPRESENTATION_CONTEXT(2) 
PARAMETRIC_REPRESENTATION_CONTEXT() REPRESENTATION_CONTEXT('2D SPACE',''
  ) );
#162 = PCURVE('',#163,#168);
#163 = PLANE('',#164);
#164 = AXIS2_PLACEMENT_3D('',#165,#166,#167);
#165 = CARTESIAN_POINT('',(55.4,0.,3.552713678801E-15));
#166 = DIRECTION('',(1.,0.,2.22044604925E-16));
#167 = DIRECTION('',(2.22044604925E-16,0.,-1.));
#168 = DEFINITIONAL_REPRESENTATION('',(#169),#173);
#169 = CIRCLE('',#170,33.);
#170 = AXIS2_PLACEMENT_2D('',#171,#172);
#171 = CARTESIAN_POINT('',(0.,0.));
#172 = DIRECTION('',(1.,0.));
#173 = ( GEOMETRIC_REPRESENTATION_CONTEXT(2) 
PARAMETRIC_REPRESENTATION_CONTEXT() REPRESENTATION_CONTEXT('2D SPACE',''
  ) );
#174 = ORIENTED_EDGE('',*,*,#125,.F.);
#175 = ORIENTED_EDGE('',*,*,#176,.T.);
#176 = EDGE_CURVE('',#24,#22,#177,.T.);
#177 = SURFACE_CURVE('',#178,(#205,#235),.PCURVE_S1.);
#178 = B_SPLINE_CURVE_WITH_KNOTS('',7,(#179,#180,#181,#182,#183,#184,
    #185,#186,#187,#188,#189,#190,#191,#192,#193,#194,#195,#196,#197,
    #198,#199,#200,#201,#202,#203,#204),.UNSPECIFIED.,.F.,.F.,(8,6,6,6,8
    ),(0.,0.257094240235,0.500016780796,0.742964488927,1.),
  .UNSPECIFIED.);
#179 = CARTESIAN_POINT('',(49.1,-2.081899558551E-16,-33.));
#180 = CARTESIAN_POINT('',(49.1,0.233420972675,-33.));
#181 = CARTESIAN_POINT('',(49.062608416696,0.460777293981,-32.9980737333
    ));
#182 = CARTESIAN_POINT('',(48.99132033871,0.675102115124,-32.99440150711
    ));
#183 = CARTESIAN_POINT('',(48.891019655511,0.870595866347,-32.9895001281
    ));
#184 = CARTESIAN_POINT('',(48.767893324244,1.042864333767,
    -32.98408535047));
#185 = CARTESIAN_POINT('',(48.629299315997,1.189356748887,
    -32.97878071567));
#186 = CARTESIAN_POINT('',(48.345972426809,1.423745135851,
    -32.96946977469));
#187 = CARTESIAN_POINT('',(48.198634011974,1.517209489775,
    -32.96529743638));
#188 = CARTESIAN_POINT('',(48.044633754214,1.590932417131,
    -32.96174606212));
#189 = CARTESIAN_POINT('',(47.886199022098,1.645623631135,
    -32.95898798246));
#190 = CARTESIAN_POINT('',(47.725042456286,1.681865927387,
    -32.95711844832));
#191 = CARTESIAN_POINT('',(47.562555330894,1.7,-32.95618303141));
#192 = CARTESIAN_POINT('',(47.237427827842,1.7,-32.95618303141));
#193 = CARTESIAN_POINT('',(47.074938448463,1.681862191693,
    -32.95711864027));
#194 = CARTESIAN_POINT('',(46.913793403603,1.645618164349,
    -32.95898826681));
#195 = CARTESIAN_POINT('',(46.755377470883,1.59093240668,-32.9617460328)
  );
#196 = CARTESIAN_POINT('',(46.601391329794,1.517221123142,
    -32.96529682366));
#197 = CARTESIAN_POINT('',(46.45405013465,1.423763800313,-32.96946903326
    ));
#198 = CARTESIAN_POINT('',(46.17072518002,1.189377013754,-32.97877991066
    ));
#199 = CARTESIAN_POINT('',(46.032120691034,1.04288666315,-32.98408463798
    ));
#200 = CARTESIAN_POINT('',(45.908973179674,0.870599702675,
    -32.98950027547));
#201 = CARTESIAN_POINT('',(45.808659496417,0.675075112349,
    -32.99440254343));
#202 = CARTESIAN_POINT('',(45.737375745367,0.460724517122,
    -32.99807455004));
#203 = CARTESIAN_POINT('',(45.7,0.233371546745,-33.));
#204 = CARTESIAN_POINT('',(45.7,1.822188247273E-15,-33.));
#205 = PCURVE('',#55,#206);
#206 = DEFINITIONAL_REPRESENTATION('',(#207),#234);
#207 = B_SPLINE_CURVE_WITH_KNOTS('',7,(#208,#209,#210,#211,#212,#213,
    #214,#215,#216,#217,#218,#219,#220,#221,#222,#223,#224,#225,#226,
    #227,#228,#229,#230,#231,#232,#233),.UNSPECIFIED.,.F.,.F.,(8,6,6,6,8
    ),(0.,0.257094240235,0.500016780796,0.742964488927,1.),
  .UNSPECIFIED.);
#208 = CARTESIAN_POINT('',(0.,9.7));
#209 = CARTESIAN_POINT('',(7.073362808327E-03,9.7));
#210 = CARTESIAN_POINT('',(1.396294907168E-02,9.662608416696));
#211 = CARTESIAN_POINT('',(2.045821431918E-02,9.591320338709));
#212 = CARTESIAN_POINT('',(2.638387943411E-02,9.491019655511));
#213 = CARTESIAN_POINT('',(3.160661814804E-02,9.367893324244));
#214 = CARTESIAN_POINT('',(3.604866369077E-02,9.229299315997));
#215 = CARTESIAN_POINT('',(4.315694399058E-02,8.945972426809));
#216 = CARTESIAN_POINT('',(4.59919836749E-02,8.798634011974));
#217 = CARTESIAN_POINT('',(4.822859010361E-02,8.644633754214));
#218 = CARTESIAN_POINT('',(4.988800438139E-02,8.486199022098));
#219 = CARTESIAN_POINT('',(5.098771606631E-02,8.325042456286));
#220 = CARTESIAN_POINT('',(5.153796401324E-02,8.162555330894));
#221 = CARTESIAN_POINT('',(5.153796401324E-02,7.837427827842));
#222 = CARTESIAN_POINT('',(5.098760271617E-02,7.674938448463));
#223 = CARTESIAN_POINT('',(4.988783848952E-02,7.513793403603));
#224 = CARTESIAN_POINT('',(4.822858984905E-02,7.355377470883));
#225 = CARTESIAN_POINT('',(4.599233666152E-02,7.201391329794));
#226 = CARTESIAN_POINT('',(4.315751002641E-02,7.05405013465));
#227 = CARTESIAN_POINT('',(3.604927826199E-02,6.77072518002));
#228 = CARTESIAN_POINT('',(3.160729513606E-02,6.632120691034));
#229 = CARTESIAN_POINT('',(2.638399539882E-02,6.508973179674));
#230 = CARTESIAN_POINT('',(2.045739566572E-02,6.408659496417));
#231 = CARTESIAN_POINT('',(1.396134977101E-02,6.337375745367));
#232 = CARTESIAN_POINT('',(7.071865052867E-03,6.3));
#233 = CARTESIAN_POINT('',(0.,6.3));
#234 = ( GEOMETRIC_REPRESENTATION_CONTEXT(2) 
PARAMETRIC_REPRESENTATION_CONTEXT() REPRESENTATION_CONTEXT('2D SPACE',''
  ) );
#235 = PCURVE('',#90,#236);
#236 = DEFINITIONAL_REPRESENTATION('',(#237),#264);
#237 = B_SPLINE_CURVE_WITH_KNOTS('',7,(#238,#239,#240,#241,#242,#243,
    #244,#245,#246,#247,#248,#249,#250,#251,#252,#253,#254,#255,#256,
    #257,#258,#259,#260,#261,#262,#263),.UNSPECIFIED.,.F.,.F.,(8,6,6,6,8
    ),(0.,0.257094240235,0.500016780796,0.742964488927,1.),
  .UNSPECIFIED.);
#238 = CARTESIAN_POINT('',(0.,1.));
#239 = CARTESIAN_POINT('',(0.137306454515,1.));
#240 = CARTESIAN_POINT('',(0.271045401653,1.001926266695));
#241 = CARTESIAN_POINT('',(0.401347100778,1.005598492888));
#242 = CARTESIAN_POINT('',(0.528039761687,1.010499871893));
#243 = CARTESIAN_POINT('',(0.650685192103,1.015914649523));
#244 = CARTESIAN_POINT('',(0.768430132299,1.021219284325));
#245 = CARTESIAN_POINT('',(0.984731250489,1.030530225302));
#246 = CARTESIAN_POINT('',(1.086556383727,1.03470256362));
#247 = CARTESIAN_POINT('',(1.185893711781,1.038253937879));
#248 = CARTESIAN_POINT('',(1.283368615857,1.041012017532));
#249 = CARTESIAN_POINT('',(1.37959495694,1.042881551674));
#250 = CARTESIAN_POINT('',(1.475175543916,1.043816968587));
#251 = CARTESIAN_POINT('',(1.6664270163,1.043816968587));
#252 = CARTESIAN_POINT('',(1.762008917749,1.042881359729));
#253 = CARTESIAN_POINT('',(1.858228965148,1.041011733185));
#254 = CARTESIAN_POINT('',(1.955692929827,1.038253967193));
#255 = CARTESIAN_POINT('',(2.055020421544,1.034703176335));
#256 = CARTESIAN_POINT('',(2.156844178937,1.030530966737));
#257 = CARTESIAN_POINT('',(2.373143820221,1.021220089335));
#258 = CARTESIAN_POINT('',(2.490892740719,1.015915362019));
#259 = CARTESIAN_POINT('',(2.613553544881,1.010499724526));
#260 = CARTESIAN_POINT('',(2.740264083874,1.005597456561));
#261 = CARTESIAN_POINT('',(2.870578305278,1.001925449955));
#262 = CARTESIAN_POINT('',(3.004315273152,1.));
#263 = CARTESIAN_POINT('',(3.14159265359,1.));
#264 = ( GEOMETRIC_REPRESENTATION_CONTEXT(2) 
PARAMETRIC_REPRESENTATION_CONTEXT() REPRESENTATION_CONTEXT('2D SPACE',''
  ) );
#265 = ORIENTED_EDGE('',*,*,#266,.F.);
#266 = EDGE_CURVE('',#267,#22,#269,.T.);
#267 = VERTEX_POINT('',#268);
#268 = CARTESIAN_POINT('',(39.4,-8.082668874373E-15,-33.));
#269 = SEAM_CURVE('',#270,(#274,#281),.PCURVE_S1.);
#270 = LINE('',#271,#272);
#271 = CARTESIAN_POINT('',(39.4,-8.082668874373E-15,-33.));
#272 = VECTOR('',#273,1.);
#273 = DIRECTION('',(1.,0.,2.22044604925E-16));
#274 = PCURVE('',#55,#275);
#275 = DEFINITIONAL_REPRESENTATION('',(#276),#280);
#276 = LINE('',#277,#278);
#277 = CARTESIAN_POINT('',(6.28318530718,-0.));
#278 = VECTOR('',#279,1.);
#279 = DIRECTION('',(0.,1.));
#280 = ( GEOMETRIC_REPRESENTATION_CONTEXT(2) 
PARAMETRIC_REPRESENTATION_CONTEXT() REPRESENTATION_CONTEXT('2D SPACE',''
  ) );
#281 = PCURVE('',#55,#282);
#282 = DEFINITIONAL_REPRESENTATION('',(#283),#287);
#283 = LINE('',#284,#285);
#284 = CARTESIAN_POINT('',(0.,-0.));
#285 = VECTOR('',#286,1.);
#286 = DIRECTION('',(0.,1.));
#287 = ( GEOMETRIC_REPRESENTATION_CONTEXT(2) 
PARAMETRIC_REPRESENTATION_CONTEXT() REPRESENTATION_CONTEXT('2D SPACE',''
  ) );
#288 = ORIENTED_EDGE('',*,*,#289,.T.);
#289 = EDGE_CURVE('',#267,#267,#290,.T.);
#290 = SURFACE_CURVE('',#291,(#296,#303),.PCURVE_S1.);
#291 = CIRCLE('',#292,33.);
#292 = AXIS2_PLACEMENT_3D('',#293,#294,#295);
#293 = CARTESIAN_POINT('',(39.4,0.,0.));
#294 = DIRECTION('',(1.,-0.,2.22044604925E-16));
#295 = DIRECTION('',(2.22044604925E-16,0.,-1.));
#296 = PCURVE('',#55,#297);
#297 = DEFINITIONAL_REPRESENTATION('',(#298),#302);
#298 = LINE('',#299,#300);
#299 = CARTESIAN_POINT('',(0.,0.));
#300 = VECTOR('',#301,1.);
#301 = DIRECTION('',(1.,0.));
#302 = ( GEOMETRIC_REPRESENTATION_CONTEXT(2) 
PARAMETRIC_REPRESENTATION_CONTEXT() REPRESENTATION_CONTEXT('2D SPACE',''
  ) );
#303 = PCURVE('',#304,#309);
#304 = PLANE('',#305);
#305 = AXIS2_PLACEMENT_3D('',#306,#307,#308);
#306 = CARTESIAN_POINT('',(39.4,0.,0.));
#307 = DIRECTION('',(1.,0.,2.22044604925E-16));
#308 = DIRECTION('',(2.22044604925E-16,0.,-1.));
#309 = DEFINITIONAL_REPRESENTATION('',(#310),#314);
#310 = CIRCLE('',#311,33.);
#311 = AXIS2_PLACEMENT_2D('',#312,#313);
#312 = CARTESIAN_POINT('',(0.,0.));
#313 = DIRECTION('',(1.,0.));
#314 = ( GEOMETRIC_REPRESENTATION_CONTEXT(2) 
PARAMETRIC_REPRESENTATION_CONTEXT() REPRESENTATION_CONTEXT('2D SPACE',''
  ) );
#315 = ORIENTED_EDGE('',*,*,#266,.T.);
#316 = FACE_BOUND('',#317,.T.);
#317 = EDGE_LOOP('',(#318));
#318 = ORIENTED_EDGE('',*,*,#319,.F.);
#319 = EDGE_CURVE('',#320,#320,#322,.T.);
#320 = VERTEX_POINT('',#321);
#321 = CARTESIAN_POINT('',(49.1,-4.163799117101E-16,33.));
#322 = SURFACE_CURVE('',#323,(#382,#444),.PCURVE_S1.);
#323 = B_SPLINE_CURVE_WITH_KNOTS('',8,(#324,#325,#326,#327,#328,#329,
    #330,#331,#332,#333,#334,#335,#336,#337,#338,#339,#340,#341,#342,
    #343,#344,#345,#346,#347,#348,#349,#350,#351,#352,#353,#354,#355,
    #356,#357,#358,#359,#360,#361,#362,#363,#364,#365,#366,#367,#368,
    #369,#370,#371,#372,#373,#374,#375,#376,#377,#378,#379,#380,#381),
  .UNSPECIFIED.,.T.,.F.,(9,7,7,7,7,7,7,7,9),(0.,0.127924876633,
    0.2487982031,0.369684050746,0.464337824014,0.583618013965,
    0.660839750735,0.813597962703,1.),.UNSPECIFIED.);
#324 = CARTESIAN_POINT('',(49.1,1.7763568394E-15,33.));
#325 = CARTESIAN_POINT('',(49.1,0.20424335109,33.));
#326 = CARTESIAN_POINT('',(49.071956312522,0.403938213655,
    32.998555299979));
#327 = CARTESIAN_POINT('',(49.018053367954,0.594730307195,
    32.995778591934));
#328 = CARTESIAN_POINT('',(48.94116999711,0.772848990735,32.991950817609
    ));
#329 = CARTESIAN_POINT('',(48.844847281286,0.93519654163,32.987469586495
    ));
#330 = CARTESIAN_POINT('',(48.733244822182,1.079487437547,
    32.982759191776));
#331 = CARTESIAN_POINT('',(48.611089499319,1.204421219366,
    32.978182288435));
#332 = CARTESIAN_POINT('',(48.363178471279,1.40951105796,32.97003521508)
  );
#333 = CARTESIAN_POINT('',(48.235468615682,1.493843401294,
    32.966340520959));
#334 = CARTESIAN_POINT('',(48.102383850873,1.563286319373,
    32.963077827468));
#335 = CARTESIAN_POINT('',(47.965416388156,1.618278024133,
    32.960367022294));
#336 = CARTESIAN_POINT('',(47.825765309919,1.659214492229,
    32.958286907165));
#337 = CARTESIAN_POINT('',(47.684420674938,1.68639944554,32.956884594098
    ));
#338 = CARTESIAN_POINT('',(47.542235914533,1.7,32.956183031413));
#339 = CARTESIAN_POINT('',(47.257749351354,1.7,32.956183031413));
#340 = CARTESIAN_POINT('',(47.115560789654,1.686396644182,
    32.956884738043));
#341 = CARTESIAN_POINT('',(46.974222795882,1.65920967316,32.958287156917
    ));
#342 = CARTESIAN_POINT('',(46.834585440349,1.618275286707,
    32.960367149762));
#343 = CARTESIAN_POINT('',(46.697632667529,1.563290676781,
    32.963077579323));
#344 = CARTESIAN_POINT('',(46.564556028018,1.493856789451,
    32.966339876185));
#345 = CARTESIAN_POINT('',(46.436841271855,1.409527390901,
    32.970034566263));
#346 = CARTESIAN_POINT('',(46.222057274792,1.231842615687,
    32.977092989575));
#347 = CARTESIAN_POINT('',(46.131624209235,1.143954968062,
    32.980372901954));
#348 = CARTESIAN_POINT('',(46.046553702262,1.046201219433,
    32.983740033741));
#349 = CARTESIAN_POINT('',(45.968321290164,0.938767428835,
    32.987076976117));
#350 = CARTESIAN_POINT('',(45.898404251197,0.822031028207,
    32.990246763296));
#351 = CARTESIAN_POINT('',(45.838283875263,0.696564410717,32.99310128426
    ));
#352 = CARTESIAN_POINT('',(45.789450116119,0.563145143986,
    32.995493255505));
#353 = CARTESIAN_POINT('',(45.707990090407,0.245879290882,
    32.999558176246));
#354 = CARTESIAN_POINT('',(45.683610160611,6.076297544075E-02,
    33.000845752944));
#355 = CARTESIAN_POINT('',(45.682670749417,-0.127951504758,
    33.000920720374));
#356 = CARTESIAN_POINT('',(45.705825214871,-0.315144607692,
    32.999684245819));
#357 = CARTESIAN_POINT('',(45.752031720908,-0.49569400354,
    32.997254617203));
#358 = CARTESIAN_POINT('',(45.818596698835,-0.664930332587,
    32.993935125856));
#359 = CARTESIAN_POINT('',(45.901208711728,-0.819057916884,
    32.990116513811));
#360 = CARTESIAN_POINT('',(46.054011964541,-1.043901075509,
    32.983603266893));
#361 = CARTESIAN_POINT('',(46.119117023407,-1.126049853424,
    32.980952846699));
#362 = CARTESIAN_POINT('',(46.188564473561,-1.201963158407,
    32.978278890883));
#363 = CARTESIAN_POINT('',(46.261720346977,-1.271662045386,
    32.975641118157));
#364 = CARTESIAN_POINT('',(46.338020765479,-1.335201831793,
    32.973090957376));
#365 = CARTESIAN_POINT('',(46.416962984105,-1.392661586342,
    32.970671421526));
#366 = CARTESIAN_POINT('',(46.498097146744,-1.444134816704,
    32.968417569053));
#367 = CARTESIAN_POINT('',(46.745052314938,-1.579899569301,
    32.962282476602));
#368 = CARTESIAN_POINT('',(46.916358244171,-1.647196121647,
    32.958958913923));
#369 = CARTESIAN_POINT('',(47.092241909628,-1.692460692339,
    32.956599171686));
#370 = CARTESIAN_POINT('',(47.270636354739,-1.716315610274,
    32.955322236184));
#371 = CARTESIAN_POINT('',(47.449838239342,-1.719113760095,
    32.955177673926));
#372 = CARTESIAN_POINT('',(47.628282962007,-1.70087947977,
    32.956161397631));
#373 = CARTESIAN_POINT('',(47.804308120171,-1.661257791433,
    32.95821666732));
#374 = CARTESIAN_POINT('',(48.18518257612,-1.524134549743,
    32.964870798987));
#375 = CARTESIAN_POINT('',(48.394835543966,-1.413288169861,
    32.970052481117));
#376 = CARTESIAN_POINT('',(48.595099605544,-1.263597086535,
    32.976596095242));
#377 = CARTESIAN_POINT('',(48.775963508219,-1.074528671142,
    32.983941165571));
#378 = CARTESIAN_POINT('',(48.927264414612,-0.847966632122,
    32.991101943665));
#379 = CARTESIAN_POINT('',(49.038732889022,-0.588184380855,
    32.996843733423));
#380 = CARTESIAN_POINT('',(49.1,-0.301887874754,33.));
#381 = CARTESIAN_POINT('',(49.1,1.7763568394E-15,33.));
#382 = PCURVE('',#55,#383);
#383 = DEFINITIONAL_REPRESENTATION('',(#384),#443);
#384 = B_SPLINE_CURVE_WITH_KNOTS('',8,(#385,#386,#387,#388,#389,#390,
    #391,#392,#393,#394,#395,#396,#397,#398,#399,#400,#401,#402,#403,
    #404,#405,#406,#407,#408,#409,#410,#411,#412,#413,#414,#415,#416,
    #417,#418,#419,#420,#421,#422,#423,#424,#425,#426,#427,#428,#429,
    #430,#431,#432,#433,#434,#435,#436,#437,#438,#439,#440,#441,#442),
  .UNSPECIFIED.,.T.,.F.,(9,7,7,7,7,7,7,7,9),(0.,0.127924876633,
    0.2487982031,0.369684050746,0.464337824014,0.583618013965,
    0.660839750735,0.813597962703,1.),.UNSPECIFIED.);
#385 = CARTESIAN_POINT('',(3.14159265359,9.7));
#386 = CARTESIAN_POINT('',(3.135403461133,9.7));
#387 = CARTESIAN_POINT('',(3.129352101084,9.671956312522));
#388 = CARTESIAN_POINT('',(3.123570163738,9.618053367954));
#389 = CARTESIAN_POINT('',(3.118171606713,9.54116999711));
#390 = CARTESIAN_POINT('',(3.113250247138,9.444847281286));
#391 = CARTESIAN_POINT('',(3.108875524056,9.333244822182));
#392 = CARTESIAN_POINT('',(3.105087130751,9.211089499319));
#393 = CARTESIAN_POINT('',(3.098867385489,8.963178471279));
#394 = CARTESIAN_POINT('',(3.096309429836,8.835468615682));
#395 = CARTESIAN_POINT('',(3.094202790897,8.702383850873));
#396 = CARTESIAN_POINT('',(3.092534356347,8.565416388156));
#397 = CARTESIAN_POINT('',(3.091292257327,8.425765309919));
#398 = CARTESIAN_POINT('',(3.090467375537,8.284420674938));
#399 = CARTESIAN_POINT('',(3.090054689577,8.142235914533));
#400 = CARTESIAN_POINT('',(3.090054689577,7.857749351354));
#401 = CARTESIAN_POINT('',(3.090467460537,7.715560789654));
#402 = CARTESIAN_POINT('',(3.091292403559,7.574222795882));
#403 = CARTESIAN_POINT('',(3.092534439384,7.434585440349));
#404 = CARTESIAN_POINT('',(3.094202658643,7.297632667529));
#405 = CARTESIAN_POINT('',(3.096309023678,7.164556028018));
#406 = CARTESIAN_POINT('',(3.098866890161,7.036841271855));
#407 = CARTESIAN_POINT('',(3.104255523973,6.822057274792));
#408 = CARTESIAN_POINT('',(3.106920631948,6.731624209235));
#409 = CARTESIAN_POINT('',(3.109884603422,6.646553702262));
#410 = CARTESIAN_POINT('',(3.113141702424,6.568321290164));
#411 = CARTESIAN_POINT('',(3.116680411948,6.498404251197));
#412 = CARTESIAN_POINT('',(3.120483345098,6.438283875264));
#413 = CARTESIAN_POINT('',(3.124526949627,6.389450116119));
#414 = CARTESIAN_POINT('',(3.134141855464,6.307990090407));
#415 = CARTESIAN_POINT('',(3.139751481145,6.283610160611));
#416 = CARTESIAN_POINT('',(3.145469893009,6.282670749417));
#417 = CARTESIAN_POINT('',(3.151142266327,6.305825214871));
#418 = CARTESIAN_POINT('',(3.156613731565,6.352031720908));
#419 = CARTESIAN_POINT('',(3.16174297907,6.418596698835));
#420 = CARTESIAN_POINT('',(3.166414903343,6.501208711728));
#421 = CARTESIAN_POINT('',(3.173231190511,6.654011964541));
#422 = CARTESIAN_POINT('',(3.175721829203,6.719117023407));
#423 = CARTESIAN_POINT('',(3.178023643407,6.788564473561));
#424 = CARTESIAN_POINT('',(3.180137230332,6.861720346977));
#425 = CARTESIAN_POINT('',(3.182064220464,6.938020765479));
#426 = CARTESIAN_POINT('',(3.183806963973,7.016962984105));
#427 = CARTESIAN_POINT('',(3.18536825186,7.098097146744));
#428 = CARTESIAN_POINT('',(3.189486533729,7.345052314938));
#429 = CARTESIAN_POINT('',(3.191528290888,7.516358244171));
#430 = CARTESIAN_POINT('',(3.192901804842,7.692241909628));
#431 = CARTESIAN_POINT('',(3.193625719202,7.870636354739));
#432 = CARTESIAN_POINT('',(3.193710623116,8.049838239342));
#433 = CARTESIAN_POINT('',(3.193157264391,8.228282962007));
#434 = CARTESIAN_POINT('',(3.191954999461,8.404308120171));
#435 = CARTESIAN_POINT('',(3.187794860124,8.78518257612));
#436 = CARTESIAN_POINT('',(3.184432215854,8.994835543967));
#437 = CARTESIAN_POINT('',(3.179891826189,9.195099605543));
#438 = CARTESIAN_POINT('',(3.17415829461,9.37596350822));
#439 = CARTESIAN_POINT('',(3.167289776791,9.527264414611));
#440 = CARTESIAN_POINT('',(3.159416423074,9.638732889022));
#441 = CARTESIAN_POINT('',(3.150740771007,9.7));
#442 = CARTESIAN_POINT('',(3.14159265359,9.7));
#443 = ( GEOMETRIC_REPRESENTATION_CONTEXT(2) 
PARAMETRIC_REPRESENTATION_CONTEXT() REPRESENTATION_CONTEXT('2D SPACE',''
  ) );
#444 = PCURVE('',#445,#450);
#445 = CYLINDRICAL_SURFACE('',#446,1.7);
#446 = AXIS2_PLACEMENT_3D('',#447,#448,#449);
#447 = CARTESIAN_POINT('',(47.4,0.,29.));
#448 = DIRECTION('',(0.,0.,1.));
#449 = DIRECTION('',(1.,0.,-0.));
#450 = DEFINITIONAL_REPRESENTATION('',(#451),#510);
#451 = B_SPLINE_CURVE_WITH_KNOTS('',8,(#452,#453,#454,#455,#456,#457,
    #458,#459,#460,#461,#462,#463,#464,#465,#466,#467,#468,#469,#470,
    #471,#472,#473,#474,#475,#476,#477,#478,#479,#480,#481,#482,#483,
    #484,#485,#486,#487,#488,#489,#490,#491,#492,#493,#494,#495,#496,
    #497,#498,#499,#500,#501,#502,#503,#504,#505,#506,#507,#508,#509),
  .UNSPECIFIED.,.F.,.F.,(9,7,7,7,7,7,7,7,9),(0.,0.127924876633,
    0.2487982031,0.369684050746,0.464337824014,0.583618013965,
    0.660839750735,0.813597962703,1.),.UNSPECIFIED.);
#452 = CARTESIAN_POINT('',(0.,4.));
#453 = CARTESIAN_POINT('',(0.1201431477,4.));
#454 = CARTESIAN_POINT('',(0.237610664868,3.998555299979));
#455 = CARTESIAN_POINT('',(0.352483963606,3.995778591934));
#456 = CARTESIAN_POINT('',(0.464693431232,3.991950817609));
#457 = CARTESIAN_POINT('',(0.574031798093,3.987469586495));
#458 = CARTESIAN_POINT('',(0.680121427152,3.982759191776));
#459 = CARTESIAN_POINT('',(0.782332108637,3.978182288435));
#460 = CARTESIAN_POINT('',(0.971595587054,3.97003521508));
#461 = CARTESIAN_POINT('',(1.061100100418,3.966340520959));
#462 = CARTESIAN_POINT('',(1.148642213761,3.963077827468));
#463 = CARTESIAN_POINT('',(1.234631163819,3.960367022294));
#464 = CARTESIAN_POINT('',(1.319453493762,3.958286907165));
#465 = CARTESIAN_POINT('',(1.403490103684,3.956884594098));
#466 = CARTESIAN_POINT('',(1.487128141775,3.956183031413));
#467 = CARTESIAN_POINT('',(1.65447317894,3.956183031413));
#468 = CARTESIAN_POINT('',(1.738113444419,3.956884738043));
#469 = CARTESIAN_POINT('',(1.822146447429,3.958287156917));
#470 = CARTESIAN_POINT('',(1.906960945435,3.960367149762));
#471 = CARTESIAN_POINT('',(1.992940739173,3.963077579323));
#472 = CARTESIAN_POINT('',(2.080476363266,3.966339876185));
#473 = CARTESIAN_POINT('',(2.169981993974,3.970034566263));
#474 = CARTESIAN_POINT('',(2.333955201273,3.977092989575));
#475 = CARTESIAN_POINT('',(2.40789753738,3.980372901954));
#476 = CARTESIAN_POINT('',(2.483676865633,3.983740033741));
#477 = CARTESIAN_POINT('',(2.561253374545,3.987076976117));
#478 = CARTESIAN_POINT('',(2.640631157333,3.990246763296));
#479 = CARTESIAN_POINT('',(2.721854698703,3.99310128426));
#480 = CARTESIAN_POINT('',(2.805014985514,3.995493255505));
#481 = CARTESIAN_POINT('',(2.997695366408,3.999558176246));
#482 = CARTESIAN_POINT('',(3.106732384508,4.000845752944));
#483 = CARTESIAN_POINT('',(3.216281477307,4.000920720374));
#484 = CARTESIAN_POINT('',(3.325452316794,3.999684245819));
#485 = CARTESIAN_POINT('',(3.433387290608,3.997254617203));
#486 = CARTESIAN_POINT('',(3.539124557204,3.993935125856));
#487 = CARTESIAN_POINT('',(3.641425388509,3.990116513811));
#488 = CARTESIAN_POINT('',(3.801338081006,3.983603266893));
#489 = CARTESIAN_POINT('',(3.862831167685,3.980952846699));
#490 = CARTESIAN_POINT('',(3.923104250898,3.978278890883));
#491 = CARTESIAN_POINT('',(3.982268571354,3.975641118157));
#492 = CARTESIAN_POINT('',(4.04042374825,3.973090957376));
#493 = CARTESIAN_POINT('',(4.097662278022,3.970671421526));
#494 = CARTESIAN_POINT('',(4.154071660979,3.968417569053));
#495 = CARTESIAN_POINT('',(4.319844385648,3.962282476602));
#496 = CARTESIAN_POINT('',(4.427219093123,3.958958913923));
#497 = CARTESIAN_POINT('',(4.532743654461,3.956599171686));
#498 = CARTESIAN_POINT('',(4.637142192257,3.955322236184));
#499 = CARTESIAN_POINT('',(4.741121010639,3.955177673926));
#500 = CARTESIAN_POINT('',(4.845396500887,3.956161397631));
#501 = CARTESIAN_POINT('',(4.95071401095,3.95821666732));
#502 = CARTESIAN_POINT('',(5.188835359594,3.964870798987));
#503 = CARTESIAN_POINT('',(5.326957671334,3.970052481117));
#504 = CARTESIAN_POINT('',(5.47103307759,3.976596095242));
#505 = CARTESIAN_POINT('',(5.62065784335,3.983941165571));
#506 = CARTESIAN_POINT('',(5.775853857231,3.991101943665));
#507 = CARTESIAN_POINT('',(5.937193490472,3.996843733423));
#508 = CARTESIAN_POINT('',(6.105604204383,4.));
#509 = CARTESIAN_POINT('',(6.28318530718,4.));
#510 = ( GEOMETRIC_REPRESENTATION_CONTEXT(2) 
PARAMETRIC_REPRESENTATION_CONTEXT() REPRESENTATION_CONTEXT('2D SPACE',''
  ) );
#511 = ADVANCED_FACE('',(#512),#90,.F.);
#512 = FACE_BOUND('',#513,.F.);
#513 = EDGE_LOOP('',(#514,#613,#634,#635,#636,#637));
#514 = ORIENTED_EDGE('',*,*,#515,.F.);
#515 = EDGE_CURVE('',#516,#518,#520,.T.);
#516 = VERTEX_POINT('',#517);
#517 = CARTESIAN_POINT('',(49.1,-3.882130353297E-15,-30.));
#518 = VERTEX_POINT('',#519);
#519 = CARTESIAN_POINT('',(45.7,-7.347880794884E-15,-30.));
#520 = SURFACE_CURVE('',#521,(#548,#578),.PCURVE_S1.);
#521 = B_SPLINE_CURVE_WITH_KNOTS('',7,(#522,#523,#524,#525,#526,#527,
    #528,#529,#530,#531,#532,#533,#534,#535,#536,#537,#538,#539,#540,
    #541,#542,#543,#544,#545,#546,#547),.UNSPECIFIED.,.F.,.F.,(8,6,6,6,8
    ),(0.,0.257097589201,0.500017133574,0.742959020181,1.),
  .UNSPECIFIED.);
#522 = CARTESIAN_POINT('',(49.1,-2.081899558551E-16,-30.));
#523 = CARTESIAN_POINT('',(49.1,0.233430663212,-30.));
#524 = CARTESIAN_POINT('',(49.06260531385,0.46078869632,-29.99788092936)
  );
#525 = CARTESIAN_POINT('',(48.991315762273,0.675110349206,
    -29.99384140457));
#526 = CARTESIAN_POINT('',(48.891016118555,0.870599883005,
    -29.98844981199));
#527 = CARTESIAN_POINT('',(48.767891943449,1.042865363513,
    -29.98249311952));
#528 = CARTESIAN_POINT('',(48.629299578382,1.189356531823,
    -29.97665730003));
#529 = CARTESIAN_POINT('',(48.34597566963,1.423742453156,-29.96641367526
    ));
#530 = CARTESIAN_POINT('',(48.198642885731,1.51720348871,-29.96182334374
    ));
#531 = CARTESIAN_POINT('',(48.044648340708,1.590925575825,
    -29.95791598296));
#532 = CARTESIAN_POINT('',(47.886216275368,1.64561871454,-29.9548811916)
  );
#533 = CARTESIAN_POINT('',(47.725057575786,1.681864003985,
    -29.95282395937));
#534 = CARTESIAN_POINT('',(47.562563951502,1.7,-29.95179460399));
#535 = CARTESIAN_POINT('',(47.237421096873,1.7,-29.95179460399));
#536 = CARTESIAN_POINT('',(47.074925474259,1.681860689518,
    -29.95282414668));
#537 = CARTESIAN_POINT('',(46.913776937481,1.645613856764,
    -29.95488146983));
#538 = CARTESIAN_POINT('',(46.755361463909,1.590925528807,
    -29.95791595617));
#539 = CARTESIAN_POINT('',(46.601379367225,1.517213704121,
    -29.96182275182));
#540 = CARTESIAN_POINT('',(46.454044137289,1.423758838865,
    -29.96641295913));
#541 = CARTESIAN_POINT('',(46.170724936141,1.189376812,-29.9766564137));
#542 = CARTESIAN_POINT('',(46.03212208508,1.042887712074,-29.982492335)
  );
#543 = CARTESIAN_POINT('',(45.908976709783,0.870603722628,
    -29.98844997439));
#544 = CARTESIAN_POINT('',(45.808664053557,0.675083320694,-29.9938425456
    ));
#545 = CARTESIAN_POINT('',(45.737378834838,0.460735871176,
    -29.99788182855));
#546 = CARTESIAN_POINT('',(45.7,0.233381197687,-30.));
#547 = CARTESIAN_POINT('',(45.7,1.822188247273E-15,-30.));
#548 = PCURVE('',#90,#549);
#549 = DEFINITIONAL_REPRESENTATION('',(#550),#577);
#550 = B_SPLINE_CURVE_WITH_KNOTS('',7,(#551,#552,#553,#554,#555,#556,
    #557,#558,#559,#560,#561,#562,#563,#564,#565,#566,#567,#568,#569,
    #570,#571,#572,#573,#574,#575,#576),.UNSPECIFIED.,.F.,.F.,(8,6,6,6,8
    ),(0.,0.257097589201,0.500017133574,0.742959020181,1.),
  .UNSPECIFIED.);
#551 = CARTESIAN_POINT('',(0.,4.));
#552 = CARTESIAN_POINT('',(0.137312154831,4.));
#553 = CARTESIAN_POINT('',(0.27105210918,4.002119070633));
#554 = CARTESIAN_POINT('',(0.401352469057,4.006158595421));
#555 = CARTESIAN_POINT('',(0.528042856651,4.011550188007));
#556 = CARTESIAN_POINT('',(0.650686204648,4.017506880476));
#557 = CARTESIAN_POINT('',(0.768429931985,4.023342699967));
#558 = CARTESIAN_POINT('',(0.984728774812,4.03358632474));
#559 = CARTESIAN_POINT('',(1.086550112373,4.038176656259));
#560 = CARTESIAN_POINT('',(1.185884397957,4.042084017038));
#561 = CARTESIAN_POINT('',(1.283358236858,4.045118808393));
#562 = CARTESIAN_POINT('',(1.379586063747,4.047176040623));
#563 = CARTESIAN_POINT('',(1.47517047297,4.048205396003));
#564 = CARTESIAN_POINT('',(1.666430975693,4.048205396003));
#565 = CARTESIAN_POINT('',(1.762016549358,4.047175853313));
#566 = CARTESIAN_POINT('',(1.858238829783,4.04511853017));
#567 = CARTESIAN_POINT('',(1.95570301302,4.042084043822));
#568 = CARTESIAN_POINT('',(2.05502862498,4.038177248172));
#569 = CARTESIAN_POINT('',(2.15684875752,4.033587040863));
#570 = CARTESIAN_POINT('',(2.373144006407,4.023343586294));
#571 = CARTESIAN_POINT('',(2.490891714958,4.017507664996));
#572 = CARTESIAN_POINT('',(2.613550450976,4.011550025604));
#573 = CARTESIAN_POINT('',(2.740258733054,4.006157454391));
#574 = CARTESIAN_POINT('',(2.870571626171,4.002118171444));
#575 = CARTESIAN_POINT('',(3.004309596127,4.));
#576 = CARTESIAN_POINT('',(3.14159265359,4.));
#577 = ( GEOMETRIC_REPRESENTATION_CONTEXT(2) 
PARAMETRIC_REPRESENTATION_CONTEXT() REPRESENTATION_CONTEXT('2D SPACE',''
  ) );
#578 = PCURVE('',#579,#584);
#579 = CYLINDRICAL_SURFACE('',#580,30.);
#580 = AXIS2_PLACEMENT_3D('',#581,#582,#583);
#581 = CARTESIAN_POINT('',(38.4,0.,0.));
#582 = DIRECTION('',(1.,0.,2.22044604925E-16));
#583 = DIRECTION('',(2.22044604925E-16,0.,-1.));
#584 = DEFINITIONAL_REPRESENTATION('',(#585),#612);
#585 = B_SPLINE_CURVE_WITH_KNOTS('',7,(#586,#587,#588,#589,#590,#591,
    #592,#593,#594,#595,#596,#597,#598,#599,#600,#601,#602,#603,#604,
    #605,#606,#607,#608,#609,#610,#611),.UNSPECIFIED.,.F.,.F.,(8,6,6,6,8
    ),(0.,0.257097589201,0.500017133574,0.742959020181,1.),
  .UNSPECIFIED.);
#586 = CARTESIAN_POINT('',(0.,10.7));
#587 = CARTESIAN_POINT('',(7.781022107071E-03,10.7));
#588 = CARTESIAN_POINT('',(1.535962423184E-02,10.66260531385));
#589 = CARTESIAN_POINT('',(2.250444303218E-02,10.591315762273));
#590 = CARTESIAN_POINT('',(2.902290643757E-02,10.491016118555));
#591 = CARTESIAN_POINT('',(3.476839314689E-02,10.367891943449));
#592 = CARTESIAN_POINT('',(3.965526800469E-02,10.229299578382));
#593 = CARTESIAN_POINT('',(4.747558996224E-02,9.94597566963));
#594 = CARTESIAN_POINT('',(5.059466765736E-02,9.798642885731));
#595 = CARTESIAN_POINT('',(5.305550341831E-02,9.644648340708));
#596 = CARTESIAN_POINT('',(5.488141067206E-02,9.486216275368));
#597 = CARTESIAN_POINT('',(5.609153160085E-02,9.325057575786));
#598 = CARTESIAN_POINT('',(5.669703773385E-02,9.162563951502));
#599 = CARTESIAN_POINT('',(5.669703773385E-02,8.837421096873));
#600 = CARTESIAN_POINT('',(5.609142094483E-02,8.674925474259));
#601 = CARTESIAN_POINT('',(5.488124847152E-02,8.513776937481));
#602 = CARTESIAN_POINT('',(5.305550192303E-02,8.355361463909));
#603 = CARTESIAN_POINT('',(5.059500870906E-02,8.201379367225));
#604 = CARTESIAN_POINT('',(4.747613667392E-02,8.054044137289));
#605 = CARTESIAN_POINT('',(3.965594465589E-02,7.770724936141));
#606 = CARTESIAN_POINT('',(3.476913855195E-02,7.632122085079));
#607 = CARTESIAN_POINT('',(2.902303404178E-02,7.508976709783));
#608 = CARTESIAN_POINT('',(2.250354156539E-02,7.408664053557));
#609 = CARTESIAN_POINT('',(1.53578633912E-02,7.337378834838));
#610 = CARTESIAN_POINT('',(7.779373256223E-03,7.3));
#611 = CARTESIAN_POINT('',(0.,7.3));
#612 = ( GEOMETRIC_REPRESENTATION_CONTEXT(2) 
PARAMETRIC_REPRESENTATION_CONTEXT() REPRESENTATION_CONTEXT('2D SPACE',''
  ) );
#613 = ORIENTED_EDGE('',*,*,#614,.F.);
#614 = EDGE_CURVE('',#24,#516,#615,.T.);
#615 = SEAM_CURVE('',#616,(#620,#627),.PCURVE_S1.);
#616 = LINE('',#617,#618);
#617 = CARTESIAN_POINT('',(49.1,-4.163799117101E-16,-34.));
#618 = VECTOR('',#619,1.);
#619 = DIRECTION('',(0.,0.,1.));
#620 = PCURVE('',#90,#621);
#621 = DEFINITIONAL_REPRESENTATION('',(#622),#626);
#622 = LINE('',#623,#624);
#623 = CARTESIAN_POINT('',(6.28318530718,-0.));
#624 = VECTOR('',#625,1.);
#625 = DIRECTION('',(0.,1.));
#626 = ( GEOMETRIC_REPRESENTATION_CONTEXT(2) 
PARAMETRIC_REPRESENTATION_CONTEXT() REPRESENTATION_CONTEXT('2D SPACE',''
  ) );
#627 = PCURVE('',#90,#628);
#628 = DEFINITIONAL_REPRESENTATION('',(#629),#633);
#629 = LINE('',#630,#631);
#630 = CARTESIAN_POINT('',(0.,-0.));
#631 = VECTOR('',#632,1.);
#632 = DIRECTION('',(0.,1.));
#633 = ( GEOMETRIC_REPRESENTATION_CONTEXT(2) 
PARAMETRIC_REPRESENTATION_CONTEXT() REPRESENTATION_CONTEXT('2D SPACE',''
  ) );
#634 = ORIENTED_EDGE('',*,*,#176,.T.);
#635 = ORIENTED_EDGE('',*,*,#21,.T.);
#636 = ORIENTED_EDGE('',*,*,#614,.T.);
#637 = ORIENTED_EDGE('',*,*,#638,.F.);
#638 = EDGE_CURVE('',#518,#516,#639,.T.);
#639 = SURFACE_CURVE('',#640,(#667,#697),.PCURVE_S1.);
#640 = B_SPLINE_CURVE_WITH_KNOTS('',7,(#641,#642,#643,#644,#645,#646,
    #647,#648,#649,#650,#651,#652,#653,#654,#655,#656,#657,#658,#659,
    #660,#661,#662,#663,#664,#665,#666),.UNSPECIFIED.,.F.,.F.,(8,6,6,6,8
    ),(0.,0.257078703675,0.500045388033,0.743000903631,1.),
  .UNSPECIFIED.);
#641 = CARTESIAN_POINT('',(45.7,-1.7763568394E-15,-30.));
#642 = CARTESIAN_POINT('',(45.7,-0.233430663212,-30.));
#643 = CARTESIAN_POINT('',(45.737394686151,-0.46078869632,
    -29.99788092936));
#644 = CARTESIAN_POINT('',(45.808684237726,-0.675110349206,
    -29.99384140457));
#645 = CARTESIAN_POINT('',(45.908983881445,-0.870599883004,
    -29.98844981199));
#646 = CARTESIAN_POINT('',(46.032108056551,-1.042865363513,
    -29.98249311952));
#647 = CARTESIAN_POINT('',(46.170700421618,-1.189356531823,
    -29.97665730003));
#648 = CARTESIAN_POINT('',(46.454061154877,-1.423772917038,
    -29.96641234386));
#649 = CARTESIAN_POINT('',(46.601396028919,-1.517220470158,
    -29.96182233043));
#650 = CARTESIAN_POINT('',(46.755365360081,-1.590923494347,
    -29.95791605472));
#651 = CARTESIAN_POINT('',(46.913767795053,-1.645609586501,
    -29.95488171337));
#652 = CARTESIAN_POINT('',(47.074912295689,-1.681859011652,
    -29.95282424183));
#653 = CARTESIAN_POINT('',(47.237413625375,-1.7,-29.95179460399));
#654 = CARTESIAN_POINT('',(47.562578900809,-1.7,-29.95179460399));
#655 = CARTESIAN_POINT('',(47.725074531473,-1.681860690077,
    -29.95282414666));
#656 = CARTESIAN_POINT('',(47.886223058341,-1.64561385408,
    -29.95488146994));
#657 = CARTESIAN_POINT('',(48.04463853395,-1.590925533914,
    -29.95791595595));
#658 = CARTESIAN_POINT('',(48.198620637547,-1.517213699481,
    -29.96182275203));
#659 = CARTESIAN_POINT('',(48.345955860552,-1.423758840651,
    -29.96641295905));
#660 = CARTESIAN_POINT('',(48.629243163172,-1.189403202543,
    -29.97665526033));
#661 = CARTESIAN_POINT('',(48.767867143231,-1.042910572472,
    -29.98249158199));
#662 = CARTESIAN_POINT('',(48.891040007445,-0.870596809555,
    -29.98845061849));
#663 = CARTESIAN_POINT('',(48.991363448537,-0.675038427505,
    -29.99384411367));
#664 = CARTESIAN_POINT('',(49.062639080025,-0.460668119573,
    -29.99788284158));
#665 = CARTESIAN_POINT('',(49.1,-0.233325252137,-30.));
#666 = CARTESIAN_POINT('',(49.1,-3.774758283726E-15,-30.));
#667 = PCURVE('',#90,#668);
#668 = DEFINITIONAL_REPRESENTATION('',(#669),#696);
#669 = B_SPLINE_CURVE_WITH_KNOTS('',7,(#670,#671,#672,#673,#674,#675,
    #676,#677,#678,#679,#680,#681,#682,#683,#684,#685,#686,#687,#688,
    #689,#690,#691,#692,#693,#694,#695),.UNSPECIFIED.,.F.,.F.,(8,6,6,6,8
    ),(0.,0.257078703675,0.500045388033,0.743000903631,1.),
  .UNSPECIFIED.);
#670 = CARTESIAN_POINT('',(3.14159265359,4.));
#671 = CARTESIAN_POINT('',(3.278904808421,4.));
#672 = CARTESIAN_POINT('',(3.412644762769,4.002119070633));
#673 = CARTESIAN_POINT('',(3.542945122646,4.006158595421));
#674 = CARTESIAN_POINT('',(3.669635510241,4.011550188007));
#675 = CARTESIAN_POINT('',(3.792278858238,4.017506880476));
#676 = CARTESIAN_POINT('',(3.910022585575,4.023342699967));
#677 = CARTESIAN_POINT('',(4.126349541449,4.033587656137));
#678 = CARTESIAN_POINT('',(4.228166775599,4.038177669565));
#679 = CARTESIAN_POINT('',(4.327483979009,4.042083945278));
#680 = CARTESIAN_POINT('',(4.424940892102,4.045118286628));
#681 = CARTESIAN_POINT('',(4.521161005528,4.047175758167));
#682 = CARTESIAN_POINT('',(4.616749936488,4.048205396003));
#683 = CARTESIAN_POINT('',(4.808023627919,4.048205396003));
#684 = CARTESIAN_POINT('',(4.90360920616,4.047175853333));
#685 = CARTESIAN_POINT('',(4.999831481537,4.045118530058));
#686 = CARTESIAN_POINT('',(5.097295664272,4.042084044045));
#687 = CARTESIAN_POINT('',(5.196621282336,4.038177247967));
#688 = CARTESIAN_POINT('',(5.298441409462,4.033587040941));
#689 = CARTESIAN_POINT('',(5.514712305957,4.023344739669));
#690 = CARTESIAN_POINT('',(5.632470925435,4.017508418004));
#691 = CARTESIAN_POINT('',(5.755151750417,4.011549381502));
#692 = CARTESIAN_POINT('',(5.881880801503,4.006155886325));
#693 = CARTESIAN_POINT('',(6.012204138956,4.002117158412));
#694 = CARTESIAN_POINT('',(6.145935158864,4.));
#695 = CARTESIAN_POINT('',(6.28318530718,4.));
#696 = ( GEOMETRIC_REPRESENTATION_CONTEXT(2) 
PARAMETRIC_REPRESENTATION_CONTEXT() REPRESENTATION_CONTEXT('2D SPACE',''
  ) );
#697 = PCURVE('',#579,#698);
#698 = DEFINITIONAL_REPRESENTATION('',(#699),#726);
#699 = B_SPLINE_CURVE_WITH_KNOTS('',7,(#700,#701,#702,#703,#704,#705,
    #706,#707,#708,#709,#710,#711,#712,#713,#714,#715,#716,#717,#718,
    #719,#720,#721,#722,#723,#724,#725),.UNSPECIFIED.,.F.,.F.,(8,6,6,6,8
    ),(0.,0.257078703675,0.500045388033,0.743000903631,1.),
  .UNSPECIFIED.);
#700 = CARTESIAN_POINT('',(6.28318530718,7.3));
#701 = CARTESIAN_POINT('',(6.275404285073,7.3));
#702 = CARTESIAN_POINT('',(6.267825682948,7.337394686151));
#703 = CARTESIAN_POINT('',(6.260680864147,7.408684237726));
#704 = CARTESIAN_POINT('',(6.254162400742,7.508983881445));
#705 = CARTESIAN_POINT('',(6.248416914033,7.632108056551));
#706 = CARTESIAN_POINT('',(6.243530039175,7.770700421618));
#707 = CARTESIAN_POINT('',(6.235708700785,8.054061154877));
#708 = CARTESIAN_POINT('',(6.232590072535,8.201396028919));
#709 = CARTESIAN_POINT('',(6.230129873131,8.355365360081));
#710 = CARTESIAN_POINT('',(6.228304201289,8.513767795053));
#711 = CARTESIAN_POINT('',(6.227093942252,8.674912295689));
#712 = CARTESIAN_POINT('',(6.226488269446,8.837413625375));
#713 = CARTESIAN_POINT('',(6.226488269446,9.162578900809));
#714 = CARTESIAN_POINT('',(6.227093886216,9.325074531473));
#715 = CARTESIAN_POINT('',(6.228304058798,9.486223058341));
#716 = CARTESIAN_POINT('',(6.230129805086,9.64463853395));
#717 = CARTESIAN_POINT('',(6.232590298625,9.798620637547));
#718 = CARTESIAN_POINT('',(6.235709170446,9.945955860552));
#719 = CARTESIAN_POINT('',(6.243528481999,10.229243163172));
#720 = CARTESIAN_POINT('',(6.248415406239,10.367867143231));
#721 = CARTESIAN_POINT('',(6.254162504258,10.491040007445));
#722 = CARTESIAN_POINT('',(6.260683262669,10.591363448537));
#723 = CARTESIAN_POINT('',(6.267829702161,10.662639080025));
#724 = CARTESIAN_POINT('',(6.275407798775,10.7));
#725 = CARTESIAN_POINT('',(6.28318530718,10.7));
#726 = ( GEOMETRIC_REPRESENTATION_CONTEXT(2) 
PARAMETRIC_REPRESENTATION_CONTEXT() REPRESENTATION_CONTEXT('2D SPACE',''
  ) );
#727 = ADVANCED_FACE('',(#728,#731),#304,.F.);
#728 = FACE_BOUND('',#729,.F.);
#729 = EDGE_LOOP('',(#730));
#730 = ORIENTED_EDGE('',*,*,#289,.T.);
#731 = FACE_BOUND('',#732,.F.);
#732 = EDGE_LOOP('',(#733));
#733 = ORIENTED_EDGE('',*,*,#734,.F.);
#734 = EDGE_CURVE('',#735,#735,#737,.T.);
#735 = VERTEX_POINT('',#736);
#736 = CARTESIAN_POINT('',(39.4,-7.347880794884E-15,-30.));
#737 = SURFACE_CURVE('',#738,(#743,#750),.PCURVE_S1.);
#738 = CIRCLE('',#739,30.);
#739 = AXIS2_PLACEMENT_3D('',#740,#741,#742);
#740 = CARTESIAN_POINT('',(39.4,0.,2.22044604925E-16));
#741 = DIRECTION('',(1.,0.,2.22044604925E-16));
#742 = DIRECTION('',(2.22044604925E-16,0.,-1.));
#743 = PCURVE('',#304,#744);
#744 = DEFINITIONAL_REPRESENTATION('',(#745),#749);
#745 = CIRCLE('',#746,30.);
#746 = AXIS2_PLACEMENT_2D('',#747,#748);
#747 = CARTESIAN_POINT('',(-2.22044604925E-16,0.));
#748 = DIRECTION('',(1.,0.));
#749 = ( GEOMETRIC_REPRESENTATION_CONTEXT(2) 
PARAMETRIC_REPRESENTATION_CONTEXT() REPRESENTATION_CONTEXT('2D SPACE',''
  ) );
#750 = PCURVE('',#579,#751);
#751 = DEFINITIONAL_REPRESENTATION('',(#752),#756);
#752 = LINE('',#753,#754);
#753 = CARTESIAN_POINT('',(0.,1.));
#754 = VECTOR('',#755,1.);
#755 = DIRECTION('',(1.,0.));
#756 = ( GEOMETRIC_REPRESENTATION_CONTEXT(2) 
PARAMETRIC_REPRESENTATION_CONTEXT() REPRESENTATION_CONTEXT('2D SPACE',''
  ) );
#757 = ADVANCED_FACE('',(#758,#761),#163,.T.);
#758 = FACE_BOUND('',#759,.T.);
#759 = EDGE_LOOP('',(#760));
#760 = ORIENTED_EDGE('',*,*,#148,.T.);
#761 = FACE_BOUND('',#762,.T.);
#762 = EDGE_LOOP('',(#763));
#763 = ORIENTED_EDGE('',*,*,#764,.F.);
#764 = EDGE_CURVE('',#765,#765,#767,.T.);
#765 = VERTEX_POINT('',#766);
#766 = CARTESIAN_POINT('',(55.4,-7.347880794884E-15,-30.));
#767 = SURFACE_CURVE('',#768,(#773,#780),.PCURVE_S1.);
#768 = CIRCLE('',#769,30.);
#769 = AXIS2_PLACEMENT_3D('',#770,#771,#772);
#770 = CARTESIAN_POINT('',(55.4,0.,3.774758283726E-15));
#771 = DIRECTION('',(1.,0.,2.22044604925E-16));
#772 = DIRECTION('',(2.22044604925E-16,0.,-1.));
#773 = PCURVE('',#163,#774);
#774 = DEFINITIONAL_REPRESENTATION('',(#775),#779);
#775 = CIRCLE('',#776,30.);
#776 = AXIS2_PLACEMENT_2D('',#777,#778);
#777 = CARTESIAN_POINT('',(-2.22044604925E-16,0.));
#778 = DIRECTION('',(1.,0.));
#779 = ( GEOMETRIC_REPRESENTATION_CONTEXT(2) 
PARAMETRIC_REPRESENTATION_CONTEXT() REPRESENTATION_CONTEXT('2D SPACE',''
  ) );
#780 = PCURVE('',#579,#781);
#781 = DEFINITIONAL_REPRESENTATION('',(#782),#786);
#782 = LINE('',#783,#784);
#783 = CARTESIAN_POINT('',(0.,17.));
#784 = VECTOR('',#785,1.);
#785 = DIRECTION('',(1.,0.));
#786 = ( GEOMETRIC_REPRESENTATION_CONTEXT(2) 
PARAMETRIC_REPRESENTATION_CONTEXT() REPRESENTATION_CONTEXT('2D SPACE',''
  ) );
#787 = ADVANCED_FACE('',(#788),#445,.F.);
#788 = FACE_BOUND('',#789,.F.);
#789 = EDGE_LOOP('',(#790,#791,#814,#976));
#790 = ORIENTED_EDGE('',*,*,#319,.F.);
#791 = ORIENTED_EDGE('',*,*,#792,.F.);
#792 = EDGE_CURVE('',#793,#320,#795,.T.);
#793 = VERTEX_POINT('',#794);
#794 = CARTESIAN_POINT('',(49.1,-4.163799117101E-16,30.));
#795 = SEAM_CURVE('',#796,(#800,#807),.PCURVE_S1.);
#796 = LINE('',#797,#798);
#797 = CARTESIAN_POINT('',(49.1,-4.163799117101E-16,29.));
#798 = VECTOR('',#799,1.);
#799 = DIRECTION('',(0.,0.,1.));
#800 = PCURVE('',#445,#801);
#801 = DEFINITIONAL_REPRESENTATION('',(#802),#806);
#802 = LINE('',#803,#804);
#803 = CARTESIAN_POINT('',(6.28318530718,-0.));
#804 = VECTOR('',#805,1.);
#805 = DIRECTION('',(0.,1.));
#806 = ( GEOMETRIC_REPRESENTATION_CONTEXT(2) 
PARAMETRIC_REPRESENTATION_CONTEXT() REPRESENTATION_CONTEXT('2D SPACE',''
  ) );
#807 = PCURVE('',#445,#808);
#808 = DEFINITIONAL_REPRESENTATION('',(#809),#813);
#809 = LINE('',#810,#811);
#810 = CARTESIAN_POINT('',(0.,-0.));
#811 = VECTOR('',#812,1.);
#812 = DIRECTION('',(0.,1.));
#813 = ( GEOMETRIC_REPRESENTATION_CONTEXT(2) 
PARAMETRIC_REPRESENTATION_CONTEXT() REPRESENTATION_CONTEXT('2D SPACE',''
  ) );
#814 = ORIENTED_EDGE('',*,*,#815,.T.);
#815 = EDGE_CURVE('',#793,#793,#816,.T.);
#816 = SURFACE_CURVE('',#817,(#868,#922),.PCURVE_S1.);
#817 = B_SPLINE_CURVE_WITH_KNOTS('',7,(#818,#819,#820,#821,#822,#823,
    #824,#825,#826,#827,#828,#829,#830,#831,#832,#833,#834,#835,#836,
    #837,#838,#839,#840,#841,#842,#843,#844,#845,#846,#847,#848,#849,
    #850,#851,#852,#853,#854,#855,#856,#857,#858,#859,#860,#861,#862,
    #863,#864,#865,#866,#867),.UNSPECIFIED.,.T.,.F.,(8,6,6,6,6,6,6,6,8),
  (0.,0.127714565786,0.248386114001,0.369068760835,0.463569047976,
    0.582655192285,0.687380115224,0.840078220277,1.),.UNSPECIFIED.);
#818 = CARTESIAN_POINT('',(49.1,1.554312234475E-15,30.));
#819 = CARTESIAN_POINT('',(49.1,0.233430663212,30.));
#820 = CARTESIAN_POINT('',(49.06260531385,0.46078869632,29.997880929367)
  );
#821 = CARTESIAN_POINT('',(48.991315762273,0.675110349206,
    29.993841404579));
#822 = CARTESIAN_POINT('',(48.891016118555,0.870599883005,
    29.988449811993));
#823 = CARTESIAN_POINT('',(48.767891943449,1.042865363513,
    29.982493119524));
#824 = CARTESIAN_POINT('',(48.629299578382,1.189356531823,
    29.976657300033));
#825 = CARTESIAN_POINT('',(48.345975669629,1.423742453157,29.96641367526
    ));
#826 = CARTESIAN_POINT('',(48.19864288573,1.51720348871,29.961823343741)
  );
#827 = CARTESIAN_POINT('',(48.044648340707,1.590925575825,
    29.957915982962));
#828 = CARTESIAN_POINT('',(47.88621627537,1.64561871454,29.954881191607)
  );
#829 = CARTESIAN_POINT('',(47.725057575786,1.681864003984,
    29.952823959377));
#830 = CARTESIAN_POINT('',(47.562563951503,1.7,29.951794603997));
#831 = CARTESIAN_POINT('',(47.237421096873,1.7,29.951794603997));
#832 = CARTESIAN_POINT('',(47.074925474259,1.681860689518,
    29.952824146687));
#833 = CARTESIAN_POINT('',(46.913776937481,1.645613856764,29.95488146983
    ));
#834 = CARTESIAN_POINT('',(46.755361463909,1.590925528806,
    29.957915956178));
#835 = CARTESIAN_POINT('',(46.601379367225,1.517213704121,
    29.961822751828));
#836 = CARTESIAN_POINT('',(46.454044137289,1.423758838865,
    29.966412959137));
#837 = CARTESIAN_POINT('',(46.208580997904,1.220694069881,
    29.975287721265));
#838 = CARTESIAN_POINT('',(46.105970159113,1.118373234131,
    29.979449383517));
#839 = CARTESIAN_POINT('',(46.010903206497,1.002896599012,
    29.983711525604));
#840 = CARTESIAN_POINT('',(45.925740683744,0.874639095618,
    29.987856773662));
#841 = CARTESIAN_POINT('',(45.852846957268,0.734355948093,29.99162833445
    ));
#842 = CARTESIAN_POINT('',(45.794599635941,0.58320119952,29.994759854714
    ));
#843 = CARTESIAN_POINT('',(45.701501074338,0.220606241913,
    29.999870205137));
#844 = CARTESIAN_POINT('',(45.677645703209,7.47566671123E-03,
    30.001283752433));
#845 = CARTESIAN_POINT('',(45.685685895775,-0.209218531023,
    30.000850176852));
#846 = CARTESIAN_POINT('',(45.72596687188,-0.421087126732,
    29.998455053667));
#847 = CARTESIAN_POINT('',(45.795479929445,-0.620063085973,
    29.994521508573));
#848 = CARTESIAN_POINT('',(45.887962905412,-0.799567304768,
    29.989748996223));
#849 = CARTESIAN_POINT('',(46.087180033042,-1.092706406221,
    29.980407368169));
#850 = CARTESIAN_POINT('',(46.192764388475,-1.214488877534,
    29.975793524404));
#851 = CARTESIAN_POINT('',(46.307854983908,-1.320883811567,
    29.97123338595));
#852 = CARTESIAN_POINT('',(46.430193947089,-1.412175222892,
    29.966961840239));
#853 = CARTESIAN_POINT('',(46.557965814483,-1.48877096183,
    29.963150379227));
#854 = CARTESIAN_POINT('',(46.689686996852,-1.551089254606,
    29.959914421508));
#855 = CARTESIAN_POINT('',(47.020197855281,-1.670080485479,
    29.953561179925));
#856 = CARTESIAN_POINT('',(47.222219405634,-1.711144611693,
    29.951174101035));
#857 = CARTESIAN_POINT('',(47.426928195249,-1.723897509692,
    29.950396827812));
#858 = CARTESIAN_POINT('',(47.631813982518,-1.708736098485,
    29.95129793997));
#859 = CARTESIAN_POINT('',(47.83436336276,-1.665329937556,
    29.953843757724));
#860 = CARTESIAN_POINT('',(48.031521148059,-1.592778417003,
    29.957865476801));
#861 = CARTESIAN_POINT('',(48.415309500833,-1.381788984609,
    29.968355600459));
#862 = CARTESIAN_POINT('',(48.60806875258,-1.236509116861,
    29.975123981997));
#863 = CARTESIAN_POINT('',(48.784544486275,-1.051484029313,
    29.982847765795));
#864 = CARTESIAN_POINT('',(48.932644240153,-0.828531767145,
    29.990516929899));
#865 = CARTESIAN_POINT('',(49.04114835327,-0.572961489106,
    29.996664995986));
#866 = CARTESIAN_POINT('',(49.1,-0.292840808681,30.));
#867 = CARTESIAN_POINT('',(49.1,1.554312234475E-15,30.));
#868 = PCURVE('',#445,#869);
#869 = DEFINITIONAL_REPRESENTATION('',(#870),#921);
#870 = B_SPLINE_CURVE_WITH_KNOTS('',7,(#871,#872,#873,#874,#875,#876,
    #877,#878,#879,#880,#881,#882,#883,#884,#885,#886,#887,#888,#889,
    #890,#891,#892,#893,#894,#895,#896,#897,#898,#899,#900,#901,#902,
    #903,#904,#905,#906,#907,#908,#909,#910,#911,#912,#913,#914,#915,
    #916,#917,#918,#919,#920),.UNSPECIFIED.,.F.,.F.,(8,6,6,6,6,6,6,6,8),
  (0.,0.127714565786,0.248386114001,0.369068760835,0.463569047976,
    0.582655192285,0.687380115224,0.840078220277,1.),.UNSPECIFIED.);
#871 = CARTESIAN_POINT('',(0.,1.));
#872 = CARTESIAN_POINT('',(0.137312154831,1.));
#873 = CARTESIAN_POINT('',(0.271052109179,0.997880929367));
#874 = CARTESIAN_POINT('',(0.401352469056,0.993841404579));
#875 = CARTESIAN_POINT('',(0.528042856652,0.988449811993));
#876 = CARTESIAN_POINT('',(0.650686204648,0.982493119524));
#877 = CARTESIAN_POINT('',(0.768429931985,0.976657300033));
#878 = CARTESIAN_POINT('',(0.984728774813,0.96641367526));
#879 = CARTESIAN_POINT('',(1.086550112373,0.961823343741));
#880 = CARTESIAN_POINT('',(1.185884397958,0.957915982962));
#881 = CARTESIAN_POINT('',(1.283358236857,0.954881191607));
#882 = CARTESIAN_POINT('',(1.379586063747,0.952823959377));
#883 = CARTESIAN_POINT('',(1.475170472969,0.951794603997));
#884 = CARTESIAN_POINT('',(1.666430975693,0.951794603997));
#885 = CARTESIAN_POINT('',(1.762016549358,0.952824146687));
#886 = CARTESIAN_POINT('',(1.858238829783,0.95488146983));
#887 = CARTESIAN_POINT('',(1.955703013021,0.957915956178));
#888 = CARTESIAN_POINT('',(2.05502862498,0.961822751828));
#889 = CARTESIAN_POINT('',(2.15684875752,0.966412959137));
#890 = CARTESIAN_POINT('',(2.344243436775,0.975287721265));
#891 = CARTESIAN_POINT('',(2.429117144451,0.979449383517));
#892 = CARTESIAN_POINT('',(2.516413551092,0.983711525604));
#893 = CARTESIAN_POINT('',(2.606092367322,0.987856773662));
#894 = CARTESIAN_POINT('',(2.698192308464,0.99162833445));
#895 = CARTESIAN_POINT('',(2.792834637766,0.994759854714));
#896 = CARTESIAN_POINT('',(3.013044073665,0.999870205137));
#897 = CARTESIAN_POINT('',(3.137965482651,1.001283752433));
#898 = CARTESIAN_POINT('',(3.263277289457,1.000850176852));
#899 = CARTESIAN_POINT('',(3.387636951891,0.998455053667));
#900 = CARTESIAN_POINT('',(3.509652440487,0.994521508573));
#901 = CARTESIAN_POINT('',(3.627563297793,0.989748996223));
#902 = CARTESIAN_POINT('',(3.836049352143,0.980407368169));
#903 = CARTESIAN_POINT('',(3.930209629551,0.975793524404));
#904 = CARTESIAN_POINT('',(4.02153933913,0.97123338595));
#905 = CARTESIAN_POINT('',(4.110483501345,0.966961840239));
#906 = CARTESIAN_POINT('',(4.197430449367,0.963150379227));
#907 = CARTESIAN_POINT('',(4.282750790619,0.959914421508));
#908 = CARTESIAN_POINT('',(4.48938499809,0.953561179925));
#909 = CARTESIAN_POINT('',(4.609377853553,0.951174101035));
#910 = CARTESIAN_POINT('',(4.728225242603,0.950396827812));
#911 = CARTESIAN_POINT('',(4.847054820479,0.95129793997));
#912 = CARTESIAN_POINT('',(4.967018287209,0.953843757724));
#913 = CARTESIAN_POINT('',(5.08920812626,0.957865476801));
#914 = CARTESIAN_POINT('',(5.34683238009,0.968355600459));
#915 = CARTESIAN_POINT('',(5.487364082638,0.975123981997));
#916 = CARTESIAN_POINT('',(5.634508460732,0.982847765795));
#917 = CARTESIAN_POINT('',(5.787472803668,0.990516929899));
#918 = CARTESIAN_POINT('',(5.946147616738,0.996664995986));
#919 = CARTESIAN_POINT('',(6.110926007956,1.));
#920 = CARTESIAN_POINT('',(6.28318530718,1.));
#921 = ( GEOMETRIC_REPRESENTATION_CONTEXT(2) 
PARAMETRIC_REPRESENTATION_CONTEXT() REPRESENTATION_CONTEXT('2D SPACE',''
  ) );
#922 = PCURVE('',#579,#923);
#923 = DEFINITIONAL_REPRESENTATION('',(#924),#975);
#924 = B_SPLINE_CURVE_WITH_KNOTS('',7,(#925,#926,#927,#928,#929,#930,
    #931,#932,#933,#934,#935,#936,#937,#938,#939,#940,#941,#942,#943,
    #944,#945,#946,#947,#948,#949,#950,#951,#952,#953,#954,#955,#956,
    #957,#958,#959,#960,#961,#962,#963,#964,#965,#966,#967,#968,#969,
    #970,#971,#972,#973,#974),.UNSPECIFIED.,.T.,.F.,(8,6,6,6,6,6,6,6,8),
  (0.,0.127714565786,0.248386114001,0.369068760835,0.463569047976,
    0.582655192285,0.687380115224,0.840078220277,1.),.UNSPECIFIED.);
#925 = CARTESIAN_POINT('',(3.14159265359,10.7));
#926 = CARTESIAN_POINT('',(3.133811631483,10.7));
#927 = CARTESIAN_POINT('',(3.126233029358,10.662605313849));
#928 = CARTESIAN_POINT('',(3.119088210558,10.591315762274));
#929 = CARTESIAN_POINT('',(3.112569747152,10.491016118555));
#930 = CARTESIAN_POINT('',(3.106824260443,10.367891943449));
#931 = CARTESIAN_POINT('',(3.101937385585,10.229299578382));
#932 = CARTESIAN_POINT('',(3.094117063628,9.945975669629));
#933 = CARTESIAN_POINT('',(3.090997985932,9.79864288573));
#934 = CARTESIAN_POINT('',(3.088537150171,9.644648340707));
#935 = CARTESIAN_POINT('',(3.086711242918,9.48621627537));
#936 = CARTESIAN_POINT('',(3.085501121989,9.325057575786));
#937 = CARTESIAN_POINT('',(3.084895615856,9.162563951503));
#938 = CARTESIAN_POINT('',(3.084895615856,8.837421096873));
#939 = CARTESIAN_POINT('',(3.085501232645,8.674925474259));
#940 = CARTESIAN_POINT('',(3.086711405118,8.513776937481));
#941 = CARTESIAN_POINT('',(3.088537151667,8.355361463909));
#942 = CARTESIAN_POINT('',(3.090997644881,8.201379367225));
#943 = CARTESIAN_POINT('',(3.094116516916,8.054044137289));
#944 = CARTESIAN_POINT('',(3.100891803856,7.808580997904));
#945 = CARTESIAN_POINT('',(3.104305302056,7.705970159113));
#946 = CARTESIAN_POINT('',(3.108157100758,7.610903206497));
#947 = CARTESIAN_POINT('',(3.112434489958,7.525740683744));
#948 = CARTESIAN_POINT('',(3.117112154369,7.452846957268));
#949 = CARTESIAN_POINT('',(3.122151616025,7.394599635941));
#950 = CARTESIAN_POINT('',(3.134239314959,7.301501074338));
#951 = CARTESIAN_POINT('',(3.141343627527,7.277645703209));
#952 = CARTESIAN_POINT('',(3.148566338877,7.285685895775));
#953 = CARTESIAN_POINT('',(3.155628560985,7.32596687188));
#954 = CARTESIAN_POINT('',(3.162262142231,7.395479929445));
#955 = CARTESIAN_POINT('',(3.168247645836,7.487962905412));
#956 = CARTESIAN_POINT('',(3.17802390954,7.687180033042));
#957 = CARTESIAN_POINT('',(3.182086164069,7.792764388475));
#958 = CARTESIAN_POINT('',(3.185635860716,7.907854983908));
#959 = CARTESIAN_POINT('',(3.188682209398,8.030193947089));
#960 = CARTESIAN_POINT('',(3.191238550132,8.157965814483));
#961 = CARTESIAN_POINT('',(3.193318622878,8.289686996852));
#962 = CARTESIAN_POINT('',(3.19729064681,8.620197855281));
#963 = CARTESIAN_POINT('',(3.198661746747,8.822219405634));
#964 = CARTESIAN_POINT('',(3.199087639949,9.026928195249));
#965 = CARTESIAN_POINT('',(3.198581365141,9.231813982518));
#966 = CARTESIAN_POINT('',(3.197131999077,9.43436336276));
#967 = CARTESIAN_POINT('',(3.194709941399,9.631521148059));
#968 = CARTESIAN_POINT('',(3.187668273093,10.015309500833));
#969 = CARTESIAN_POINT('',(3.182820382362,10.20806875258));
#970 = CARTESIAN_POINT('',(3.176647625131,10.384544486274));
#971 = CARTESIAN_POINT('',(3.169211891627,10.532644240154));
#972 = CARTESIAN_POINT('',(3.160691371176,10.64114835327));
#973 = CARTESIAN_POINT('',(3.151354013879,10.7));
#974 = CARTESIAN_POINT('',(3.14159265359,10.7));
#975 = ( GEOMETRIC_REPRESENTATION_CONTEXT(2) 
PARAMETRIC_REPRESENTATION_CONTEXT() REPRESENTATION_CONTEXT('2D SPACE',''
  ) );
#976 = ORIENTED_EDGE('',*,*,#792,.T.);
#977 = ADVANCED_FACE('',(#978,#1028),#579,.F.);
#978 = FACE_BOUND('',#979,.F.);
#979 = EDGE_LOOP('',(#980,#981,#1002,#1003,#1004,#1005,#1026,#1027));
#980 = ORIENTED_EDGE('',*,*,#638,.T.);
#981 = ORIENTED_EDGE('',*,*,#982,.T.);
#982 = EDGE_CURVE('',#516,#765,#983,.T.);
#983 = SEAM_CURVE('',#984,(#988,#995),.PCURVE_S1.);
#984 = LINE('',#985,#986);
#985 = CARTESIAN_POINT('',(38.4,-7.347880794884E-15,-30.));
#986 = VECTOR('',#987,1.);
#987 = DIRECTION('',(1.,0.,2.22044604925E-16));
#988 = PCURVE('',#579,#989);
#989 = DEFINITIONAL_REPRESENTATION('',(#990),#994);
#990 = LINE('',#991,#992);
#991 = CARTESIAN_POINT('',(0.,-0.));
#992 = VECTOR('',#993,1.);
#993 = DIRECTION('',(0.,1.));
#994 = ( GEOMETRIC_REPRESENTATION_CONTEXT(2) 
PARAMETRIC_REPRESENTATION_CONTEXT() REPRESENTATION_CONTEXT('2D SPACE',''
  ) );
#995 = PCURVE('',#579,#996);
#996 = DEFINITIONAL_REPRESENTATION('',(#997),#1001);
#997 = LINE('',#998,#999);
#998 = CARTESIAN_POINT('',(6.28318530718,-0.));
#999 = VECTOR('',#1000,1.);
#1000 = DIRECTION('',(0.,1.));
#1001 = ( GEOMETRIC_REPRESENTATION_CONTEXT(2) 
PARAMETRIC_REPRESENTATION_CONTEXT() REPRESENTATION_CONTEXT('2D SPACE',''
  ) );
#1002 = ORIENTED_EDGE('',*,*,#764,.F.);
#1003 = ORIENTED_EDGE('',*,*,#982,.F.);
#1004 = ORIENTED_EDGE('',*,*,#515,.T.);
#1005 = ORIENTED_EDGE('',*,*,#1006,.F.);
#1006 = EDGE_CURVE('',#735,#518,#1007,.T.);
#1007 = SEAM_CURVE('',#1008,(#1012,#1019),.PCURVE_S1.);
#1008 = LINE('',#1009,#1010);
#1009 = CARTESIAN_POINT('',(38.4,-7.347880794884E-15,-30.));
#1010 = VECTOR('',#1011,1.);
#1011 = DIRECTION('',(1.,0.,2.22044604925E-16));
#1012 = PCURVE('',#579,#1013);
#1013 = DEFINITIONAL_REPRESENTATION('',(#1014),#1018);
#1014 = LINE('',#1015,#1016);
#1015 = CARTESIAN_POINT('',(6.28318530718,-0.));
#1016 = VECTOR('',#1017,1.);
#1017 = DIRECTION('',(0.,1.));
#1018 = ( GEOMETRIC_REPRESENTATION_CONTEXT(2) 
PARAMETRIC_REPRESENTATION_CONTEXT() REPRESENTATION_CONTEXT('2D SPACE',''
  ) );
#1019 = PCURVE('',#579,#1020);
#1020 = DEFINITIONAL_REPRESENTATION('',(#1021),#1025);
#1021 = LINE('',#1022,#1023);
#1022 = CARTESIAN_POINT('',(0.,-0.));
#1023 = VECTOR('',#1024,1.);
#1024 = DIRECTION('',(0.,1.));
#1025 = ( GEOMETRIC_REPRESENTATION_CONTEXT(2) 
PARAMETRIC_REPRESENTATION_CONTEXT() REPRESENTATION_CONTEXT('2D SPACE',''
  ) );
#1026 = ORIENTED_EDGE('',*,*,#734,.T.);
#1027 = ORIENTED_EDGE('',*,*,#1006,.T.);
#1028 = FACE_BOUND('',#1029,.F.);
#1029 = EDGE_LOOP('',(#1030));
#1030 = ORIENTED_EDGE('',*,*,#815,.F.);
#1031 = ( GEOMETRIC_REPRESENTATION_CONTEXT(3) 
GLOBAL_UNCERTAINTY_ASSIGNED_CONTEXT((#1035)) 
GLOBAL_UNIT_ASSIGNED_CONTEXT((#1032,#1033,#1034)) REPRESENTATION_CONTEXT
('Context #1','3D Context with UNIT and UNCERTAINTY') );
#1032 = ( LENGTH_UNIT() NAMED_UNIT(*) SI_UNIT(.MILLI.,.METRE.) );
#1033 = ( NAMED_UNIT(*) PLANE_ANGLE_UNIT() SI_UNIT($,.RADIAN.) );
#1034 = ( NAMED_UNIT(*) SI_UNIT($,.STERADIAN.) SOLID_ANGLE_UNIT() );
#1035 = UNCERTAINTY_MEASURE_WITH_UNIT(LENGTH_MEASURE(1.E-07),#1032,
  'distance_accuracy_value','confusion accuracy');
#1036 = PRODUCT_RELATED_PRODUCT_CATEGORY('part',$,(#7));
ENDSEC;
END-ISO-10303-21;
