ISO-10303-21;
HEADER;
FILE_DESCRIPTION(('Open CASCADE Model'),'2;1');
FILE_NAME('Open CASCADE Shape Model','2026-10-01T20:18:06',('Author'),(
    'Open CASCADE'),'Open CASCADE STEP processor 8.0','build123d',
  'Unknown');
FILE_SCHEMA(('AUTOMOTIVE_DESIGN { 1 0 10303 214 1 1 1 1 }'));
ENDSEC;
DATA;
#1 = APPLICATION_PROTOCOL_DEFINITION('international standard',
  'automotive_design',2000,#2);
#2 = APPLICATION_CONTEXT(
  'core data for automotive mechanical design processes');
#3 = SHAPE_DEFINITION_REPRESENTATION(#4,#10);
#4 = PRODUCT_DEFINITION_SHAPE('','',#5);
#5 = PRODUCT_DEFINITION('design','',#6,#9);
#6 = PRODUCT_DEFINITION_FORMATION('','',#7);
#7 = PRODUCT('COMPOUND','COMPOUND','',(#8));
#8 = PRODUCT_CONTEXT('',#2,'mechanical');
#9 = PRODUCT_DEFINITION_CONTEXT('part definition',#2,'design');
#10 = ADVANCED_BREP_SHAPE_REPRESENTATION('',(#11,#15),#661);
#11 = AXIS2_PLACEMENT_3D('',#12,#13,#14);
#12 = CARTESIAN_POINT('',(0.,0.,0.));
#13 = DIRECTION('',(0.,0.,1.));
#14 = DIRECTION('',(1.,0.,-0.));
#15 = MANIFOLD_SOLID_BREP('',#16);
#16 = CLOSED_SHELL('',(#17,#510,#545,#575,#630,#657));
#17 = ADVANCED_FACE('',(#18,#105),#32,.T.);
#18 = FACE_BOUND('',#19,.T.);
#19 = EDGE_LOOP('',(#20,#50,#77,#78));
#20 = ORIENTED_EDGE('',*,*,#21,.T.);
#21 = EDGE_CURVE('',#22,#24,#26,.T.);
#22 = VERTEX_POINT('',#23);
#23 = CARTESIAN_POINT('',(318.13391822844,54.5,58.896942545958));
#24 = VERTEX_POINT('',#25);
#25 = CARTESIAN_POINT('',(318.13391822844,62.5,58.896942545958));
#26 = SEAM_CURVE('',#27,(#31,#43),.PCURVE_S1.);
#27 = LINE('',#28,#29);
#28 = CARTESIAN_POINT('',(318.13391822844,54.5,58.896942545958));
#29 = VECTOR('',#30,1.);
#30 = DIRECTION('',(0.,1.,2.22044604925E-16));
#31 = PCURVE('',#32,#37);
#32 = CYLINDRICAL_SURFACE('',#33,9.);
#33 = AXIS2_PLACEMENT_3D('',#34,#35,#36);
#34 = CARTESIAN_POINT('',(309.13391822844,54.5,58.896942545958));
#35 = DIRECTION('',(0.,1.,2.22044604925E-16));
#36 = DIRECTION('',(1.,0.,-0.));
#37 = DEFINITIONAL_REPRESENTATION('',(#38),#42);
#38 = LINE('',#39,#40);
#39 = CARTESIAN_POINT('',(6.28318530718,-0.));
#40 = VECTOR('',#41,1.);
#41 = DIRECTION('',(0.,1.));
#42 = ( GEOMETRIC_REPRESENTATION_CONTEXT(2) 
PARAMETRIC_REPRESENTATION_CONTEXT() REPRESENTATION_CONTEXT('2D SPACE',''
  ) );
#43 = PCURVE('',#32,#44);
#44 = DEFINITIONAL_REPRESENTATION('',(#45),#49);
#45 = LINE('',#46,#47);
#46 = CARTESIAN_POINT('',(0.,-0.));
#47 = VECTOR('',#48,1.);
#48 = DIRECTION('',(0.,1.));
#49 = ( GEOMETRIC_REPRESENTATION_CONTEXT(2) 
PARAMETRIC_REPRESENTATION_CONTEXT() REPRESENTATION_CONTEXT('2D SPACE',''
  ) );
#50 = ORIENTED_EDGE('',*,*,#51,.F.);
#51 = EDGE_CURVE('',#24,#24,#52,.T.);
#52 = SURFACE_CURVE('',#53,(#58,#65),.PCURVE_S1.);
#53 = CIRCLE('',#54,9.);
#54 = AXIS2_PLACEMENT_3D('',#55,#56,#57);
#55 = CARTESIAN_POINT('',(309.13391822844,62.5,58.896942545958));
#56 = DIRECTION('',(0.,1.,2.22044604925E-16));
#57 = DIRECTION('',(1.,0.,-0.));
#58 = PCURVE('',#32,#59);
#59 = DEFINITIONAL_REPRESENTATION('',(#60),#64);
#60 = LINE('',#61,#62);
#61 = CARTESIAN_POINT('',(0.,8.));
#62 = VECTOR('',#63,1.);
#63 = DIRECTION('',(1.,0.));
#64 = ( GEOMETRIC_REPRESENTATION_CONTEXT(2) 
PARAMETRIC_REPRESENTATION_CONTEXT() REPRESENTATION_CONTEXT('2D SPACE',''
  ) );
#65 = PCURVE('',#66,#71);
#66 = PLANE('',#67);
#67 = AXIS2_PLACEMENT_3D('',#68,#69,#70);
#68 = CARTESIAN_POINT('',(309.13391822844,62.5,58.896942545958));
#69 = DIRECTION('',(0.,1.,2.22044604925E-16));
#70 = DIRECTION('',(1.,0.,-0.));
#71 = DEFINITIONAL_REPRESENTATION('',(#72),#76);
#72 = CIRCLE('',#73,9.);
#73 = AXIS2_PLACEMENT_2D('',#74,#75);
#74 = CARTESIAN_POINT('',(0.,0.));
#75 = DIRECTION('',(1.,0.));
#76 = ( GEOMETRIC_REPRESENTATION_CONTEXT(2) 
PARAMETRIC_REPRESENTATION_CONTEXT() REPRESENTATION_CONTEXT('2D SPACE',''
  ) );
#77 = ORIENTED_EDGE('',*,*,#21,.F.);
#78 = ORIENTED_EDGE('',*,*,#79,.T.);
#79 = EDGE_CURVE('',#22,#22,#80,.T.);
#80 = SURFACE_CURVE('',#81,(#86,#93),.PCURVE_S1.);
#81 = CIRCLE('',#82,9.);
#82 = AXIS2_PLACEMENT_3D('',#83,#84,#85);
#83 = CARTESIAN_POINT('',(309.13391822844,54.5,58.896942545958));
#84 = DIRECTION('',(0.,1.,2.22044604925E-16));
#85 = DIRECTION('',(1.,0.,-0.));
#86 = PCURVE('',#32,#87);
#87 = DEFINITIONAL_REPRESENTATION('',(#88),#92);
#88 = LINE('',#89,#90);
#89 = CARTESIAN_POINT('',(0.,0.));
#90 = VECTOR('',#91,1.);
#91 = DIRECTION('',(1.,0.));
#92 = ( GEOMETRIC_REPRESENTATION_CONTEXT(2) 
PARAMETRIC_REPRESENTATION_CONTEXT() REPRESENTATION_CONTEXT('2D SPACE',''
  ) );
#93 = PCURVE('',#94,#99);
#94 = PLANE('',#95);
#95 = AXIS2_PLACEMENT_3D('',#96,#97,#98);
#96 = CARTESIAN_POINT('',(309.13391822844,54.5,58.896942545958));
#97 = DIRECTION('',(0.,1.,2.22044604925E-16));
#98 = DIRECTION('',(1.,0.,-0.));
#99 = DEFINITIONAL_REPRESENTATION('',(#100),#104);
#100 = CIRCLE('',#101,9.);
#101 = AXIS2_PLACEMENT_2D('',#102,#103);
#102 = CARTESIAN_POINT('',(0.,0.));
#103 = DIRECTION('',(1.,0.));
#104 = ( GEOMETRIC_REPRESENTATION_CONTEXT(2) 
PARAMETRIC_REPRESENTATION_CONTEXT() REPRESENTATION_CONTEXT('2D SPACE',''
  ) );
#105 = FACE_BOUND('',#106,.T.);
#106 = EDGE_LOOP('',(#107));
#107 = ORIENTED_EDGE('',*,*,#108,.F.);
#108 = EDGE_CURVE('',#109,#109,#111,.T.);
#109 = VERTEX_POINT('',#110);
#110 = CARTESIAN_POINT('',(312.33391822844,58.5,67.308838883882));
#111 = SURFACE_CURVE('',#112,(#241,#373),.PCURVE_S1.);
#112 = B_SPLINE_CURVE_WITH_KNOTS('',7,(#113,#114,#115,#116,#117,#118,
    #119,#120,#121,#122,#123,#124,#125,#126,#127,#128,#129,#130,#131,
    #132,#133,#134,#135,#136,#137,#138,#139,#140,#141,#142,#143,#144,
    #145,#146,#147,#148,#149,#150,#151,#152,#153,#154,#155,#156,#157,
    #158,#159,#160,#161,#162,#163,#164,#165,#166,#167,#168,#169,#170,
    #171,#172,#173,#174,#175,#176,#177,#178,#179,#180,#181,#182,#183,
    #184,#185,#186,#187,#188,#189,#190,#191,#192,#193,#194,#195,#196,
    #197,#198,#199,#200,#201,#202,#203,#204,#205,#206,#207,#208,#209,
    #210,#211,#212,#213,#214,#215,#216,#217,#218,#219,#220,#221,#222,
    #223,#224,#225,#226,#227,#228,#229,#230,#231,#232,#233,#234,#235,
    #236,#237,#238,#239,#240),.UNSPECIFIED.,.T.,.F.,(8,6,6,6,6,6,6,6,6,6
    ,6,6,6,6,6,6,6,6,6,6,6,8),(0.,0.121283699724,0.149036030544,
    0.182963524573,0.221583509581,0.277786733571,0.317032540715,
    0.351215505096,0.378986997358,0.422367222456,0.500055992138,
    0.562463945548,0.598744194946,0.621423909306,0.649168983409,
    0.683087606029,0.72169749263,0.777886020523,0.81712156562,
    0.851295591795,0.879059822332,1.),.UNSPECIFIED.);
#113 = CARTESIAN_POINT('',(312.33391822844,58.5,67.308838883883));
#114 = CARTESIAN_POINT('',(312.33391822844,58.80636463157,
    67.308838883883));
#115 = CARTESIAN_POINT('',(312.29969925041,59.112117168237,
    67.321856309854));
#116 = CARTESIAN_POINT('',(312.23150339642,59.41474331633,
    67.347798618262));
#117 = CARTESIAN_POINT('',(312.12897005527,59.711611628512,
    67.385800757866));
#118 = CARTESIAN_POINT('',(311.99127267049,59.999671646755,
    67.434204437325));
#119 = CARTESIAN_POINT('',(311.81724432435,60.27505035117,
    67.490440648357));
#120 = CARTESIAN_POINT('',(311.55716785152,60.591333398702,
    67.564721846269));
#121 = CARTESIAN_POINT('',(311.50674899077,60.649311251853,
    67.578780112131));
#122 = CARTESIAN_POINT('',(311.45431737032,60.706311785804,
    67.593023020023));
#123 = CARTESIAN_POINT('',(311.39985020266,60.762268849255,
    67.607405419009));
#124 = CARTESIAN_POINT('',(311.34332523033,60.817109542016,
    67.621878563928));
#125 = CARTESIAN_POINT('',(311.28472072593,60.870754215004,
    67.636390115395));
#126 = CARTESIAN_POINT('',(311.14980275405,60.987129835952,
    67.668603225436));
#127 = CARTESIAN_POINT('',(311.07243417357,61.049240753582,
    67.686299939105));
#128 = CARTESIAN_POINT('',(310.99188686395,61.109273725618,
    67.703867619603));
#129 = CARTESIAN_POINT('',(310.90814578773,61.167039530671,
    67.721190600336));
#130 = CARTESIAN_POINT('',(310.82120410162,61.222334958878,
    67.738145004571));
#131 = CARTESIAN_POINT('',(310.73106350154,61.274942547302,
    67.75459954069));
#132 = CARTESIAN_POINT('',(310.53149736565,61.381190368208,
    67.788420660161));
#133 = CARTESIAN_POINT('',(310.42100502772,61.434032704091,
    67.805619635471));
#134 = CARTESIAN_POINT('',(310.30647595111,61.482682224016,
    67.821769085642));
#135 = CARTESIAN_POINT('',(310.18816030891,61.526698310306,
    67.836627980833));
#136 = CARTESIAN_POINT('',(310.06633953595,61.565672811235,
    67.849965724061));
#137 = CARTESIAN_POINT('',(309.94132581481,61.59922802569,
    67.861569476168));
#138 = CARTESIAN_POINT('',(309.62738217206,61.667452300538,
    67.885341591778));
#139 = CARTESIAN_POINT('',(309.43532154864,61.695661135549,
    67.89535744541));
#140 = CARTESIAN_POINT('',(309.23955964401,61.710314740818,
    67.900632441711));
#141 = CARTESIAN_POINT('',(309.04250712788,61.710755997002,
    67.90079132209));
#142 = CARTESIAN_POINT('',(308.84661985085,61.696971431637,67.8958264304
    ));
#143 = CARTESIAN_POINT('',(308.65431325341,61.669591712928,
    67.886098738773));
#144 = CARTESIAN_POINT('',(308.33769108851,61.602215033269,
    67.862602810098));
#145 = CARTESIAN_POINT('',(308.21041383593,61.568526978085,
    67.850942645574));
#146 = CARTESIAN_POINT('',(308.08640898627,61.529217882399,
    67.837478247336));
#147 = CARTESIAN_POINT('',(307.96600835967,61.484682537564,
    67.822432139431));
#148 = CARTESIAN_POINT('',(307.84951099645,61.435349005346,
    67.806046295327));
#149 = CARTESIAN_POINT('',(307.73718258079,61.38168082183,
    67.788574165965));
#150 = CARTESIAN_POINT('',(307.53525019106,61.274095485646,
    67.754332200066));
#151 = CARTESIAN_POINT('',(307.4444825667,61.221049785713,
    67.737745306523));
#152 = CARTESIAN_POINT('',(307.35696242968,61.165279182732,
    67.720653004712));
#153 = CARTESIAN_POINT('',(307.27269111522,61.107005755955,
    67.703189427224));
#154 = CARTESIAN_POINT('',(307.19166121423,61.046436855805,
    67.685481046623));
#155 = CARTESIAN_POINT('',(307.11385693199,60.983765377006,
    67.667645860354));
#156 = CARTESIAN_POINT('',(306.97864465562,60.866690407322,
    67.635287913267));
#157 = CARTESIAN_POINT('',(306.92013732781,60.812931395043,
    67.620768736527));
#158 = CARTESIAN_POINT('',(306.86371111304,60.757979197139,
    67.606290909167));
#159 = CARTESIAN_POINT('',(306.80934417282,60.701913288039,
    67.591906704286));
#160 = CARTESIAN_POINT('',(306.75701418058,60.644806414347,
    67.577664804356));
#161 = CARTESIAN_POINT('',(306.70669832171,60.586724594842,
    67.56361030122));
#162 = CARTESIAN_POINT('',(306.58288759105,60.435570613585,
    67.528188526288));
#163 = CARTESIAN_POINT('',(306.51225646889,60.341176357861,
    67.507150101066));
#164 = CARTESIAN_POINT('',(306.44640023071,60.244777401798,
    67.486830224792));
#165 = CARTESIAN_POINT('',(306.3852459313,60.146583147381,
    67.467372455171));
#166 = CARTESIAN_POINT('',(306.32872738473,60.04677965708,
    67.448904046184));
#167 = CARTESIAN_POINT('',(306.27678517254,59.945529960833,
    67.431536891035));
#168 = CARTESIAN_POINT('',(306.14444578047,59.659309612582,
    67.38641275736));
#169 = CARTESIAN_POINT('',(306.07401870024,59.471422846727,
    67.36129658677));
#170 = CARTESIAN_POINT('',(306.01788489638,59.280303257474,
    67.340613018244));
#171 = CARTESIAN_POINT('',(305.97588583904,59.086824612185,
    67.324803874589));
#172 = CARTESIAN_POINT('',(305.94791339322,58.891781413385,
    67.314162893387));
#173 = CARTESIAN_POINT('',(305.93391822844,58.695925058567,
    67.308838883883));
#174 = CARTESIAN_POINT('',(305.93391822844,58.342611976263,
    67.308838883883));
#175 = CARTESIAN_POINT('',(305.94294933413,58.185247579068,
    67.312274432775));
#176 = CARTESIAN_POINT('',(305.96100659536,58.028302805728,
    67.31914367209));
#177 = CARTESIAN_POINT('',(305.98810948082,57.872176298269,
    67.329384062186));
#178 = CARTESIAN_POINT('',(306.02429965795,57.717280666436,
    67.342871783764));
#179 = CARTESIAN_POINT('',(306.06963877286,57.564053810703,
    67.359421139381));
#180 = CARTESIAN_POINT('',(306.15592848438,57.325139301713,
    67.390040337216));
#181 = CARTESIAN_POINT('',(306.19077069351,57.23802925823,
    67.402247974408));
#182 = CARTESIAN_POINT('',(306.22875422151,57.151719418334,
    67.41536010589));
#183 = CARTESIAN_POINT('',(306.26990394555,57.066296789623,
    67.429323256266));
#184 = CARTESIAN_POINT('',(306.31424827821,56.981856182928,
    67.44407700686));
#185 = CARTESIAN_POINT('',(306.36181918972,56.89850031146,
    67.459553767194));
#186 = CARTESIAN_POINT('',(306.44442926729,56.76497930334,67.48575855951
    ));
#187 = CARTESIAN_POINT('',(306.47748206853,56.714084415551,
    67.496092088569));
#188 = CARTESIAN_POINT('',(306.51182016592,56.663681110765,
    67.506661120891));
#189 = CARTESIAN_POINT('',(306.54745374951,56.613797015048,
    67.517446436628));
#190 = CARTESIAN_POINT('',(306.58439366726,56.56446149635,
    67.528427608817));
#191 = CARTESIAN_POINT('',(306.62265142507,56.515705664508,
    67.539583003385));
#192 = CARTESIAN_POINT('',(306.71066860535,56.408666601298,
    67.564721846269));
#193 = CARTESIAN_POINT('',(306.7610874661,56.350688748147,
    67.578780112131));
#194 = CARTESIAN_POINT('',(306.81351908655,56.293688214196,
    67.593023020023));
#195 = CARTESIAN_POINT('',(306.86798625421,56.237731150745,
    67.607405419009));
#196 = CARTESIAN_POINT('',(306.92451122654,56.182890457984,
    67.621878563928));
#197 = CARTESIAN_POINT('',(306.98311573094,56.129245784996,
    67.636390115395));
#198 = CARTESIAN_POINT('',(307.11803370283,56.012870164048,
    67.668603225436));
#199 = CARTESIAN_POINT('',(307.19540228331,55.950759246418,
    67.686299939105));
#200 = CARTESIAN_POINT('',(307.27594959292,55.890726274382,
    67.703867619603));
#201 = CARTESIAN_POINT('',(307.35969066914,55.832960469328,
    67.721190600336));
#202 = CARTESIAN_POINT('',(307.44663235525,55.777665041121,
    67.738145004571));
#203 = CARTESIAN_POINT('',(307.53677295534,55.725057452698,
    67.75459954069));
#204 = CARTESIAN_POINT('',(307.73633909122,55.618809631792,
    67.788420660161));
#205 = CARTESIAN_POINT('',(307.84683142915,55.565967295909,
    67.805619635471));
#206 = CARTESIAN_POINT('',(307.96136050576,55.517317775984,
    67.821769085642));
#207 = CARTESIAN_POINT('',(308.07967614796,55.473301689694,
    67.836627980833));
#208 = CARTESIAN_POINT('',(308.20149692093,55.434327188765,
    67.849965724061));
#209 = CARTESIAN_POINT('',(308.32651064206,55.40077197431,
    67.861569476168));
#210 = CARTESIAN_POINT('',(308.64045428481,55.332547699462,
    67.885341591778));
#211 = CARTESIAN_POINT('',(308.83251490823,55.304338864451,
    67.89535744541));
#212 = CARTESIAN_POINT('',(309.02827681286,55.289685259182,
    67.900632441711));
#213 = CARTESIAN_POINT('',(309.22532932899,55.289244002998,
    67.90079132209));
#214 = CARTESIAN_POINT('',(309.42121660603,55.303028568363,67.8958264304
    ));
#215 = CARTESIAN_POINT('',(309.61352320346,55.330408287072,
    67.886098738773));
#216 = CARTESIAN_POINT('',(309.93014536836,55.397784966731,
    67.862602810098));
#217 = CARTESIAN_POINT('',(310.05742262094,55.431473021915,
    67.850942645574));
#218 = CARTESIAN_POINT('',(310.1814274706,55.470782117601,
    67.837478247336));
#219 = CARTESIAN_POINT('',(310.3018280972,55.515317462436,
    67.822432139431));
#220 = CARTESIAN_POINT('',(310.41832546042,55.564650994654,
    67.806046295327));
#221 = CARTESIAN_POINT('',(310.53065387608,55.61831917817,
    67.788574165965));
#222 = CARTESIAN_POINT('',(310.73258626581,55.725904514356,
    67.754332200065));
#223 = CARTESIAN_POINT('',(310.82335389017,55.778950214288,
    67.737745306523));
#224 = CARTESIAN_POINT('',(310.91087402719,55.834720817266,
    67.720653004712));
#225 = CARTESIAN_POINT('',(310.99514534165,55.892994244042,
    67.703189427225));
#226 = CARTESIAN_POINT('',(311.07617524265,55.953563144195,
    67.685481046623));
#227 = CARTESIAN_POINT('',(311.15397952489,56.016234622997,
    67.667645860353));
#228 = CARTESIAN_POINT('',(311.28919180125,56.133309592677,
    67.635287913267));
#229 = CARTESIAN_POINT('',(311.34769912906,56.187068604957,
    67.620768736527));
#230 = CARTESIAN_POINT('',(311.40412534383,56.242020802861,
    67.606290909167));
#231 = CARTESIAN_POINT('',(311.45849228405,56.298086711961,
    67.591906704286));
#232 = CARTESIAN_POINT('',(311.51082227629,56.355193585653,
    67.577664804356));
#233 = CARTESIAN_POINT('',(311.56113813516,56.413275405158,
    67.56361030122));
#234 = CARTESIAN_POINT('',(311.81996557543,56.729264155473,
    67.489560763777));
#235 = CARTESIAN_POINT('',(311.99306566757,57.004085917011,
    67.433574003837));
#236 = CARTESIAN_POINT('',(312.13003840083,57.291485493279,
    67.385404813351));
#237 = CARTESIAN_POINT('',(312.23203707912,57.587625776475,
    67.347595601131));
#238 = CARTESIAN_POINT('',(312.29987828294,57.88948078587,
    67.321788202755));
#239 = CARTESIAN_POINT('',(312.33391822844,58.194437901773,
    67.308838883883));
#240 = CARTESIAN_POINT('',(312.33391822844,58.5,67.308838883883));
#241 = PCURVE('',#32,#242);
#242 = DEFINITIONAL_REPRESENTATION('',(#243),#372);
#243 = B_SPLINE_CURVE_WITH_KNOTS('',7,(#244,#245,#246,#247,#248,#249,
    #250,#251,#252,#253,#254,#255,#256,#257,#258,#259,#260,#261,#262,
    #263,#264,#265,#266,#267,#268,#269,#270,#271,#272,#273,#274,#275,
    #276,#277,#278,#279,#280,#281,#282,#283,#284,#285,#286,#287,#288,
    #289,#290,#291,#292,#293,#294,#295,#296,#297,#298,#299,#300,#301,
    #302,#303,#304,#305,#306,#307,#308,#309,#310,#311,#312,#313,#314,
    #315,#316,#317,#318,#319,#320,#321,#322,#323,#324,#325,#326,#327,
    #328,#329,#330,#331,#332,#333,#334,#335,#336,#337,#338,#339,#340,
    #341,#342,#343,#344,#345,#346,#347,#348,#349,#350,#351,#352,#353,
    #354,#355,#356,#357,#358,#359,#360,#361,#362,#363,#364,#365,#366,
    #367,#368,#369,#370,#371),.UNSPECIFIED.,.T.,.F.,(8,6,6,6,6,6,6,6,6,6
    ,6,6,6,6,6,6,6,6,6,6,6,8),(0.,0.121283699724,0.149036030544,
    0.182963524573,0.221583509581,0.277786733571,0.317032540715,
    0.351215505096,0.378986997358,0.422367222456,0.500055992138,
    0.562463945548,0.598744194946,0.621423909306,0.649168983409,
    0.683087606029,0.72169749263,0.777886020523,0.81712156562,
    0.851295591795,0.879059822332,1.),.UNSPECIFIED.);
#244 = CARTESIAN_POINT('',(5.075897376797,4.));
#245 = CARTESIAN_POINT('',(5.075897376797,4.30636463157));
#246 = CARTESIAN_POINT('',(5.071829450791,4.612117168237));
#247 = CARTESIAN_POINT('',(5.063722373812,4.91474331633));
#248 = CARTESIAN_POINT('',(5.051572959823,5.211611628512));
#249 = CARTESIAN_POINT('',(5.035360632982,5.499671646755));
#250 = CARTESIAN_POINT('',(5.015051618306,5.77505035117));
#251 = CARTESIAN_POINT('',(4.984998688027,6.091333398702));
#252 = CARTESIAN_POINT('',(4.979183000575,6.149311251853));
#253 = CARTESIAN_POINT('',(4.973146368546,6.206311785804));
#254 = CARTESIAN_POINT('',(4.966887341531,6.262268849255));
#255 = CARTESIAN_POINT('',(4.960404498846,6.317109542016));
#256 = CARTESIAN_POINT('',(4.953696449528,6.370754215004));
#257 = CARTESIAN_POINT('',(4.938284195467,6.487129835952));
#258 = CARTESIAN_POINT('',(4.929466073349,6.549240753582));
#259 = CARTESIAN_POINT('',(4.920306749742,6.609273725618));
#260 = CARTESIAN_POINT('',(4.910806229341,6.667039530671));
#261 = CARTESIAN_POINT('',(4.900965179661,6.722334958879));
#262 = CARTESIAN_POINT('',(4.890784872926,6.774942547302));
#263 = CARTESIAN_POINT('',(4.86829468008,6.881190368208));
#264 = CARTESIAN_POINT('',(4.855871027209,6.934032704091));
#265 = CARTESIAN_POINT('',(4.843021867456,6.982682224016));
#266 = CARTESIAN_POINT('',(4.829775276927,7.026698310306));
#267 = CARTESIAN_POINT('',(4.816161632105,7.065672811235));
#268 = CARTESIAN_POINT('',(4.802213532242,7.09922802569));
#269 = CARTESIAN_POINT('',(4.767231045565,7.167452300538));
#270 = CARTESIAN_POINT('',(4.74586783292,7.195661135549));
#271 = CARTESIAN_POINT('',(4.724119900342,7.210314740818));
#272 = CARTESIAN_POINT('',(4.702238531355,7.210755997002));
#273 = CARTESIAN_POINT('',(4.680477609297,7.196971431637));
#274 = CARTESIAN_POINT('',(4.659088781005,7.169591712928));
#275 = CARTESIAN_POINT('',(4.623811807442,7.102215033269));
#276 = CARTESIAN_POINT('',(4.609612802784,7.068526978085));
#277 = CARTESIAN_POINT('',(4.595756545143,7.029217882399));
#278 = CARTESIAN_POINT('',(4.582277654938,6.984682537564));
#279 = CARTESIAN_POINT('',(4.569208383977,6.935349005346));
#280 = CARTESIAN_POINT('',(4.556578534165,6.88168082183));
#281 = CARTESIAN_POINT('',(4.533821307054,6.774095485646));
#282 = CARTESIAN_POINT('',(4.523569840543,6.721049785713));
#283 = CARTESIAN_POINT('',(4.513662796711,6.665279182732));
#284 = CARTESIAN_POINT('',(4.504101437218,6.607005755955));
#285 = CARTESIAN_POINT('',(4.494886405228,6.546436855805));
#286 = CARTESIAN_POINT('',(4.486017665277,6.483765377006));
#287 = CARTESIAN_POINT('',(4.470569865314,6.366690407322));
#288 = CARTESIAN_POINT('',(4.463872091339,6.312931395043));
#289 = CARTESIAN_POINT('',(4.457399747446,6.257979197139));
#290 = CARTESIAN_POINT('',(4.451151434254,6.201913288039));
#291 = CARTESIAN_POINT('',(4.445125726778,6.144806414347));
#292 = CARTESIAN_POINT('',(4.439321174423,6.086724594842));
#293 = CARTESIAN_POINT('',(4.425012496592,5.935570613585));
#294 = CARTESIAN_POINT('',(4.416824326375,5.841176357861));
#295 = CARTESIAN_POINT('',(4.409167119956,5.744777401798));
#296 = CARTESIAN_POINT('',(4.402036970499,5.646583147381));
#297 = CARTESIAN_POINT('',(4.395430614822,5.54677965708));
#298 = CARTESIAN_POINT('',(4.389345313511,5.445529960833));
#299 = CARTESIAN_POINT('',(4.373809650781,5.159309612582));
#300 = CARTESIAN_POINT('',(4.365502424701,4.971422846727));
#301 = CARTESIAN_POINT('',(4.35885590896,4.780303257474));
#302 = CARTESIAN_POINT('',(4.353869724504,4.586824612185));
#303 = CARTESIAN_POINT('',(4.350544244864,4.391781413385));
#304 = CARTESIAN_POINT('',(4.348880583972,4.195925058567));
#305 = CARTESIAN_POINT('',(4.348880583972,3.842611976263));
#306 = CARTESIAN_POINT('',(4.349954174409,3.685247579068));
#307 = CARTESIAN_POINT('',(4.352100846411,3.528302805728));
#308 = CARTESIAN_POINT('',(4.355320054997,3.372176298269));
#309 = CARTESIAN_POINT('',(4.35961123623,3.217280666436));
#310 = CARTESIAN_POINT('',(4.364973824371,3.064053810703));
#311 = CARTESIAN_POINT('',(4.37514728876,2.825139301713));
#312 = CARTESIAN_POINT('',(4.379249356487,2.73802925823));
#313 = CARTESIAN_POINT('',(4.383714060957,2.651719418334));
#314 = CARTESIAN_POINT('',(4.388542175715,2.566296789623));
#315 = CARTESIAN_POINT('',(4.39373470143,2.481856182928));
#316 = CARTESIAN_POINT('',(4.399292908211,2.39850031146));
#317 = CARTESIAN_POINT('',(4.408922541011,2.26497930334));
#318 = CARTESIAN_POINT('',(4.412770341155,2.214084415551));
#319 = CARTESIAN_POINT('',(4.416762257771,2.163681110765));
#320 = CARTESIAN_POINT('',(4.420898838057,2.113797015048));
#321 = CARTESIAN_POINT('',(4.425180697001,2.06446149635));
#322 = CARTESIAN_POINT('',(4.429608517373,2.015705664508));
#323 = CARTESIAN_POINT('',(4.439779272742,1.908666601298));
#324 = CARTESIAN_POINT('',(4.445594960194,1.850688748147));
#325 = CARTESIAN_POINT('',(4.451631592223,1.793688214196));
#326 = CARTESIAN_POINT('',(4.457890619238,1.737731150745));
#327 = CARTESIAN_POINT('',(4.464373461924,1.682890457984));
#328 = CARTESIAN_POINT('',(4.471081511241,1.629245784996));
#329 = CARTESIAN_POINT('',(4.486493765302,1.512870164048));
#330 = CARTESIAN_POINT('',(4.495311887421,1.450759246418));
#331 = CARTESIAN_POINT('',(4.504471211027,1.390726274382));
#332 = CARTESIAN_POINT('',(4.513971731429,1.332960469328));
#333 = CARTESIAN_POINT('',(4.523812781108,1.277665041121));
#334 = CARTESIAN_POINT('',(4.533993087843,1.225057452698));
#335 = CARTESIAN_POINT('',(4.556483280689,1.118809631792));
#336 = CARTESIAN_POINT('',(4.56890693356,1.065967295909));
#337 = CARTESIAN_POINT('',(4.581756093313,1.017317775984));
#338 = CARTESIAN_POINT('',(4.595002683842,0.973301689694));
#339 = CARTESIAN_POINT('',(4.608616328665,0.934327188765));
#340 = CARTESIAN_POINT('',(4.622564428527,0.90077197431));
#341 = CARTESIAN_POINT('',(4.657546915204,0.832547699462));
#342 = CARTESIAN_POINT('',(4.67891012785,0.804338864451));
#343 = CARTESIAN_POINT('',(4.700658060428,0.789685259182));
#344 = CARTESIAN_POINT('',(4.722539429414,0.789244002998));
#345 = CARTESIAN_POINT('',(4.744300351473,0.803028568363));
#346 = CARTESIAN_POINT('',(4.765689179764,0.830408287072));
#347 = CARTESIAN_POINT('',(4.800966153327,0.897784966731));
#348 = CARTESIAN_POINT('',(4.815165157986,0.931473021915));
#349 = CARTESIAN_POINT('',(4.829021415626,0.970782117601));
#350 = CARTESIAN_POINT('',(4.842500305831,1.015317462436));
#351 = CARTESIAN_POINT('',(4.855569576792,1.064650994654));
#352 = CARTESIAN_POINT('',(4.868199426604,1.11831917817));
#353 = CARTESIAN_POINT('',(4.890956653716,1.225904514356));
#354 = CARTESIAN_POINT('',(4.901208120226,1.278950214288));
#355 = CARTESIAN_POINT('',(4.911115164058,1.334720817266));
#356 = CARTESIAN_POINT('',(4.920676523551,1.392994244042));
#357 = CARTESIAN_POINT('',(4.929891555542,1.453563144195));
#358 = CARTESIAN_POINT('',(4.938760295493,1.516234622997));
#359 = CARTESIAN_POINT('',(4.954208095456,1.633309592677));
#360 = CARTESIAN_POINT('',(4.960905869431,1.687068604957));
#361 = CARTESIAN_POINT('',(4.967378213323,1.742020802861));
#362 = CARTESIAN_POINT('',(4.973626526515,1.798086711961));
#363 = CARTESIAN_POINT('',(4.979652233992,1.855193585653));
#364 = CARTESIAN_POINT('',(4.985456786346,1.913275405158));
#365 = CARTESIAN_POINT('',(5.015369205385,2.229264155473));
#366 = CARTESIAN_POINT('',(5.035571745008,2.504085917011));
#367 = CARTESIAN_POINT('',(5.051699549548,2.791485493279));
#368 = CARTESIAN_POINT('',(5.063785817789,3.087625776475));
#369 = CARTESIAN_POINT('',(5.071850734011,3.38948078587));
#370 = CARTESIAN_POINT('',(5.075897376797,3.694437901773));
#371 = CARTESIAN_POINT('',(5.075897376797,4.));
#372 = ( GEOMETRIC_REPRESENTATION_CONTEXT(2) 
PARAMETRIC_REPRESENTATION_CONTEXT() REPRESENTATION_CONTEXT('2D SPACE',''
  ) );
#373 = PCURVE('',#374,#379);
#374 = CYLINDRICAL_SURFACE('',#375,3.2);
#375 = AXIS2_PLACEMENT_3D('',#376,#377,#378);
#376 = CARTESIAN_POINT('',(309.13391822844,58.5,66.896942545958));
#377 = DIRECTION('',(0.,0.,1.));
#378 = DIRECTION('',(1.,0.,-0.));
#379 = DEFINITIONAL_REPRESENTATION('',(#380),#509);
#380 = B_SPLINE_CURVE_WITH_KNOTS('',7,(#381,#382,#383,#384,#385,#386,
    #387,#388,#389,#390,#391,#392,#393,#394,#395,#396,#397,#398,#399,
    #400,#401,#402,#403,#404,#405,#406,#407,#408,#409,#410,#411,#412,
    #413,#414,#415,#416,#417,#418,#419,#420,#421,#422,#423,#424,#425,
    #426,#427,#428,#429,#430,#431,#432,#433,#434,#435,#436,#437,#438,
    #439,#440,#441,#442,#443,#444,#445,#446,#447,#448,#449,#450,#451,
    #452,#453,#454,#455,#456,#457,#458,#459,#460,#461,#462,#463,#464,
    #465,#466,#467,#468,#469,#470,#471,#472,#473,#474,#475,#476,#477,
    #478,#479,#480,#481,#482,#483,#484,#485,#486,#487,#488,#489,#490,
    #491,#492,#493,#494,#495,#496,#497,#498,#499,#500,#501,#502,#503,
    #504,#505,#506,#507,#508),.UNSPECIFIED.,.F.,.F.,(8,6,6,6,6,6,6,6,6,6
    ,6,6,6,6,6,6,6,6,6,6,6,8),(0.,0.121283699724,0.149036030544,
    0.182963524573,0.221583509581,0.277786733571,0.317032540715,
    0.351215505096,0.378986997358,0.422367222456,0.500055992138,
    0.562463945548,0.598744194946,0.621423909306,0.649168983409,
    0.683087606029,0.72169749263,0.777886020523,0.81712156562,
    0.851295591795,0.879059822332,1.),.UNSPECIFIED.);
#381 = CARTESIAN_POINT('',(0.,0.411896337925));
#382 = CARTESIAN_POINT('',(9.573894736548E-02,0.411896337925));
#383 = CARTESIAN_POINT('',(0.191286508636,0.424913763896));
#384 = CARTESIAN_POINT('',(0.287290977039,0.450856072304));
#385 = CARTESIAN_POINT('',(0.384335582525,0.488858211908));
#386 = CARTESIAN_POINT('',(0.483040215728,0.537261891367));
#387 = CARTESIAN_POINT('',(0.584050976865,0.593498102399));
#388 = CARTESIAN_POINT('',(0.712013807878,0.667779300311));
#389 = CARTESIAN_POINT('',(0.736015508576,0.681837566173));
#390 = CARTESIAN_POINT('',(0.760202687849,0.696080474065));
#391 = CARTESIAN_POINT('',(0.78458752892,0.710462873051));
#392 = CARTESIAN_POINT('',(0.809182376907,0.72493601797));
#393 = CARTESIAN_POINT('',(0.833999738824,0.739447569437));
#394 = CARTESIAN_POINT('',(0.889679262917,0.771660679477));
#395 = CARTESIAN_POINT('',(0.920664688583,0.789357393146));
#396 = CARTESIAN_POINT('',(0.952025143685,0.806925073645));
#397 = CARTESIAN_POINT('',(0.983777362122,0.824248054378));
#398 = CARTESIAN_POINT('',(1.015939008243,0.841202458613));
#399 = CARTESIAN_POINT('',(1.048529456506,0.857656994732));
#400 = CARTESIAN_POINT('',(1.11918158213,0.891478114203));
#401 = CARTESIAN_POINT('',(1.157420337159,0.908677089512));
#402 = CARTESIAN_POINT('',(1.196243845636,0.924826539684));
#403 = CARTESIAN_POINT('',(1.235618183724,0.939685434875));
#404 = CARTESIAN_POINT('',(1.275516910837,0.953023178102));
#405 = CARTESIAN_POINT('',(1.315919486162,0.96462693021));
#406 = CARTESIAN_POINT('',(1.416316725731,0.98839904582));
#407 = CARTESIAN_POINT('',(1.476838693795,0.998414899452));
#408 = CARTESIAN_POINT('',(1.537935802863,1.003689895753));
#409 = CARTESIAN_POINT('',(1.599224631751,1.003848776132));
#410 = CARTESIAN_POINT('',(1.660340745853,0.998883884441));
#411 = CARTESIAN_POINT('',(1.720901236501,0.989156192814));
#412 = CARTESIAN_POINT('',(1.822061117433,0.96566026414));
#413 = CARTESIAN_POINT('',(1.863155402701,0.954000099616));
#414 = CARTESIAN_POINT('',(1.903732481628,0.940535701378));
#415 = CARTESIAN_POINT('',(1.943770268378,0.925489593473));
#416 = CARTESIAN_POINT('',(1.983240380018,0.909103749369));
#417 = CARTESIAN_POINT('',(2.022106372638,0.891631620007));
#418 = CARTESIAN_POINT('',(2.09360763914,0.857389654108));
#419 = CARTESIAN_POINT('',(2.126435777137,0.840802760565));
#420 = CARTESIAN_POINT('',(2.158828841522,0.823710458754));
#421 = CARTESIAN_POINT('',(2.19080671302,0.806246881266));
#422 = CARTESIAN_POINT('',(2.222387514057,0.788538500665));
#423 = CARTESIAN_POINT('',(2.253588419815,0.770703314396));
#424 = CARTESIAN_POINT('',(2.30948043013,0.738345367309));
#425 = CARTESIAN_POINT('',(2.334299560262,0.723826190569));
#426 = CARTESIAN_POINT('',(2.358896562278,0.709348363208));
#427 = CARTESIAN_POINT('',(2.383283968812,0.694964158327));
#428 = CARTESIAN_POINT('',(2.407474142523,0.680722258398));
#429 = CARTESIAN_POINT('',(2.43147927609,0.666667755262));
#430 = CARTESIAN_POINT('',(2.492538148068,0.63124598033));
#431 = CARTESIAN_POINT('',(2.529344602809,0.610207555108));
#432 = CARTESIAN_POINT('',(2.565774363379,0.589887678834));
#433 = CARTESIAN_POINT('',(2.601867112859,0.570429909213));
#434 = CARTESIAN_POINT('',(2.637660477532,0.551961500226));
#435 = CARTESIAN_POINT('',(2.673191893963,0.534594345077));
#436 = CARTESIAN_POINT('',(2.771733903191,0.489470211402));
#437 = CARTESIAN_POINT('',(2.834264265038,0.464354040811));
#438 = CARTESIAN_POINT('',(2.896249292579,0.443670472286));
#439 = CARTESIAN_POINT('',(2.957835025557,0.427861328631));
#440 = CARTESIAN_POINT('',(3.019161106175,0.417220347428));
#441 = CARTESIAN_POINT('',(3.080366072788,0.411896337925));
#442 = CARTESIAN_POINT('',(3.190776411008,0.411896337925));
#443 = CARTESIAN_POINT('',(3.239952756975,0.415331886817));
#444 = CARTESIAN_POINT('',(3.28919236753,0.422201126132));
#445 = CARTESIAN_POINT('',(3.338564666622,0.432441516228));
#446 = CARTESIAN_POINT('',(3.38813944552,0.445929237805));
#447 = CARTESIAN_POINT('',(3.437988482224,0.462478593423));
#448 = CARTESIAN_POINT('',(3.517369668574,0.493097791258));
#449 = CARTESIAN_POINT('',(3.546671483838,0.505305428449));
#450 = CARTESIAN_POINT('',(3.57611218319,0.518417559932));
#451 = CARTESIAN_POINT('',(3.605710897628,0.532380710308));
#452 = CARTESIAN_POINT('',(3.635486905581,0.547134460902));
#453 = CARTESIAN_POINT('',(3.665460225859,0.562611221236));
#454 = CARTESIAN_POINT('',(3.714525994586,0.588816013552));
#455 = CARTESIAN_POINT('',(3.733485824419,0.59914954261));
#456 = CARTESIAN_POINT('',(3.752537267007,0.609718574933));
#457 = CARTESIAN_POINT('',(3.771686109684,0.620503890669));
#458 = CARTESIAN_POINT('',(3.790938360213,0.631485062859));
#459 = CARTESIAN_POINT('',(3.810300246784,0.642640457427));
#460 = CARTESIAN_POINT('',(3.853606461468,0.667779300311));
#461 = CARTESIAN_POINT('',(3.877608162166,0.681837566173));
#462 = CARTESIAN_POINT('',(3.901795341439,0.696080474065));
#463 = CARTESIAN_POINT('',(3.92618018251,0.710462873051));
#464 = CARTESIAN_POINT('',(3.950775030497,0.72493601797));
#465 = CARTESIAN_POINT('',(3.975592392414,0.739447569437));
#466 = CARTESIAN_POINT('',(4.031271916506,0.771660679477));
#467 = CARTESIAN_POINT('',(4.062257342173,0.789357393146));
#468 = CARTESIAN_POINT('',(4.093617797275,0.806925073645));
#469 = CARTESIAN_POINT('',(4.125370015712,0.824248054378));
#470 = CARTESIAN_POINT('',(4.157531661833,0.841202458613));
#471 = CARTESIAN_POINT('',(4.190122110096,0.857656994732));
#472 = CARTESIAN_POINT('',(4.26077423572,0.891478114203));
#473 = CARTESIAN_POINT('',(4.299012990749,0.908677089512));
#474 = CARTESIAN_POINT('',(4.337836499226,0.924826539684));
#475 = CARTESIAN_POINT('',(4.377210837314,0.939685434875));
#476 = CARTESIAN_POINT('',(4.417109564427,0.953023178103));
#477 = CARTESIAN_POINT('',(4.457512139752,0.96462693021));
#478 = CARTESIAN_POINT('',(4.557909379321,0.98839904582));
#479 = CARTESIAN_POINT('',(4.618431347385,0.998414899452));
#480 = CARTESIAN_POINT('',(4.679528456453,1.003689895753));
#481 = CARTESIAN_POINT('',(4.740817285341,1.003848776132));
#482 = CARTESIAN_POINT('',(4.801933399442,0.998883884441));
#483 = CARTESIAN_POINT('',(4.862493890091,0.989156192814));
#484 = CARTESIAN_POINT('',(4.963653771022,0.96566026414));
#485 = CARTESIAN_POINT('',(5.004748056291,0.954000099616));
#486 = CARTESIAN_POINT('',(5.045325135218,0.940535701378));
#487 = CARTESIAN_POINT('',(5.085362921968,0.925489593473));
#488 = CARTESIAN_POINT('',(5.124833033608,0.909103749369));
#489 = CARTESIAN_POINT('',(5.163699026228,0.891631620007));
#490 = CARTESIAN_POINT('',(5.235200292732,0.857389654107));
#491 = CARTESIAN_POINT('',(5.268028430727,0.840802760565));
#492 = CARTESIAN_POINT('',(5.300421495111,0.823710458754));
#493 = CARTESIAN_POINT('',(5.332399366608,0.806246881267));
#494 = CARTESIAN_POINT('',(5.363980167647,0.788538500665));
#495 = CARTESIAN_POINT('',(5.395181073407,0.770703314395));
#496 = CARTESIAN_POINT('',(5.45107308372,0.738345367309));
#497 = CARTESIAN_POINT('',(5.475892213852,0.723826190569));
#498 = CARTESIAN_POINT('',(5.500489215867,0.709348363208));
#499 = CARTESIAN_POINT('',(5.524876622401,0.694964158328));
#500 = CARTESIAN_POINT('',(5.549066796112,0.680722258398));
#501 = CARTESIAN_POINT('',(5.57307192968,0.666667755262));
#502 = CARTESIAN_POINT('',(5.700716047893,0.592618217819));
#503 = CARTESIAN_POINT('',(5.801432260417,0.536631457879));
#504 = CARTESIAN_POINT('',(5.899862067441,0.488462267393));
#505 = CARTESIAN_POINT('',(5.996645914856,0.450653055173));
#506 = CARTESIAN_POINT('',(6.092398156733,0.424845656797));
#507 = CARTESIAN_POINT('',(6.187697151484,0.411896337925));
#508 = CARTESIAN_POINT('',(6.28318530718,0.411896337925));
#509 = ( GEOMETRIC_REPRESENTATION_CONTEXT(2) 
PARAMETRIC_REPRESENTATION_CONTEXT() REPRESENTATION_CONTEXT('2D SPACE',''
  ) );
#510 = ADVANCED_FACE('',(#511,#514),#94,.F.);
#511 = FACE_BOUND('',#512,.F.);
#512 = EDGE_LOOP('',(#513));
#513 = ORIENTED_EDGE('',*,*,#79,.T.);
#514 = FACE_BOUND('',#515,.F.);
#515 = EDGE_LOOP('',(#516));
#516 = ORIENTED_EDGE('',*,*,#517,.F.);
#517 = EDGE_CURVE('',#518,#518,#520,.T.);
#518 = VERTEX_POINT('',#519);
#519 = CARTESIAN_POINT('',(313.23391822844,54.5,58.896942545958));
#520 = SURFACE_CURVE('',#521,(#526,#533),.PCURVE_S1.);
#521 = CIRCLE('',#522,4.1);
#522 = AXIS2_PLACEMENT_3D('',#523,#524,#525);
#523 = CARTESIAN_POINT('',(309.13391822844,54.5,58.896942545958));
#524 = DIRECTION('',(0.,1.,2.22044604925E-16));
#525 = DIRECTION('',(1.,0.,-0.));
#526 = PCURVE('',#94,#527);
#527 = DEFINITIONAL_REPRESENTATION('',(#528),#532);
#528 = CIRCLE('',#529,4.1);
#529 = AXIS2_PLACEMENT_2D('',#530,#531);
#530 = CARTESIAN_POINT('',(0.,0.));
#531 = DIRECTION('',(1.,0.));
#532 = ( GEOMETRIC_REPRESENTATION_CONTEXT(2) 
PARAMETRIC_REPRESENTATION_CONTEXT() REPRESENTATION_CONTEXT('2D SPACE',''
  ) );
#533 = PCURVE('',#534,#539);
#534 = CYLINDRICAL_SURFACE('',#535,4.1);
#535 = AXIS2_PLACEMENT_3D('',#536,#537,#538);
#536 = CARTESIAN_POINT('',(309.13391822844,50.5,58.896942545958));
#537 = DIRECTION('',(0.,1.,2.22044604925E-16));
#538 = DIRECTION('',(1.,0.,-0.));
#539 = DEFINITIONAL_REPRESENTATION('',(#540),#544);
#540 = LINE('',#541,#542);
#541 = CARTESIAN_POINT('',(0.,4.));
#542 = VECTOR('',#543,1.);
#543 = DIRECTION('',(1.,0.));
#544 = ( GEOMETRIC_REPRESENTATION_CONTEXT(2) 
PARAMETRIC_REPRESENTATION_CONTEXT() REPRESENTATION_CONTEXT('2D SPACE',''
  ) );
#545 = ADVANCED_FACE('',(#546,#549),#66,.T.);
#546 = FACE_BOUND('',#547,.T.);
#547 = EDGE_LOOP('',(#548));
#548 = ORIENTED_EDGE('',*,*,#51,.T.);
#549 = FACE_BOUND('',#550,.T.);
#550 = EDGE_LOOP('',(#551));
#551 = ORIENTED_EDGE('',*,*,#552,.F.);
#552 = EDGE_CURVE('',#553,#553,#555,.T.);
#553 = VERTEX_POINT('',#554);
#554 = CARTESIAN_POINT('',(313.23391822844,62.5,58.896942545958));
#555 = SURFACE_CURVE('',#556,(#561,#568),.PCURVE_S1.);
#556 = CIRCLE('',#557,4.1);
#557 = AXIS2_PLACEMENT_3D('',#558,#559,#560);
#558 = CARTESIAN_POINT('',(309.13391822844,62.5,58.896942545958));
#559 = DIRECTION('',(0.,1.,2.22044604925E-16));
#560 = DIRECTION('',(1.,0.,-0.));
#561 = PCURVE('',#66,#562);
#562 = DEFINITIONAL_REPRESENTATION('',(#563),#567);
#563 = CIRCLE('',#564,4.1);
#564 = AXIS2_PLACEMENT_2D('',#565,#566);
#565 = CARTESIAN_POINT('',(0.,0.));
#566 = DIRECTION('',(1.,0.));
#567 = ( GEOMETRIC_REPRESENTATION_CONTEXT(2) 
PARAMETRIC_REPRESENTATION_CONTEXT() REPRESENTATION_CONTEXT('2D SPACE',''
  ) );
#568 = PCURVE('',#534,#569);
#569 = DEFINITIONAL_REPRESENTATION('',(#570),#574);
#570 = LINE('',#571,#572);
#571 = CARTESIAN_POINT('',(0.,12.));
#572 = VECTOR('',#573,1.);
#573 = DIRECTION('',(1.,0.));
#574 = ( GEOMETRIC_REPRESENTATION_CONTEXT(2) 
PARAMETRIC_REPRESENTATION_CONTEXT() REPRESENTATION_CONTEXT('2D SPACE',''
  ) );
#575 = ADVANCED_FACE('',(#576),#374,.T.);
#576 = FACE_BOUND('',#577,.T.);
#577 = EDGE_LOOP('',(#578,#601,#628,#629));
#578 = ORIENTED_EDGE('',*,*,#579,.T.);
#579 = EDGE_CURVE('',#109,#580,#582,.T.);
#580 = VERTEX_POINT('',#581);
#581 = CARTESIAN_POINT('',(312.33391822844,58.5,185.));
#582 = SEAM_CURVE('',#583,(#587,#594),.PCURVE_S1.);
#583 = LINE('',#584,#585);
#584 = CARTESIAN_POINT('',(312.33391822844,58.5,66.896942545958));
#585 = VECTOR('',#586,1.);
#586 = DIRECTION('',(0.,0.,1.));
#587 = PCURVE('',#374,#588);
#588 = DEFINITIONAL_REPRESENTATION('',(#589),#593);
#589 = LINE('',#590,#591);
#590 = CARTESIAN_POINT('',(6.28318530718,-0.));
#591 = VECTOR('',#592,1.);
#592 = DIRECTION('',(0.,1.));
#593 = ( GEOMETRIC_REPRESENTATION_CONTEXT(2) 
PARAMETRIC_REPRESENTATION_CONTEXT() REPRESENTATION_CONTEXT('2D SPACE',''
  ) );
#594 = PCURVE('',#374,#595);
#595 = DEFINITIONAL_REPRESENTATION('',(#596),#600);
#596 = LINE('',#597,#598);
#597 = CARTESIAN_POINT('',(0.,-0.));
#598 = VECTOR('',#599,1.);
#599 = DIRECTION('',(0.,1.));
#600 = ( GEOMETRIC_REPRESENTATION_CONTEXT(2) 
PARAMETRIC_REPRESENTATION_CONTEXT() REPRESENTATION_CONTEXT('2D SPACE',''
  ) );
#601 = ORIENTED_EDGE('',*,*,#602,.F.);
#602 = EDGE_CURVE('',#580,#580,#603,.T.);
#603 = SURFACE_CURVE('',#604,(#609,#616),.PCURVE_S1.);
#604 = CIRCLE('',#605,3.2);
#605 = AXIS2_PLACEMENT_3D('',#606,#607,#608);
#606 = CARTESIAN_POINT('',(309.13391822844,58.5,185.));
#607 = DIRECTION('',(0.,0.,1.));
#608 = DIRECTION('',(1.,0.,-0.));
#609 = PCURVE('',#374,#610);
#610 = DEFINITIONAL_REPRESENTATION('',(#611),#615);
#611 = LINE('',#612,#613);
#612 = CARTESIAN_POINT('',(0.,118.10305745404));
#613 = VECTOR('',#614,1.);
#614 = DIRECTION('',(1.,0.));
#615 = ( GEOMETRIC_REPRESENTATION_CONTEXT(2) 
PARAMETRIC_REPRESENTATION_CONTEXT() REPRESENTATION_CONTEXT('2D SPACE',''
  ) );
#616 = PCURVE('',#617,#622);
#617 = PLANE('',#618);
#618 = AXIS2_PLACEMENT_3D('',#619,#620,#621);
#619 = CARTESIAN_POINT('',(309.13391822844,58.5,185.));
#620 = DIRECTION('',(0.,0.,1.));
#621 = DIRECTION('',(1.,0.,-0.));
#622 = DEFINITIONAL_REPRESENTATION('',(#623),#627);
#623 = CIRCLE('',#624,3.2);
#624 = AXIS2_PLACEMENT_2D('',#625,#626);
#625 = CARTESIAN_POINT('',(0.,0.));
#626 = DIRECTION('',(1.,0.));
#627 = ( GEOMETRIC_REPRESENTATION_CONTEXT(2) 
PARAMETRIC_REPRESENTATION_CONTEXT() REPRESENTATION_CONTEXT('2D SPACE',''
  ) );
#628 = ORIENTED_EDGE('',*,*,#579,.F.);
#629 = ORIENTED_EDGE('',*,*,#108,.T.);
#630 = ADVANCED_FACE('',(#631),#534,.F.);
#631 = FACE_BOUND('',#632,.F.);
#632 = EDGE_LOOP('',(#633,#634,#655,#656));
#633 = ORIENTED_EDGE('',*,*,#552,.F.);
#634 = ORIENTED_EDGE('',*,*,#635,.F.);
#635 = EDGE_CURVE('',#518,#553,#636,.T.);
#636 = SEAM_CURVE('',#637,(#641,#648),.PCURVE_S1.);
#637 = LINE('',#638,#639);
#638 = CARTESIAN_POINT('',(313.23391822844,50.5,58.896942545958));
#639 = VECTOR('',#640,1.);
#640 = DIRECTION('',(0.,1.,2.22044604925E-16));
#641 = PCURVE('',#534,#642);
#642 = DEFINITIONAL_REPRESENTATION('',(#643),#647);
#643 = LINE('',#644,#645);
#644 = CARTESIAN_POINT('',(6.28318530718,-0.));
#645 = VECTOR('',#646,1.);
#646 = DIRECTION('',(0.,1.));
#647 = ( GEOMETRIC_REPRESENTATION_CONTEXT(2) 
PARAMETRIC_REPRESENTATION_CONTEXT() REPRESENTATION_CONTEXT('2D SPACE',''
  ) );
#648 = PCURVE('',#534,#649);
#649 = DEFINITIONAL_REPRESENTATION('',(#650),#654);
#650 = LINE('',#651,#652);
#651 = CARTESIAN_POINT('',(0.,-0.));
#652 = VECTOR('',#653,1.);
#653 = DIRECTION('',(0.,1.));
#654 = ( GEOMETRIC_REPRESENTATION_CONTEXT(2) 
PARAMETRIC_REPRESENTATION_CONTEXT() REPRESENTATION_CONTEXT('2D SPACE',''
  ) );
#655 = ORIENTED_EDGE('',*,*,#517,.T.);
#656 = ORIENTED_EDGE('',*,*,#635,.T.);
#657 = ADVANCED_FACE('',(#658),#617,.T.);
#658 = FACE_BOUND('',#659,.T.);
#659 = EDGE_LOOP('',(#660));
#660 = ORIENTED_EDGE('',*,*,#602,.T.);
#661 = ( GEOMETRIC_REPRESENTATION_CONTEXT(3) 
GLOBAL_UNCERTAINTY_ASSIGNED_CONTEXT((#665)) GLOBAL_UNIT_ASSIGNED_CONTEXT
((#662,#663,#664)) REPRESENTATION_CONTEXT('Context #1',
  '3D Context with UNIT and UNCERTAINTY') );
#662 = ( LENGTH_UNIT() NAMED_UNIT(*) SI_UNIT(.MILLI.,.METRE.) );
#663 = ( NAMED_UNIT(*) PLANE_ANGLE_UNIT() SI_UNIT($,.RADIAN.) );
#664 = ( NAMED_UNIT(*) SI_UNIT($,.STERADIAN.) SOLID_ANGLE_UNIT() );
#665 = UNCERTAINTY_MEASURE_WITH_UNIT(LENGTH_MEASURE(1.E-07),#662,
  'distance_accuracy_value','confusion accuracy');
#666 = PRODUCT_RELATED_PRODUCT_CATEGORY('part',$,(#7));
ENDSEC;
END-ISO-10303-21;
