<?xml version="1.0" encoding="utf-8" ?>
<svg baseProfile="full" height="620" version="1.1" width="1400" xmlns="http://www.w3.org/2000/svg" xmlns:ev="http://www.w3.org/2001/xml-events" xmlns:xlink="http://www.w3.org/1999/xlink"><defs /><rect fill="white" height="620" width="1400" x="0" y="0" /><line stroke="black" stroke-dasharray="12,3,3,3" stroke-width="0.6" x1="40" x2="1360.0" y1="200" y2="200" /><rect fill="#e8e8e8" height="136.89839572192514" stroke="black" stroke-width="1" width="1280.0" x="60" y="131.55080213903744" /><text font-family="DejaVu Sans" font-size="9" text-anchor="middle" x="700.0" y="204">Ø2</text><line stroke="#0050a0" stroke-width="0.8" x1="60" x2="1340.0" y1="290.44919786096256" y2="290.44919786096256" /><line stroke="#0050a0" stroke-width="0.8" x1="60" x2="60" y1="286.44919786096256" y2="294.44919786096256" /><line stroke="#0050a0" stroke-width="0.8" x1="1340.0" x2="1340.0" y1="286.44919786096256" y2="294.44919786096256" /><text fill="#0050a0" font-family="DejaVu Sans" font-size="9" text-anchor="middle" x="700.0" y="287.44919786096256">18.7</text><line stroke="#0050a0" stroke-width="0.8" x1="60" x2="1340.0" y1="60" y2="60" /><line stroke="#0050a0" stroke-width="0.8" x1="60" x2="60" y1="56" y2="64" /><line stroke="#0050a0" stroke-width="0.8" x1="1340.0" x2="1340.0" y1="56" y2="64" /><text fill="#0050a0" font-family="DejaVu Sans" font-size="9" text-anchor="middle" x="700.0" y="57">Largo total 18.7</text><g font-family="DejaVu Sans" font-size="11"><rect fill="none" height="100" stroke="black" width="420" x="970" y="510" /><text font-size="12" font-weight="bold" x="978" y="528">P1-PRP-04  shear_pin</text><text font-size="10" font-weight="normal" x="978" y="545">Material: AISI 316</text><text font-size="10" font-weight="normal" x="978" y="562">Escala 68.45:1 (pantalla)  —  cotas en mm</text><text font-size="10" font-weight="normal" x="978" y="579">Tolerancias generales ISO 2768-m; aristas matadas 0.3×45°; Ra 1.6 en asientos</text><text font-size="10" font-weight="normal" x="978" y="596">P1 propulsión — generado por 04_diseno/planos.py desde inputs.yaml</text><text font-size="10" x="20" y="510">• Corta a 12.4 N·m (2× torque máx. normal); llevar 5 de repuesto</text><text font-size="10" x="20" y="525">• Mismo metal que el eje (sin par galvánico); NO reemplazar por uno más grueso ni de acero templado</text></g></svg>