<?xml version="1.0" encoding="utf-8" ?>
<svg baseProfile="full" height="620" version="1.1" width="1400" xmlns="http://www.w3.org/2000/svg" xmlns:ev="http://www.w3.org/2001/xml-events" xmlns:xlink="http://www.w3.org/1999/xlink"><defs /><rect fill="white" height="620" width="1400" x="0" y="0" /><line stroke="black" stroke-dasharray="12,3,3,3" stroke-width="0.6" x1="40" x2="321.15266536421996" y1="200" y2="200" /><rect fill="#e8e8e8" height="220.0" stroke="black" stroke-width="1" width="1.9955344683226413" x="60" y="90.0" /><text font-family="DejaVu Sans" font-size="9" text-anchor="middle" x="60.99776723416132" y="204">Ø143.32</text><line stroke="#0050a0" stroke-width="0.8" x1="60" x2="61.99553446832264" y1="332.0" y2="332.0" /><line stroke="#0050a0" stroke-width="0.8" x1="60" x2="60" y1="328.0" y2="336.0" /><line stroke="#0050a0" stroke-width="0.8" x1="61.99553446832264" x2="61.99553446832264" y1="328.0" y2="336.0" /><text fill="#0050a0" font-family="DejaVu Sans" font-size="9" text-anchor="middle" x="60.997767234161316" y="329.0">1.3</text><text fill="#444" font-family="DejaVu Sans" font-size="8" x="62" y="80.0">camisa</text><rect fill="#e8e8e8" height="220.0" stroke="black" stroke-width="1" width="121.5740999162713" x="61.99553446832264" y="90.0" /><text font-family="DejaVu Sans" font-size="9" text-anchor="middle" x="122.78258442645829" y="204">Ø143.32</text><line stroke="#0050a0" stroke-width="0.8" x1="60" x2="183.56963438459394" y1="348.0" y2="348.0" /><line stroke="#0050a0" stroke-width="0.8" x1="60" x2="60" y1="344.0" y2="352.0" /><line stroke="#0050a0" stroke-width="0.8" x1="183.56963438459394" x2="183.56963438459394" y1="344.0" y2="352.0" /><text fill="#0050a0" font-family="DejaVu Sans" font-size="9" text-anchor="middle" x="121.78481719229697" y="345.0">80.5</text><text fill="#444" font-family="DejaVu Sans" font-size="8" x="63.99553446832264" y="68.0">camisa + 7 álabes</text><rect fill="#e8e8e8" height="101.31174993022607" stroke="black" stroke-width="1" width="6.140106056377338" x="183.56963438459394" y="149.34412503488696" /><text font-family="DejaVu Sans" font-size="9" text-anchor="middle" x="186.63968741278262" y="204">Ø66</text><line stroke="#0050a0" stroke-width="0.8" x1="60" x2="189.70974044097127" y1="364.0" y2="364.0" /><line stroke="#0050a0" stroke-width="0.8" x1="60" x2="60" y1="360.0" y2="368.0" /><line stroke="#0050a0" stroke-width="0.8" x1="189.70974044097127" x2="189.70974044097127" y1="360.0" y2="368.0" /><text fill="#0050a0" font-family="DejaVu Sans" font-size="9" text-anchor="middle" x="124.85487022048564" y="361.0">84.5</text><text fill="#444" font-family="DejaVu Sans" font-size="8" x="185.56963438459394" y="56.0">cubo</text><rect fill="#e8e8e8" height="15.365615406084288" stroke="black" stroke-width="1" width="111.44292492324867" x="189.70974044097127" y="192.31719229695784" /><text font-family="DejaVu Sans" font-size="9" text-anchor="middle" x="245.4312029025956" y="204">Ø10.01</text><line stroke="#0050a0" stroke-width="0.8" x1="60" x2="301.15266536421996" y1="380.0" y2="380.0" /><line stroke="#0050a0" stroke-width="0.8" x1="60" x2="60" y1="376.0" y2="384.0" /><line stroke="#0050a0" stroke-width="0.8" x1="301.15266536421996" x2="301.15266536421996" y1="376.0" y2="384.0" /><text fill="#0050a0" font-family="DejaVu Sans" font-size="9" text-anchor="middle" x="180.57633268210998" y="377.0">157.1</text><text fill="#444" font-family="DejaVu Sans" font-size="8" x="191.70974044097127" y="80.0">cono de cola Ø66→Ø10</text><line stroke="red" stroke-width="0.8" x1="61.99553446832264" x2="61.99553446832264" y1="40.0" y2="200" /><text fill="red" font-family="DejaVu Sans" font-size="9" x="64.99553446832263" y="38.0">alojamiento buje Ø28 H7 hasta X 105,3</text><line stroke="red" stroke-width="0.8" x1="118.79151548981301" x2="118.79151548981301" y1="40.0" y2="200" /><text fill="red" font-family="DejaVu Sans" font-size="9" x="121.79151548981301" y="38.0">2 × M5 ciegos 3 mm (±Y)</text><line stroke="red" stroke-width="0.8" x1="168.2193692436506" x2="168.2193692436506" y1="40.0" y2="200" /><text fill="red" font-family="DejaVu Sans" font-size="9" x="171.2193692436506" y="38.0">Ø5 arriba (puerto de agua)</text><line stroke="#0050a0" stroke-width="0.8" x1="60" x2="301.15266536421996" y1="60" y2="60" /><line stroke="#0050a0" stroke-width="0.8" x1="60" x2="60" y1="56" y2="64" /><line stroke="#0050a0" stroke-width="0.8" x1="301.15266536421996" x2="301.15266536421996" y1="56" y2="64" /><text fill="#0050a0" font-family="DejaVu Sans" font-size="9" text-anchor="middle" x="180.57633268210998" y="57">Largo total 157.1</text><g font-family="DejaVu Sans" font-size="11"><rect fill="none" height="100" stroke="black" width="420" x="970" y="510" /><text font-size="12" font-weight="bold" x="978" y="528">P1-PMP-06  stator</text><text font-size="10" font-weight="normal" x="978" y="545">Material: Al 6061-T6, CNC 5 ejes, anodizado duro</text><text font-size="10" font-weight="normal" x="978" y="562">Escala 1.54:1 (pantalla)  —  cotas en mm</text><text font-size="10" font-weight="normal" x="978" y="579">Tolerancias generales ISO 2768-m; aristas matadas 0.3×45°; Ra 1.6 en asientos</text><text font-size="10" font-weight="normal" x="978" y="596">P1-J waterjet — generado por 04_diseno/planos.py desde inputs.yaml</text><text font-size="10" x="20" y="510">• Camisa Ø143,32 g6 × Ø133,32; cubo Ø66; agujero de salida de agua Ø6 en la punta.</text><text font-size="10" x="20" y="525">• Ángulos de álabe: ver P1-PMP-03_tabla_angulos_alabes. Concentricidad buje ↔ camisa ≤ 0,03 TIR.</text></g></svg>