<?xml version="1.0" encoding="utf-8" ?>
<svg baseProfile="full" height="1500" version="1.1" width="1700" xmlns="http://www.w3.org/2000/svg" xmlns:ev="http://www.w3.org/2001/xml-events" xmlns:xlink="http://www.w3.org/1999/xlink"><defs /><rect fill="white" height="1500" width="1700" x="0" y="0" /><g font-family="DejaVu Sans" font-size="11"><text font-size="14" font-weight="bold" x="20" y="30">IMPULSOR P1-PMP-03 — 5 álabes, Ø132,0 (punta), cubo Ø66,0, 5073 rpm de diseño, giro antihorario visto desde popa (+X, regla de la mano derecha)</text><text x="20" y="48">Ángulos medidos DESDE LA TANGENCIAL (plano ⟂ al eje); ángulo de calado desde el eje = 90° − β. β flujo = triángulos de sizing (torbellino libre); β pala = flujo + incidencia 3° (entrada) y + desviación de Constant (salida), R12 §2.5.</text><text x="20" y="64">Perfil: línea media de arco circular (β lineal con el arco) + espesor NACA 00xx (BA redondeado, r_BA ≈ 1,1·(t/c)²·c); BA apilado radial en X = 2,0 mm (marco JET, X a popa), θ = 0 en +Y.</text><text font-weight="bold" x="20" y="90">Sección</text><text font-weight="bold" x="110" y="90">r mm</text><text font-weight="bold" x="170" y="90">U m/s</text><text font-weight="bold" x="230" y="90">c_m</text><text font-weight="bold" x="290" y="90">c_u2</text><text font-weight="bold" x="350" y="90">β1 flujo</text><text font-weight="bold" x="430" y="90">β2 flujo</text><text font-weight="bold" x="510" y="90">β1 pala</text><text font-weight="bold" x="590" y="90">β2 pala</text><text font-weight="bold" x="670" y="90">δ</text><text font-weight="bold" x="730" y="90">calado</text><text font-weight="bold" x="810" y="90">cuerda</text><text font-weight="bold" x="880" y="90">t máx</text><text font-weight="bold" x="950" y="90">t/c</text><text font-weight="bold" x="1010" y="90">solidez</text><text font-weight="bold" x="1080" y="90">paso</text><text font-weight="bold" x="1150" y="90">D_f</text><text font-weight="bold" x="1210" y="90">w2/w1</text><text x="20" y="106">cubo</text><text x="110" y="106">33,0</text><text x="170" y="106">17,5</text><text x="230" y="106">9,35</text><text x="290" y="106">6,90</text><text x="350" y="106">28,1°</text><text x="430" y="106">41,3°</text><text x="510" y="106">31,1°</text><text x="590" y="106">44,4°</text><text x="670" y="106">3,0°</text><text x="730" y="106">52,3°</text><text x="810" y="106">53,9</text><text x="880" y="106">4,31</text><text x="950" y="106">0,080</text><text x="1010" y="106">1,30</text><text x="1080" y="106">41,5</text><text x="1150" y="106">0,42</text><text x="1210" y="106">0,71</text><text x="20" y="122">medio</text><text x="110" y="122">52,2</text><text x="170" y="122">27,7</text><text x="230" y="122">9,35</text><text x="290" y="122">4,37</text><text x="350" y="122">18,6°</text><text x="430" y="122">21,8°</text><text x="510" y="122">21,6°</text><text x="590" y="122">21,9°</text><text x="670" y="122">0,1°</text><text x="730" y="122">68,2°</text><text x="810" y="122">62,3</text><text x="880" y="122">3,74</text><text x="950" y="122">0,060</text><text x="1010" y="122">0,95</text><text x="1080" y="122">65,6</text><text x="1150" y="122">0,22</text><text x="1210" y="122">0,86</text><text x="20" y="138">punta</text><text x="110" y="138">66,0</text><text x="170" y="138">35,1</text><text x="230" y="138">9,35</text><text x="290" y="138">3,45</text><text x="350" y="138">14,9°</text><text x="430" y="138">16,5°</text><text x="510" y="138">17,9°</text><text x="590" y="138">15,8°</text><text x="670" y="138">-0,7°</text><text x="730" y="138">73,1°</text><text x="810" y="138">58,1</text><text x="880" y="138">2,90</text><text x="950" y="138">0,050</text><text x="1010" y="138">0,70</text><text x="1080" y="138">82,9</text><text x="1150" y="138">0,16</text><text x="1210" y="138">0,91</text><text font-weight="bold" x="20" y="168">Impulsor — sección cubo: r = 33,00 mm (cilindro), cuerda 53,9 mm, t máx 4,31 mm</text><text x="20" y="183">s/c</text><text x="80" y="183">X mm</text><text x="150" y="183">θ °</text><text x="220" y="183">β pala °</text><text x="310" y="183">espesor mm</text><text x="420" y="183">0,0</text><text x="420" y="197">X 2,00</text><text x="420" y="211">θ 0,00</text><text x="420" y="225">β 31,1</text><text x="420" y="239">t 0,00</text><text x="535" y="183">0,1</text><text x="535" y="197">X 4,84</text><text x="535" y="211">θ -7,96</text><text x="535" y="225">β 32,4</text><text x="535" y="239">t 3,37</text><text x="650" y="183">0,2</text><text x="650" y="197">X 7,78</text><text x="650" y="211">θ -15,81</text><text x="650" y="225">β 33,7</text><text x="650" y="239">t 4,12</text><text x="765" y="183">0,3</text><text x="765" y="197">X 10,82</text><text x="765" y="211">θ -23,53</text><text x="765" y="225">β 35,1</text><text x="765" y="239">t 4,31</text><text x="880" y="183">0,4</text><text x="880" y="197">X 13,97</text><text x="880" y="211">θ -31,13</text><text x="880" y="225">β 36,4</text><text x="880" y="239">t 4,17</text><text x="995" y="183">0,5</text><text x="995" y="197">X 17,22</text><text x="995" y="211">θ -38,60</text><text x="995" y="225">β 37,7</text><text x="995" y="239">t 3,81</text><text x="1110" y="183">0,6</text><text x="1110" y="197">X 20,56</text><text x="1110" y="211">θ -45,94</text><text x="1110" y="225">β 39,0</text><text x="1110" y="239">t 3,28</text><text x="1225" y="183">0,7</text><text x="1225" y="197">X 24,01</text><text x="1225" y="211">θ -53,14</text><text x="1225" y="225">β 40,4</text><text x="1225" y="239">t 2,63</text><text x="1340" y="183">0,8</text><text x="1340" y="197">X 27,55</text><text x="1340" y="211">θ -60,20</text><text x="1340" y="225">β 41,7</text><text x="1340" y="239">t 1,89</text><text x="1455" y="183">0,9</text><text x="1455" y="197">X 31,18</text><text x="1455" y="211">θ -67,11</text><text x="1455" y="225">β 43,0</text><text x="1455" y="239">t 1,04</text><text x="1570" y="183">1,0</text><text x="1570" y="197">X 34,90</text><text x="1570" y="211">θ -73,88</text><text x="1570" y="225">β 44,4</text><text x="1570" y="239">t 0,09</text><text font-weight="bold" x="20" y="259">Impulsor — sección medio: r = 52,18 mm (cilindro), cuerda 62,3 mm, t máx 3,74 mm</text><text x="20" y="274">s/c</text><text x="80" y="274">X mm</text><text x="150" y="274">θ °</text><text x="220" y="274">β pala °</text><text x="310" y="274">espesor mm</text><text x="420" y="274">0,0</text><text x="420" y="288">X 2,00</text><text x="420" y="302">θ 0,00</text><text x="420" y="316">β 21,6</text><text x="420" y="330">t 0,00</text><text x="535" y="274">0,1</text><text x="535" y="288">X 4,30</text><text x="535" y="302">θ -6,36</text><text x="535" y="316">β 21,7</text><text x="535" y="330">t 2,92</text><text x="650" y="274">0,2</text><text x="650" y="288">X 6,60</text><text x="650" y="302">θ -12,71</text><text x="650" y="316">β 21,7</text><text x="650" y="330">t 3,57</text><text x="765" y="274">0,3</text><text x="765" y="288">X 8,90</text><text x="765" y="302">θ -19,07</text><text x="765" y="316">β 21,7</text><text x="765" y="330">t 3,74</text><text x="880" y="274">0,4</text><text x="880" y="288">X 11,21</text><text x="880" y="302">θ -25,42</text><text x="880" y="316">β 21,7</text><text x="880" y="330">t 3,61</text><text x="995" y="274">0,5</text><text x="995" y="288">X 13,51</text><text x="995" y="302">θ -31,78</text><text x="995" y="316">β 21,8</text><text x="995" y="330">t 3,30</text><text x="1110" y="274">0,6</text><text x="1110" y="288">X 15,82</text><text x="1110" y="302">θ -38,13</text><text x="1110" y="316">β 21,8</text><text x="1110" y="330">t 2,84</text><text x="1225" y="274">0,7</text><text x="1225" y="288">X 18,14</text><text x="1225" y="302">θ -44,48</text><text x="1225" y="316">β 21,8</text><text x="1225" y="330">t 2,28</text><text x="1340" y="274">0,8</text><text x="1340" y="288">X 20,45</text><text x="1340" y="302">θ -50,83</text><text x="1340" y="316">β 21,8</text><text x="1340" y="330">t 1,63</text><text x="1455" y="274">0,9</text><text x="1455" y="288">X 22,77</text><text x="1455" y="302">θ -57,18</text><text x="1455" y="316">β 21,9</text><text x="1455" y="330">t 0,90</text><text x="1570" y="274">1,0</text><text x="1570" y="288">X 25,09</text><text x="1570" y="302">θ -63,53</text><text x="1570" y="316">β 21,9</text><text x="1570" y="330">t 0,08</text><text font-weight="bold" x="20" y="350">Impulsor — sección punta: r = 66,00 mm (cilindro), cuerda 58,1 mm, t máx 2,90 mm</text><text x="20" y="365">s/c</text><text x="80" y="365">X mm</text><text x="150" y="365">θ °</text><text x="220" y="365">β pala °</text><text x="310" y="365">espesor mm</text><text x="420" y="365">0,0</text><text x="420" y="379">X 2,00</text><text x="420" y="393">θ 0,00</text><text x="420" y="407">β 17,9</text><text x="420" y="421">t 0,00</text><text x="535" y="365">0,1</text><text x="535" y="379">X 3,78</text><text x="535" y="393">θ -4,80</text><text x="535" y="407">β 17,7</text><text x="535" y="421">t 2,27</text><text x="650" y="365">0,2</text><text x="650" y="379">X 5,53</text><text x="650" y="393">θ -9,60</text><text x="650" y="407">β 17,5</text><text x="650" y="421">t 2,78</text><text x="765" y="365">0,3</text><text x="765" y="379">X 7,27</text><text x="765" y="393">θ -14,41</text><text x="765" y="407">β 17,3</text><text x="765" y="421">t 2,90</text><text x="880" y="365">0,4</text><text x="880" y="379">X 8,98</text><text x="880" y="393">θ -19,23</text><text x="880" y="407">β 17,1</text><text x="880" y="421">t 2,81</text><text x="995" y="365">0,5</text><text x="995" y="379">X 10,68</text><text x="995" y="393">θ -24,05</text><text x="995" y="407">β 16,9</text><text x="995" y="421">t 2,56</text><text x="1110" y="365">0,6</text><text x="1110" y="379">X 12,35</text><text x="1110" y="393">θ -28,87</text><text x="1110" y="407">β 16,7</text><text x="1110" y="421">t 2,21</text><text x="1225" y="365">0,7</text><text x="1225" y="379">X 14,01</text><text x="1225" y="393">θ -33,70</text><text x="1225" y="407">β 16,4</text><text x="1225" y="421">t 1,77</text><text x="1340" y="365">0,8</text><text x="1340" y="379">X 15,64</text><text x="1340" y="393">θ -38,54</text><text x="1340" y="407">β 16,2</text><text x="1340" y="421">t 1,27</text><text x="1455" y="365">0,9</text><text x="1455" y="379">X 17,26</text><text x="1455" y="393">θ -43,38</text><text x="1455" y="407">β 16,0</text><text x="1455" y="421">t 0,70</text><text x="1570" y="365">1,0</text><text x="1570" y="379">X 18,85</text><text x="1570" y="393">θ -48,23</text><text x="1570" y="407">β 15,8</text><text x="1570" y="421">t 0,06</text><text x="20" y="441">θ negativo = hacia atrás respecto del giro (el álabe se tuerce contra el sentido de giro hacia la salida). Punta tornear a Ø132,00 −0/−0,02 contra el anillo de desgaste (holgura radial 0,40 ± 0,05).</text><text x="20" y="457">Radio de acuerdo álabe–cubo R 2–3 mm; borde de fuga ≥ 0,3 mm; Ra ≤ 1,6 en caras de presión/succión; balanceo estático + dinámico G 6.3 (ISO 1940) [ESTIMADO]. Alternativa: SLM 316L + mecanizado (R11 §6).</text><text font-size="14" font-weight="bold" x="20" y="493">ESTATOR P1-PMP-06 — 7 álabes (coprimo con 5), entrada = stator_inlet_deg de sizing, salida axial con sobregiro δ ≤ 8° (R12 §3.2); BA apilado en X = 64,3</text><text font-weight="bold" x="20" y="515">Sección</text><text font-weight="bold" x="110" y="515">r mm</text><text font-weight="bold" x="180" y="515">c_u2 m/s</text><text font-weight="bold" x="270" y="515">α entrada</text><text font-weight="bold" x="360" y="515">α salida</text><text font-weight="bold" x="450" y="515">sobregiro</text><text font-weight="bold" x="540" y="515">cuerda</text><text font-weight="bold" x="620" y="515">t máx</text><text font-weight="bold" x="700" y="515">t/c</text><text font-weight="bold" x="760" y="515">solidez</text><text font-weight="bold" x="840" y="515">paso</text><text x="20" y="531">cubo</text><text x="110" y="531">33,0</text><text x="180" y="531">6,90</text><text x="270" y="531">53,5°</text><text x="360" y="531">98,0°</text><text x="450" y="531">8,0°</text><text x="540" y="531">44,4</text><text x="620" y="531">4,44</text><text x="700" y="531">0,100</text><text x="760" y="531">1,50</text><text x="840" y="531">29,6</text><text x="20" y="547">medio</text><text x="110" y="547">52,2</text><text x="180" y="547">4,37</text><text x="270" y="547">65,0°</text><text x="360" y="547">97,8°</text><text x="450" y="547">7,8°</text><text x="540" y="547">56,2</text><text x="620" y="547">5,06</text><text x="700" y="547">0,090</text><text x="760" y="547">1,20</text><text x="840" y="547">46,8</text><text x="20" y="563">punta</text><text x="110" y="563">66,4</text><text x="180" y="563">3,43</text><text x="270" y="563">69,8°</text><text x="360" y="563">97,1°</text><text x="450" y="563">7,1°</text><text x="540" y="563">59,6</text><text x="620" y="563">4,77</text><text x="700" y="563">0,080</text><text x="760" y="563">1,00</text><text x="840" y="563">59,6</text><text font-weight="bold" x="20" y="593">Estator — sección cubo: r = 33,00 mm</text><text x="420" y="608">0,0</text><text x="420" y="622">X 64,30</text><text x="420" y="636">θ 0,00</text><text x="420" y="650">α 53,5</text><text x="420" y="664">t 0,00</text><text x="535" y="608">0,1</text><text x="535" y="622">X 67,97</text><text x="535" y="636">θ 4,34</text><text x="535" y="650">α 58,0</text><text x="535" y="664">t 3,47</text><text x="650" y="608">0,2</text><text x="650" y="622">X 71,83</text><text x="650" y="636">θ 8,17</text><text x="650" y="650">α 62,4</text><text x="650" y="664">t 4,25</text><text x="765" y="608">0,3</text><text x="765" y="622">X 75,84</text><text x="765" y="636">θ 11,47</text><text x="765" y="650">α 66,9</text><text x="765" y="664">t 4,44</text><text x="880" y="608">0,4</text><text x="880" y="622">X 79,99</text><text x="880" y="636">θ 14,22</text><text x="880" y="650">α 71,3</text><text x="880" y="664">t 4,30</text><text x="995" y="608">0,5</text><text x="995" y="622">X 84,25</text><text x="995" y="636">θ 16,40</text><text x="995" y="650">α 75,8</text><text x="995" y="664">t 3,92</text><text x="1110" y="608">0,6</text><text x="1110" y="622">X 88,60</text><text x="1110" y="636">θ 18,01</text><text x="1110" y="650">α 80,2</text><text x="1110" y="664">t 3,38</text><text x="1225" y="608">0,7</text><text x="1225" y="622">X 93,00</text><text x="1225" y="636">θ 19,02</text><text x="1225" y="650">α 84,7</text><text x="1225" y="664">t 2,71</text><text x="1340" y="608">0,8</text><text x="1340" y="622">X 97,44</text><text x="1340" y="636">θ 19,44</text><text x="1340" y="650">α 89,1</text><text x="1340" y="664">t 1,94</text><text x="1455" y="608">0,9</text><text x="1455" y="622">X 101,88</text><text x="1455" y="636">θ 19,26</text><text x="1455" y="650">α 93,6</text><text x="1455" y="664">t 1,07</text><text x="1570" y="608">1,0</text><text x="1570" y="622">X 106,30</text><text x="1570" y="636">θ 18,49</text><text x="1570" y="650">α 98,0</text><text x="1570" y="664">t 0,09</text><text font-weight="bold" x="20" y="684">Estator — sección medio: r = 52,18 mm</text><text x="420" y="699">0,0</text><text x="420" y="713">X 64,30</text><text x="420" y="727">θ 0,00</text><text x="420" y="741">α 65,0</text><text x="420" y="755">t 0,00</text><text x="535" y="699">0,1</text><text x="535" y="713">X 69,46</text><text x="535" y="727">θ 2,45</text><text x="535" y="741">α 68,2</text><text x="535" y="755">t 3,95</text><text x="650" y="699">0,2</text><text x="650" y="713">X 74,73</text><text x="650" y="727">θ 4,57</text><text x="650" y="741">α 71,5</text><text x="650" y="755">t 4,84</text><text x="765" y="699">0,3</text><text x="765" y="713">X 80,11</text><text x="765" y="727">θ 6,36</text><text x="765" y="741">α 74,8</text><text x="765" y="755">t 5,06</text><text x="880" y="699">0,4</text><text x="880" y="713">X 85,58</text><text x="880" y="727">θ 7,81</text><text x="880" y="741">α 78,1</text><text x="880" y="755">t 4,89</text><text x="995" y="699">0,5</text><text x="995" y="713">X 91,10</text><text x="995" y="727">θ 8,90</text><text x="995" y="741">α 81,4</text><text x="995" y="755">t 4,46</text><text x="1110" y="699">0,6</text><text x="1110" y="713">X 96,68</text><text x="1110" y="727">θ 9,66</text><text x="1110" y="741">α 84,7</text><text x="1110" y="755">t 3,85</text><text x="1225" y="699">0,7</text><text x="1225" y="713">X 102,29</text><text x="1225" y="727">θ 10,05</text><text x="1225" y="741">α 87,9</text><text x="1225" y="755">t 3,09</text><text x="1340" y="699">0,8</text><text x="1340" y="713">X 107,91</text><text x="1340" y="727">θ 10,10</text><text x="1340" y="741">α 91,2</text><text x="1340" y="755">t 2,21</text><text x="1455" y="699">0,9</text><text x="1455" y="713">X 113,52</text><text x="1455" y="727">θ 9,79</text><text x="1455" y="741">α 94,5</text><text x="1455" y="755">t 1,22</text><text x="1570" y="699">1,0</text><text x="1570" y="713">X 119,11</text><text x="1570" y="727">θ 9,13</text><text x="1570" y="741">α 97,8</text><text x="1570" y="755">t 0,11</text><text font-weight="bold" x="20" y="775">Estator — sección punta: r = 66,40 mm</text><text x="420" y="790">0,0</text><text x="420" y="804">X 64,30</text><text x="420" y="818">θ 0,00</text><text x="420" y="832">α 69,8</text><text x="420" y="846">t 0,00</text><text x="535" y="790">0,1</text><text x="535" y="804">X 69,94</text><text x="535" y="818">θ 1,66</text><text x="535" y="832">α 72,6</text><text x="535" y="846">t 3,72</text><text x="650" y="790">0,2</text><text x="650" y="804">X 75,67</text><text x="650" y="818">θ 3,08</text><text x="650" y="832">α 75,3</text><text x="650" y="846">t 4,56</text><text x="765" y="790">0,3</text><text x="765" y="804">X 81,47</text><text x="765" y="818">θ 4,27</text><text x="765" y="832">α 78,0</text><text x="765" y="846">t 4,77</text><text x="880" y="790">0,4</text><text x="880" y="804">X 87,32</text><text x="880" y="818">θ 5,22</text><text x="880" y="832">α 80,7</text><text x="880" y="846">t 4,61</text><text x="995" y="790">0,5</text><text x="995" y="804">X 93,23</text><text x="995" y="818">θ 5,92</text><text x="995" y="832">α 83,5</text><text x="995" y="846">t 4,21</text><text x="1110" y="790">0,6</text><text x="1110" y="804">X 99,16</text><text x="1110" y="818">θ 6,39</text><text x="1110" y="832">α 86,2</text><text x="1110" y="846">t 3,63</text><text x="1225" y="790">0,7</text><text x="1225" y="804">X 105,11</text><text x="1225" y="818">θ 6,61</text><text x="1225" y="832">α 88,9</text><text x="1225" y="846">t 2,91</text><text x="1340" y="790">0,8</text><text x="1340" y="804">X 111,07</text><text x="1340" y="818">θ 6,58</text><text x="1340" y="832">α 91,6</text><text x="1340" y="846">t 2,08</text><text x="1455" y="790">0,9</text><text x="1455" y="804">X 117,02</text><text x="1455" y="818">θ 6,31</text><text x="1455" y="832">α 94,4</text><text x="1455" y="846">t 1,15</text><text x="1570" y="790">1,0</text><text x="1570" y="804">X 122,95</text><text x="1570" y="818">θ 5,80</text><text x="1570" y="832">α 97,1</text><text x="1570" y="846">t 0,10</text></g><g font-family="DejaVu Sans" font-size="11"><rect fill="none" height="100" stroke="black" width="420" x="1270" y="1390" /><text font-size="12" font-weight="bold" x="1278" y="1408">P1-PMP-03  Tabla de ángulos de álabe (impulsor y estator) para CNC 5 ejes</text><text font-size="10" font-weight="normal" x="1278" y="1425">Material: AISI 316 (impulsor) / Al 6061-T6 anodizado duro (estator)</text><text font-size="10" font-weight="normal" x="1278" y="1442">Escala —  —  cotas en mm</text><text font-size="10" font-weight="normal" x="1278" y="1459">Tolerancias generales ISO 2768-m; aristas matadas 0.3×45°; Ra 1.6 en asientos</text><text font-size="10" font-weight="normal" x="1278" y="1476">P1-J waterjet — generado por 04_diseno/planos.py desde inputs.yaml</text><text font-size="10" x="20" y="1390">• Geometría completa en 04_diseno/step/P1-PMP-03_impeller.step y P1-PMP-06_stator.step (manda el STEP).</text><text font-size="10" x="20" y="1405">• Ángulos y cuerdas: 04_diseno/params_bomba.py (pmp_blade_row / pmp_vane_row) desde sizing.json.</text></g></svg>