<?xml version="1.0" encoding="utf-8" ?>
<svg baseProfile="full" height="620" version="1.1" width="1400" xmlns="http://www.w3.org/2000/svg" xmlns:ev="http://www.w3.org/2001/xml-events" xmlns:xlink="http://www.w3.org/1999/xlink"><defs /><rect fill="white" height="620" width="1400" x="0" y="0" /><line stroke="black" stroke-dasharray="12,3,3,3" stroke-width="0.6" x1="40" x2="265.6093523691289" y1="200" y2="200" /><rect fill="#e8e8e8" height="220.0" stroke="black" stroke-width="1" width="13.656114214773432" x="60" y="90.0" /><text font-family="DejaVu Sans" font-size="9" text-anchor="middle" x="66.82805710738671" y="204">Ø193.32</text><line stroke="#0050a0" stroke-width="0.8" x1="60" x2="73.65611421477342" y1="332.0" y2="332.0" /><line stroke="#0050a0" stroke-width="0.8" x1="60" x2="60" y1="328.0" y2="336.0" /><line stroke="#0050a0" stroke-width="0.8" x1="73.65611421477342" x2="73.65611421477342" y1="328.0" y2="336.0" /><text fill="#0050a0" font-family="DejaVu Sans" font-size="9" text-anchor="middle" x="66.82805710738671" y="329.0">12.0</text><text fill="#444" font-family="DejaVu Sans" font-size="8" x="62" y="80.0">brida de la toma</text><rect fill="#e8e8e8" height="174.47961928408856" stroke="black" stroke-width="1" width="158.29712393958204" x="73.65611421477342" y="112.76019035795572" /><text font-family="DejaVu Sans" font-size="9" text-anchor="middle" x="152.80467618456444" y="204">Ø153.32</text><line stroke="#0050a0" stroke-width="0.8" x1="60" x2="231.95323815435546" y1="348.0" y2="348.0" /><line stroke="#0050a0" stroke-width="0.8" x1="60" x2="60" y1="344.0" y2="352.0" /><line stroke="#0050a0" stroke-width="0.8" x1="231.95323815435546" x2="231.95323815435546" y1="344.0" y2="352.0" /><text fill="#0050a0" font-family="DejaVu Sans" font-size="9" text-anchor="middle" x="145.97661907717773" y="345.0">151.1</text><text fill="#444" font-family="DejaVu Sans" font-size="8" x="75.65611421477342" y="68.0">cuerpo</text><rect fill="#e8e8e8" height="211.6697703289882" stroke="black" stroke-width="1" width="13.656114214773432" x="231.95323815435546" y="94.1651148355059" /><text font-family="DejaVu Sans" font-size="9" text-anchor="middle" x="238.78129526174217" y="204">Ø186</text><line stroke="#0050a0" stroke-width="0.8" x1="60" x2="245.60935236912889" y1="364.0" y2="364.0" /><line stroke="#0050a0" stroke-width="0.8" x1="60" x2="60" y1="360.0" y2="368.0" /><line stroke="#0050a0" stroke-width="0.8" x1="245.60935236912889" x2="245.60935236912889" y1="360.0" y2="368.0" /><text fill="#0050a0" font-family="DejaVu Sans" font-size="9" text-anchor="middle" x="152.80467618456444" y="361.0">163.1</text><text fill="#444" font-family="DejaVu Sans" font-size="8" x="233.95323815435546" y="56.0">brida a la tobera</text><line stroke="red" stroke-width="0.8" x1="60.0" x2="60.0" y1="40.0" y2="200" /><text fill="red" font-family="DejaVu Sans" font-size="9" x="63.0" y="38.0">cara: ranura O-ring Ø143,3–Ø152,8 × 2,65 prof.</text><line stroke="red" stroke-width="0.8" x1="71.38009517897785" x2="71.38009517897785" y1="40.0" y2="200" /><text fill="red" font-family="DejaVu Sans" font-size="9" x="74.38009517897785" y="38.0">escalón: pasador Ø4 × 6 (r 69,2, arriba)</text><line stroke="red" stroke-width="0.8" x1="193.0333126422512" x2="193.0333126422512" y1="40.0" y2="200" /><text fill="red" font-family="DejaVu Sans" font-size="9" x="196.0333126422512" y="38.0">2 × Ø5,4 radiales ±Y (M5 A4 estator)</text><line stroke="red" stroke-width="0.8" x1="229.6772191185599" x2="229.6772191185599" y1="40.0" y2="200" /><text fill="red" font-family="DejaVu Sans" font-size="9" x="232.6772191185599" y="38.0">puerto G1/8 arriba (saliente Ø22)</text><line stroke="#0050a0" stroke-width="0.8" x1="60" x2="245.60935236912889" y1="60" y2="60" /><line stroke="#0050a0" stroke-width="0.8" x1="60" x2="60" y1="56" y2="64" /><line stroke="#0050a0" stroke-width="0.8" x1="245.60935236912889" x2="245.60935236912889" y1="56" y2="64" /><text fill="#0050a0" font-family="DejaVu Sans" font-size="9" text-anchor="middle" x="152.80467618456444" y="57">Largo total 163.1</text><g font-family="DejaVu Sans" font-size="11"><rect fill="none" height="100" stroke="black" width="420" x="970" y="510" /><text font-size="12" font-weight="bold" x="978" y="528">P1-PMP-01  housing</text><text font-size="10" font-weight="normal" x="978" y="545">Material: Al 6061-T6, anodizado duro</text><text font-size="10" font-weight="normal" x="978" y="562">Escala 1.14:1 (pantalla)  —  cotas en mm</text><text font-size="10" font-weight="normal" x="978" y="579">Tolerancias generales ISO 2768-m; aristas matadas 0.3×45°; Ra 1.6 en asientos</text><text font-size="10" font-weight="normal" x="978" y="596">P1-J waterjet — generado por 04_diseno/planos.py desde inputs.yaml</text><text font-size="10" x="20" y="510">• Bore: Ø133,32 H8 de X -16,6 a -6,6; Ø143,32 H7 de -6,6 a 146,5 (marco JET).</text><text font-size="10" x="20" y="525">• Brida toma: 8 × Ø6,4 en Ø165,32 a 22.5° + k·45° desde +Y (coordinar con TOMA). Brida tobera: 8 × Ø6,4 en Ø170,0, misma fase.</text><text font-size="10" x="20" y="540">• Galvánica Al–316: anodizado duro, Tef-Gel en roscas y asientos, ánodo de Al (R06 §0, R10b H21).</text><text font-size="10" x="20" y="555">• Concentricidad asiento ↔ cara/centraje de brida ≤ 0,03 TIR (mecanizar en una atada).</text></g></svg>