<?xml version="1.0" encoding="utf-8" ?>
<svg baseProfile="full" height="620" version="1.1" width="1400" xmlns="http://www.w3.org/2000/svg" xmlns:ev="http://www.w3.org/2001/xml-events" xmlns:xlink="http://www.w3.org/1999/xlink"><defs /><rect fill="white" height="620" width="1400" x="0" y="0" /><line stroke="black" stroke-dasharray="12,3,3,3" stroke-width="0.6" x1="40" x2="397.77777777777777" y1="200" y2="200" /><rect fill="#e8e8e8" height="146.66666666666666" stroke="black" stroke-width="1" width="85.55555555555554" x="60" y="126.66666666666667" /><text font-family="DejaVu Sans" font-size="9" text-anchor="middle" x="102.77777777777777" y="204">Ø24</text><line stroke="#0050a0" stroke-width="0.8" x1="60" x2="145.55555555555554" y1="332.0" y2="332.0" /><line stroke="#0050a0" stroke-width="0.8" x1="60" x2="60" y1="328.0" y2="336.0" /><line stroke="#0050a0" stroke-width="0.8" x1="145.55555555555554" x2="145.55555555555554" y1="328.0" y2="336.0" /><text fill="#0050a0" font-family="DejaVu Sans" font-size="9" text-anchor="middle" x="102.77777777777777" y="329.0">14.0</text><text fill="#444" font-family="DejaVu Sans" font-size="8" x="62" y="80.0">M24×1,5-6g (en la oreja; punta enrasada a la cara exterior)</text><rect fill="#e8e8e8" height="220.0" stroke="black" stroke-width="1" width="48.888888888888886" x="145.55555555555554" y="90.0" /><text font-family="DejaVu Sans" font-size="9" text-anchor="middle" x="170.0" y="204">Ø36</text><line stroke="#0050a0" stroke-width="0.8" x1="60" x2="194.44444444444443" y1="348.0" y2="348.0" /><line stroke="#0050a0" stroke-width="0.8" x1="60" x2="60" y1="344.0" y2="352.0" /><line stroke="#0050a0" stroke-width="0.8" x1="194.44444444444443" x2="194.44444444444443" y1="344.0" y2="352.0" /><text fill="#0050a0" font-family="DejaVu Sans" font-size="9" text-anchor="middle" x="127.22222222222221" y="345.0">22.0</text><text fill="#444" font-family="DejaVu Sans" font-size="8" x="147.55555555555554" y="68.0">collar Ø36, 2 planos e/c 32; cara de apoyo a escuadra ≤ 0,02</text><rect fill="#e8e8e8" height="146.66666666666666" stroke="black" stroke-width="1" width="158.88888888888889" x="194.44444444444443" y="126.66666666666667" /><text font-family="DejaVu Sans" font-size="9" text-anchor="middle" x="273.88888888888886" y="204">Ø24</text><line stroke="#0050a0" stroke-width="0.8" x1="60" x2="353.3333333333333" y1="364.0" y2="364.0" /><line stroke="#0050a0" stroke-width="0.8" x1="60" x2="60" y1="360.0" y2="368.0" /><line stroke="#0050a0" stroke-width="0.8" x1="353.3333333333333" x2="353.3333333333333" y1="360.0" y2="368.0" /><text fill="#0050a0" font-family="DejaVu Sans" font-size="9" text-anchor="middle" x="206.66666666666666" y="361.0">48.0</text><text fill="#444" font-family="DejaVu Sans" font-size="8" x="196.44444444444443" y="56.0">cuerpo Ø24</text><rect fill="#e8e8e8" height="146.66666666666666" stroke="black" stroke-width="1" width="24.444444444444443" x="353.3333333333333" y="126.66666666666667" /><text font-family="DejaVu Sans" font-size="9" text-anchor="middle" x="365.55555555555554" y="204">Ø24</text><line stroke="#0050a0" stroke-width="0.8" x1="60" x2="377.77777777777777" y1="380.0" y2="380.0" /><line stroke="#0050a0" stroke-width="0.8" x1="60" x2="60" y1="376.0" y2="384.0" /><line stroke="#0050a0" stroke-width="0.8" x1="377.77777777777777" x2="377.77777777777777" y1="376.0" y2="384.0" /><text fill="#0050a0" font-family="DejaVu Sans" font-size="9" text-anchor="middle" x="218.88888888888889" y="377.0">52.0</text><text fill="#444" font-family="DejaVu Sans" font-size="8" x="355.3333333333333" y="80.0">tapa roscada M20×1 con Ø10,2 (cola del perno)</text><line stroke="red" stroke-width="0.8" x1="60.0" x2="60.0" y1="40.0" y2="200" /><text fill="red" font-family="DejaVu Sans" font-size="9" x="63.0" y="38.0">punta: cara exterior de la oreja</text><line stroke="red" stroke-width="0.8" x1="170.0" x2="170.0" y1="40.0" y2="200" /><text fill="red" font-family="DejaVu Sans" font-size="9" x="173.0" y="38.0">fin de la guía / inicio de la cámara del resorte</text><line stroke="#0050a0" stroke-width="0.8" x1="60" x2="377.77777777777777" y1="60" y2="60" /><line stroke="#0050a0" stroke-width="0.8" x1="60" x2="60" y1="56" y2="64" /><line stroke="#0050a0" stroke-width="0.8" x1="377.77777777777777" x2="377.77777777777777" y1="56" y2="64" /><text fill="#0050a0" font-family="DejaVu Sans" font-size="9" text-anchor="middle" x="218.88888888888889" y="57">Largo total 52.0</text><g font-family="DejaVu Sans" font-size="11"><rect fill="none" height="100" stroke="black" width="420" x="970" y="510" /><text font-size="12" font-weight="bold" x="978" y="528">P1-REV-04  embolo_cuerpo</text><text font-size="10" font-weight="normal" x="978" y="545">Material: AISI 316 (1.4401) barra Ø40 (collar Ø36)</text><text font-size="10" font-weight="normal" x="978" y="562">Escala 6.11:1 (pantalla)  —  cotas en mm</text><text font-size="10" font-weight="normal" x="978" y="579">Tolerancias generales ISO 2768-m; aristas matadas 0.3×45°; Ra 1.6 en asientos</text><text font-size="10" font-weight="normal" x="978" y="596">P1-J waterjet — generado por 04_diseno/planos.py desde inputs.yaml</text><text font-size="10" x="20" y="510">• Interior Ø16 H8 pasante (guía del perno, Ra 0,8); rosca interior M20×1 × 6 atrás para la tapa; ×2</text><text font-size="10" x="20" y="525">• El collar apoya en la cara interior de la oreja: apretar el cuerpo a 110 N·m (K 0.15–0.28) con Loctite 243 (rosca de la oreja</text><text font-size="10" x="20" y="540">•   sin Tef-Gel; la cara del collar sobre el anodizado); la punta queda enrasada a la cara exterior</text><text font-size="10" x="20" y="555">• Resorte de compresión inox (B-SPRING): alambre 1,6, Ø ext 15, largo libre ≈ 40,</text><text font-size="10" x="20" y="570">•   instalado 30 (≈ 20 N), con el perno afuera 18 (≈ 44 N) [ESTIMADO]</text></g></svg>