<?xml version="1.0" encoding="utf-8" ?>
<svg baseProfile="full" height="620" version="1.1" width="1400" xmlns="http://www.w3.org/2000/svg" xmlns:ev="http://www.w3.org/2001/xml-events" xmlns:xlink="http://www.w3.org/1999/xlink"><defs /><rect fill="white" height="620" width="1400" x="0" y="0" /><line stroke="black" stroke-dasharray="12,3,3,3" stroke-width="0.6" x1="40" x2="443.84615384615387" y1="200" y2="200" /><rect fill="#e8e8e8" height="101.53846153846155" stroke="black" stroke-width="1" width="126.92307692307692" x="60" y="149.23076923076923" /><text font-family="DejaVu Sans" font-size="9" text-anchor="middle" x="123.46153846153845" y="204">Ø6</text><line stroke="#0050a0" stroke-width="0.8" x1="60" x2="186.9230769230769" y1="332.0" y2="332.0" /><line stroke="#0050a0" stroke-width="0.8" x1="60" x2="60" y1="328.0" y2="336.0" /><line stroke="#0050a0" stroke-width="0.8" x1="186.9230769230769" x2="186.9230769230769" y1="328.0" y2="336.0" /><text fill="#0050a0" font-family="DejaVu Sans" font-size="9" text-anchor="middle" x="123.46153846153845" y="329.0">7.5</text><text fill="#444" font-family="DejaVu Sans" font-size="8" x="62" y="80.0">M6</text><rect fill="#e8e8e8" height="135.3846153846154" stroke="black" stroke-width="1" width="169.23076923076923" x="186.9230769230769" y="132.30769230769232" /><text font-family="DejaVu Sans" font-size="9" text-anchor="middle" x="271.53846153846155" y="204">Ø8</text><line stroke="#0050a0" stroke-width="0.8" x1="60" x2="356.15384615384613" y1="348.0" y2="348.0" /><line stroke="#0050a0" stroke-width="0.8" x1="60" x2="60" y1="344.0" y2="352.0" /><line stroke="#0050a0" stroke-width="0.8" x1="356.15384615384613" x2="356.15384615384613" y1="344.0" y2="352.0" /><text fill="#0050a0" font-family="DejaVu Sans" font-size="9" text-anchor="middle" x="208.07692307692307" y="345.0">17.5</text><text fill="#444" font-family="DejaVu Sans" font-size="8" x="188.9230769230769" y="68.0">hombro Ø8 f7</text><rect fill="#e8e8e8" height="220.0" stroke="black" stroke-width="1" width="67.6923076923077" x="356.15384615384613" y="90.0" /><text font-family="DejaVu Sans" font-size="9" text-anchor="middle" x="390.0" y="204">Ø13</text><line stroke="#0050a0" stroke-width="0.8" x1="60" x2="423.8461538461538" y1="364.0" y2="364.0" /><line stroke="#0050a0" stroke-width="0.8" x1="60" x2="60" y1="360.0" y2="368.0" /><line stroke="#0050a0" stroke-width="0.8" x1="423.8461538461538" x2="423.8461538461538" y1="360.0" y2="368.0" /><text fill="#0050a0" font-family="DejaVu Sans" font-size="9" text-anchor="middle" x="241.9230769230769" y="361.0">21.5</text><text fill="#444" font-family="DejaVu Sans" font-size="8" x="358.15384615384613" y="56.0">cabeza</text><line stroke="#0050a0" stroke-width="0.8" x1="60" x2="423.84615384615387" y1="60" y2="60" /><line stroke="#0050a0" stroke-width="0.8" x1="60" x2="60" y1="56" y2="64" /><line stroke="#0050a0" stroke-width="0.8" x1="423.84615384615387" x2="423.84615384615387" y1="56" y2="64" /><text fill="#0050a0" font-family="DejaVu Sans" font-size="9" text-anchor="middle" x="241.92307692307693" y="57">Largo total 21.5</text><g font-family="DejaVu Sans" font-size="11"><rect fill="none" height="100" stroke="black" width="420" x="970" y="510" /><text font-size="12" font-weight="bold" x="978" y="528">P1-REV-06  perno_varilla</text><text font-size="10" font-weight="normal" x="978" y="545">Material: AISI 316</text><text font-size="10" font-weight="normal" x="978" y="562">Escala 16.92:1 (pantalla)  —  cotas en mm</text><text font-size="10" font-weight="normal" x="978" y="579">Tolerancias generales ISO 2768-m; aristas matadas 0.3×45°; Ra 1.6 en asientos</text><text font-size="10" font-weight="normal" x="978" y="596">P1-J waterjet — generado por 04_diseno/planos.py desde inputs.yaml</text><text font-size="10" x="20" y="510">• Rótula hembra M6 del Mach5 en el hombro</text></g></svg>