<?xml version="1.0" encoding="utf-8" ?>
<svg baseProfile="full" height="620" version="1.1" width="1400" xmlns="http://www.w3.org/2000/svg" xmlns:ev="http://www.w3.org/2001/xml-events" xmlns:xlink="http://www.w3.org/1999/xlink"><defs /><rect fill="white" height="620" width="1400" x="0" y="0" /><line stroke="black" stroke-dasharray="12,3,3,3" stroke-width="0.6" x1="40" x2="92.22222222222223" y1="200" y2="200" /><rect fill="#e8e8e8" height="220.0" stroke="black" stroke-width="1" width="12.222222222222221" x="60" y="90.0" /><text font-family="DejaVu Sans" font-size="9" text-anchor="middle" x="66.11111111111111" y="204">Ø18</text><line stroke="#0050a0" stroke-width="0.8" x1="60" x2="72.22222222222223" y1="332.0" y2="332.0" /><line stroke="#0050a0" stroke-width="0.8" x1="60" x2="60" y1="328.0" y2="336.0" /><line stroke="#0050a0" stroke-width="0.8" x1="72.22222222222223" x2="72.22222222222223" y1="328.0" y2="336.0" /><text fill="#0050a0" font-family="DejaVu Sans" font-size="9" text-anchor="middle" x="66.11111111111111" y="329.0">1.0</text><text fill="#444" font-family="DejaVu Sans" font-size="8" x="62" y="80.0">Ø8.4 interior</text><line stroke="#0050a0" stroke-width="0.8" x1="60" x2="72.22222222222223" y1="60" y2="60" /><line stroke="#0050a0" stroke-width="0.8" x1="60" x2="60" y1="56" y2="64" /><line stroke="#0050a0" stroke-width="0.8" x1="72.22222222222223" x2="72.22222222222223" y1="56" y2="64" /><text fill="#0050a0" font-family="DejaVu Sans" font-size="9" text-anchor="middle" x="66.11111111111111" y="57">Largo total 1.0</text><g font-family="DejaVu Sans" font-size="11"><rect fill="none" height="100" stroke="black" width="420" x="970" y="510" /><text font-size="12" font-weight="bold" x="978" y="528">P1-STE-03  arandela_pom</text><text font-size="10" font-weight="normal" x="978" y="545">Material: POM-C</text><text font-size="10" font-weight="normal" x="978" y="562">Escala 12.22:1 (pantalla)  —  cotas en mm</text><text font-size="10" font-weight="normal" x="978" y="579">Tolerancias generales ISO 2768-m; aristas matadas 0.3×45°; Ra 1.6 en asientos</text><text font-size="10" font-weight="normal" x="978" y="596">P1-J waterjet — generado por 04_diseno/planos.py desde inputs.yaml</text><text font-size="10" x="20" y="510">• Arandela de empuje ×4</text><text font-size="10" x="20" y="525">• Planitud 0,05</text></g></svg>